<svg width="575" height="36" viewBox="0 0 575 36" fill="none" xmlns="http://www.w3.org/2000/svg">
<path d="M64.0805 0.0949376C63.9785 0.241394 64.4317 2.37064 66.1538 9.85117C66.3917 10.8989 66.7203 12.3522 66.8902 13.0619C67.0489 13.7717 67.2075 14.4702 67.2415 14.5941C67.2981 14.8307 67.2415 14.8419 66.3577 14.9095C61.8825 15.27 59.3107 15.6756 54.8921 16.7233C49.148 18.0978 49.3973 18.0414 48.6608 17.9851C48.287 17.9513 47.2899 17.8161 46.4516 17.6922C43.7211 17.2754 41.2626 17.1064 37.2179 17.0388C31.2585 16.9487 25.4351 17.219 20.1668 17.8499L17.9575 18.109L15.7482 17.8499C11.5562 17.343 5.92541 17.005 1.79008 17.005H0V18.0189V19.0328L2.9797 19.0554C5.65349 19.0666 5.78945 19.0779 4.41856 19.1568C3.58017 19.1906 2.24327 19.2356 1.45019 19.2469L0 19.2582V20.2158V21.1734H2.63981C6.70715 21.1734 10.4346 20.948 15.227 20.4185L17.9348 20.1256L20.7219 20.4298C26.636 21.072 29.9103 21.2184 36.5155 21.1396C41.9537 21.0832 43.6191 20.9706 47.1313 20.4298C49.318 20.0918 48.7741 20.0242 53.8158 21.2297C55.7192 21.6803 57.9398 22.1873 58.7442 22.345C60.3417 22.6492 63.4687 23.0886 64.0805 23.0886C64.2957 23.0886 64.4657 23.1449 64.4657 23.2125C64.4657 23.2688 63.582 24.9812 62.5057 27.0091C59.492 32.6645 58.5743 34.4333 58.5743 34.6135C58.5743 34.929 58.7669 34.9177 59.356 34.6023C60.3417 34.084 61.5766 33.025 62.6869 31.7745C65.1002 29.0369 65.3947 28.6314 66.8109 25.9613L68.1478 23.4265H68.9522C69.632 23.4265 69.7906 23.4603 69.9719 23.6631C70.2212 23.956 70.8103 24.2151 71.1842 24.2151C71.3315 24.2151 71.694 24.0912 71.9886 23.9448C72.5211 23.6744 72.5211 23.6744 73.0536 23.8772L73.5861 24.0799L73.8353 26.4458L74.0732 28.8229L74.8097 29.9833C75.2062 30.6254 76.0333 32.0562 76.6337 33.1828C77.8347 35.3909 78.1746 35.8978 78.3785 35.7739C78.7071 35.5711 78.4578 32.8898 77.4948 26.2993C77.2682 24.6883 77.0756 23.3589 77.0869 23.3477C77.0982 23.3364 77.7327 23.2801 78.5145 23.2012C82.3665 22.8632 84.6891 22.4577 89.8441 21.2297C94.8858 20.0242 94.342 20.0918 96.5286 20.4298C100.029 20.9706 101.718 21.0832 107.11 21.1396C113.784 21.2184 116.922 21.072 122.938 20.4298L125.725 20.1256L128.433 20.4185C133.361 20.9593 136.941 21.1734 141.031 21.1734H143.66V20.2158V19.2582L142.221 19.2469C141.417 19.2356 140.08 19.1906 139.241 19.1568C137.87 19.0779 138.006 19.0666 140.692 19.0554L143.66 19.0328V18.0189V17.005H141.881C137.735 17.005 132.104 17.343 127.912 17.8387L125.702 18.109L123.493 17.8499C118.214 17.219 112.401 16.9487 106.442 17.0388C102.397 17.1064 99.9388 17.2754 97.2084 17.6922C96.37 17.8161 95.373 17.9513 94.9991 17.9851C94.2627 18.0414 94.5006 18.0865 88.8244 16.7459C85.4142 15.9347 83.3975 15.5517 80.9503 15.2588C80.0779 15.1574 79.3528 15.056 79.3415 15.0447C79.3302 15.0447 79.7834 13.9632 80.3385 12.6676C83.1823 6.05458 83.8394 4.16191 83.3296 4.16191C83.2389 4.16191 81.8794 5.44622 80.3159 7.00091L77.4721 9.85117L76.5091 12.3522C75.5801 14.7743 75.5348 14.8645 75.2289 14.8645C74.821 14.8645 74.5491 14.5378 74.5491 14.0646C74.5491 13.5351 74.2205 12.9493 73.7673 12.6451C73.0876 12.1945 72.0452 12.3522 71.5241 12.9718C71.3428 13.2084 70.4931 13.6816 70.4138 13.6027C70.3911 13.5802 70.0965 12.2846 69.7453 10.7186C69.0655 7.68813 68.9296 7.29382 67.4001 4.25204C66.4031 2.23545 66.0292 1.67216 64.9302 0.52304C64.4317 0.00481072 64.2051 -0.107848 64.0805 0.0949376ZM67.8646 17.005C67.8646 17.0613 67.5134 17.7373 67.0942 18.4921C66.6636 19.2582 66.1538 20.182 65.9499 20.5537L65.5987 21.2297L65.1115 21.1959C62.1205 20.9818 59.1521 20.4749 55.4586 19.5736L53.5326 19.1004L55.5153 18.616C58.8349 17.8049 61.5426 17.343 64.9189 17.0163C66.3011 16.8811 67.8646 16.8698 67.8646 17.005ZM81.2336 17.2979C83.103 17.5232 85.6975 18.0189 88.1447 18.616L90.1273 19.1004L88.2013 19.5736C84.2246 20.5425 81.1883 21.0382 77.9253 21.241C76.7697 21.3198 76.7017 21.3085 76.7017 21.1058C76.7017 20.9931 77.0982 20.013 77.5741 18.9427L78.4465 16.9825L79.1263 17.0613C79.5115 17.0951 80.4518 17.2078 81.2336 17.2979ZM38.6341 19.1455C36.9346 19.2469 33.4338 19.2582 31.4964 19.1568C30.4768 19.1004 31.621 19.0666 34.952 19.0666C37.9996 19.0666 39.4272 19.1004 38.6341 19.1455ZM112.164 19.1568C110.226 19.2582 106.725 19.2469 105.026 19.1455C104.233 19.1004 105.66 19.0666 108.708 19.0666C112.039 19.0666 113.183 19.1004 112.164 19.1568Z" fill="black"/>
<path d="M207.86 0.0949376C207.758 0.241394 208.211 2.37064 209.933 9.85117C210.171 10.8989 210.5 12.3522 210.67 13.0619C210.828 13.7717 210.987 14.4702 211.021 14.5941C211.077 14.8307 211.021 14.8419 210.137 14.9095C205.662 15.27 203.09 15.6756 198.671 16.7233C192.927 18.0978 193.177 18.0414 192.44 17.9851C192.066 17.9513 191.069 17.8161 190.231 17.6922C187.5 17.2754 185.042 17.1064 180.997 17.0388C175.038 16.9487 169.214 17.219 163.946 17.8499L161.737 18.109L159.528 17.8499C155.336 17.343 149.705 17.005 145.569 17.005H143.779V18.0189V19.0328L146.759 19.0554C149.433 19.0666 149.569 19.0779 148.198 19.1568C147.359 19.1906 146.023 19.2356 145.229 19.2469L143.779 19.2582V20.2158V21.1734H146.419C150.486 21.1734 154.214 20.948 159.006 20.4185L161.714 20.1256L164.501 20.4298C170.415 21.072 173.69 21.2184 180.295 21.1396C185.733 21.0832 187.398 20.9706 190.911 20.4298C193.097 20.0918 192.553 20.0242 197.595 21.2297C199.499 21.6803 201.719 22.1873 202.524 22.345C204.121 22.6492 207.248 23.0886 207.86 23.0886C208.075 23.0886 208.245 23.1449 208.245 23.2125C208.245 23.2688 207.361 24.9812 206.285 27.0091C203.271 32.6645 202.354 34.4333 202.354 34.6135C202.354 34.929 202.546 34.9177 203.135 34.6023C204.121 34.084 205.356 33.025 206.466 31.7745C208.879 29.0369 209.174 28.6314 210.59 25.9613L211.927 23.4265H212.732C213.411 23.4265 213.57 23.4603 213.751 23.6631C214 23.956 214.59 24.2151 214.963 24.2151C215.111 24.2151 215.473 24.0912 215.768 23.9448C216.3 23.6744 216.3 23.6744 216.833 23.8772L217.365 24.0799L217.615 26.4458L217.853 28.8229L218.589 29.9833C218.985 30.6254 219.813 32.0562 220.413 33.1828C221.614 35.3909 221.954 35.8978 222.158 35.7739C222.486 35.5711 222.237 32.8898 221.274 26.2993C221.047 24.6883 220.855 23.3589 220.866 23.3477C220.878 23.3364 221.512 23.2801 222.294 23.2012C226.146 22.8632 228.468 22.4577 233.623 21.2297C238.665 20.0242 238.121 20.0918 240.308 20.4298C243.809 20.9706 245.497 21.0832 250.89 21.1396C257.563 21.2184 260.701 21.072 266.717 20.4298L269.504 20.1256L272.212 20.4185C277.141 20.9593 280.721 21.1734 284.811 21.1734H287.439V20.2158V19.2582L286 19.2469C285.196 19.2356 283.859 19.1906 283.021 19.1568C281.65 19.0779 281.786 19.0666 284.471 19.0554L287.439 19.0328V18.0189V17.005H285.66C281.514 17.005 275.883 17.343 271.691 17.8387L269.482 18.109L267.272 17.8499C261.993 17.219 256.181 16.9487 250.221 17.0388C246.177 17.1064 243.718 17.2754 240.988 17.6922C240.149 17.8161 239.152 17.9513 238.778 17.9851C238.042 18.0414 238.28 18.0865 232.604 16.7459C229.194 15.9347 227.177 15.5517 224.73 15.2588C223.857 15.1574 223.132 15.056 223.121 15.0447C223.109 15.0447 223.563 13.9632 224.118 12.6676C226.962 6.05458 227.619 4.16191 227.109 4.16191C227.018 4.16191 225.659 5.44622 224.095 7.00091L221.251 9.85117L220.288 12.3522C219.359 14.7743 219.314 14.8645 219.008 14.8645C218.6 14.8645 218.328 14.5378 218.328 14.0646C218.328 13.5351 218 12.9493 217.547 12.6451C216.867 12.1945 215.825 12.3522 215.303 12.9718C215.122 13.2084 214.272 13.6816 214.193 13.6027C214.17 13.5802 213.876 12.2846 213.525 10.7186C212.845 7.68813 212.709 7.29382 211.179 4.25204C210.182 2.23545 209.808 1.67216 208.71 0.52304C208.211 0.00481072 207.984 -0.107848 207.86 0.0949376ZM211.644 17.005C211.644 17.0613 211.293 17.7373 210.873 18.4921C210.443 19.2582 209.933 20.182 209.729 20.5537L209.378 21.2297L208.891 21.1959C205.9 20.9818 202.931 20.4749 199.238 19.5736L197.312 19.1004L199.295 18.616C202.614 17.8049 205.322 17.343 208.698 17.0163C210.08 16.8811 211.644 16.8698 211.644 17.005ZM225.013 17.2979C226.882 17.5232 229.477 18.0189 231.924 18.616L233.907 19.1004L231.981 19.5736C228.004 20.5425 224.968 21.0382 221.705 21.241C220.549 21.3198 220.481 21.3085 220.481 21.1058C220.481 20.9931 220.878 20.013 221.353 18.9427L222.226 16.9825L222.906 17.0613C223.291 17.0951 224.231 17.2078 225.013 17.2979ZM182.413 19.1455C180.714 19.2469 177.213 19.2582 175.276 19.1568C174.256 19.1004 175.4 19.0666 178.731 19.0666C181.779 19.0666 183.206 19.1004 182.413 19.1455ZM255.943 19.1568C254.005 19.2582 250.505 19.2469 248.805 19.1455C248.012 19.1004 249.44 19.0666 252.487 19.0666C255.818 19.0666 256.962 19.1004 255.943 19.1568Z" fill="black"/>
<path d="M351.641 0.0949376C351.539 0.241394 351.992 2.37064 353.714 9.85117C353.952 10.8989 354.281 12.3522 354.451 13.0619C354.609 13.7717 354.768 14.4702 354.802 14.5941C354.859 14.8307 354.802 14.8419 353.918 14.9095C349.443 15.27 346.871 15.6756 342.453 16.7233C336.709 18.0978 336.958 18.0414 336.221 17.9851C335.848 17.9513 334.85 17.8161 334.012 17.6922C331.282 17.2754 328.823 17.1064 324.778 17.0388C318.819 16.9487 312.996 17.219 307.727 17.8499L305.518 18.109L303.309 17.8499C299.117 17.343 293.486 17.005 289.351 17.005H287.561V18.0189V19.0328L290.54 19.0554C293.214 19.0666 293.35 19.0779 291.979 19.1568C291.141 19.1906 289.804 19.2356 289.011 19.2469L287.561 19.2582V20.2158V21.1734H290.2C294.268 21.1734 297.995 20.948 302.788 20.4185L305.495 20.1256L308.282 20.4298C314.197 21.072 317.471 21.2184 324.076 21.1396C329.514 21.0832 331.18 20.9706 334.692 20.4298C336.879 20.0918 336.335 20.0242 341.376 21.2297C343.28 21.6803 345.5 22.1873 346.305 22.345C347.902 22.6492 351.029 23.0886 351.641 23.0886C351.856 23.0886 352.026 23.1449 352.026 23.2125C352.026 23.2688 351.143 24.9812 350.066 27.0091C347.053 32.6645 346.135 34.4333 346.135 34.6135C346.135 34.929 346.327 34.9177 346.917 34.6023C347.902 34.084 349.137 33.025 350.247 31.7745C352.661 29.0369 352.955 28.6314 354.371 25.9613L355.708 23.4265H356.513C357.193 23.4265 357.351 23.4603 357.532 23.6631C357.782 23.956 358.371 24.2151 358.745 24.2151C358.892 24.2151 359.255 24.0912 359.549 23.9448C360.082 23.6744 360.082 23.6744 360.614 23.8772L361.147 24.0799L361.396 26.4458L361.634 28.8229L362.37 29.9833C362.767 30.6254 363.594 32.0562 364.194 33.1828C365.395 35.3909 365.735 35.8978 365.939 35.7739C366.268 35.5711 366.018 32.8898 365.055 26.2993C364.829 24.6883 364.636 23.3589 364.647 23.3477C364.659 23.3364 365.293 23.2801 366.075 23.2012C369.927 22.8632 372.25 22.4577 377.405 21.2297C382.446 20.0242 381.903 20.0918 384.089 20.4298C387.59 20.9706 389.278 21.0832 394.671 21.1396C401.344 21.2184 404.483 21.072 410.499 20.4298L413.286 20.1256L415.993 20.4185C420.922 20.9593 424.502 21.1734 428.592 21.1734H431.22V20.2158V19.2582L429.782 19.2469C428.977 19.2356 427.64 19.1906 426.802 19.1568C425.431 19.0779 425.567 19.0666 428.252 19.0554L431.22 19.0328V18.0189V17.005H429.442C425.295 17.005 419.664 17.343 415.472 17.8387L413.263 18.109L411.054 17.8499C405.774 17.219 399.962 16.9487 394.003 17.0388C389.958 17.1064 387.499 17.2754 384.769 17.6922C383.931 17.8161 382.934 17.9513 382.56 17.9851C381.823 18.0414 382.061 18.0865 376.385 16.7459C372.975 15.9347 370.958 15.5517 368.511 15.2588C367.638 15.1574 366.913 15.056 366.902 15.0447C366.891 15.0447 367.344 13.9632 367.899 12.6676C370.743 6.05458 371.4 4.16191 370.89 4.16191C370.799 4.16191 369.44 5.44622 367.876 7.00091L365.033 9.85117L364.07 12.3522C363.141 14.7743 363.095 14.8645 362.789 14.8645C362.382 14.8645 362.11 14.5378 362.11 14.0646C362.11 13.5351 361.781 12.9493 361.328 12.6451C360.648 12.1945 359.606 12.3522 359.085 12.9718C358.903 13.2084 358.054 13.6816 357.974 13.6027C357.952 13.5802 357.657 12.2846 357.306 10.7186C356.626 7.68813 356.49 7.29382 354.961 4.25204C353.964 2.23545 353.59 1.67216 352.491 0.52304C351.992 0.00481072 351.766 -0.107848 351.641 0.0949376ZM355.425 17.005C355.425 17.0613 355.074 17.7373 354.655 18.4921C354.224 19.2582 353.714 20.182 353.51 20.5537L353.159 21.2297L352.672 21.1959C349.681 20.9818 346.713 20.4749 343.019 19.5736L341.093 19.1004L343.076 18.616C346.395 17.8049 349.103 17.343 352.479 17.0163C353.862 16.8811 355.425 16.8698 355.425 17.005ZM368.794 17.2979C370.664 17.5232 373.258 18.0189 375.705 18.616L377.688 19.1004L375.762 19.5736C371.785 20.5425 368.749 21.0382 365.486 21.241C364.33 21.3198 364.262 21.3085 364.262 21.1058C364.262 20.9931 364.659 20.013 365.135 18.9427L366.007 16.9825L366.687 17.0613C367.072 17.0951 368.012 17.2078 368.794 17.2979ZM326.195 19.1455C324.495 19.2469 320.994 19.2582 319.057 19.1568C318.037 19.1004 319.182 19.0666 322.513 19.0666C325.56 19.0666 326.988 19.1004 326.195 19.1455ZM399.724 19.1568C397.787 19.2582 394.286 19.2469 392.586 19.1455C391.793 19.1004 393.221 19.0666 396.269 19.0666C399.599 19.0666 400.744 19.1004 399.724 19.1568Z" fill="black"/>
<path d="M495.42 0.0949376C495.318 0.241394 495.772 2.37064 497.494 9.85117C497.732 10.8989 498.06 12.3522 498.23 13.0619C498.389 13.7717 498.547 14.4702 498.581 14.5941C498.638 14.8307 498.581 14.8419 497.698 14.9095C493.222 15.27 490.651 15.6756 486.232 16.7233C480.488 18.0978 480.737 18.0414 480.001 17.9851C479.627 17.9513 478.63 17.8161 477.791 17.6922C475.061 17.2754 472.602 17.1064 468.558 17.0388C462.598 16.9487 456.775 17.219 451.507 17.8499L449.297 18.109L447.088 17.8499C442.896 17.343 437.265 17.005 433.13 17.005H431.34V18.0189V19.0328L434.32 19.0554C436.993 19.0666 437.129 19.0779 435.758 19.1568C434.92 19.1906 433.583 19.2356 432.79 19.2469L431.34 19.2582V20.2158V21.1734H433.98C438.047 21.1734 441.774 20.948 446.567 20.4185L449.275 20.1256L452.062 20.4298C457.976 21.072 461.25 21.2184 467.855 21.1396C473.294 21.0832 474.959 20.9706 478.471 20.4298C480.658 20.0918 480.114 20.0242 485.156 21.2297C487.059 21.6803 489.28 22.1873 490.084 22.345C491.682 22.6492 494.809 23.0886 495.42 23.0886C495.636 23.0886 495.806 23.1449 495.806 23.2125C495.806 23.2688 494.922 24.9812 493.846 27.0091C490.832 32.6645 489.914 34.4333 489.914 34.6135C489.914 34.929 490.107 34.9177 490.696 34.6023C491.682 34.084 492.916 33.025 494.027 31.7745C496.44 29.0369 496.735 28.6314 498.151 25.9613L499.488 23.4265H500.292C500.972 23.4265 501.13 23.4603 501.312 23.6631C501.561 23.956 502.15 24.2151 502.524 24.2151C502.671 24.2151 503.034 24.0912 503.328 23.9448C503.861 23.6744 503.861 23.6744 504.393 23.8772L504.926 24.0799L505.175 26.4458L505.413 28.8229L506.15 29.9833C506.546 30.6254 507.373 32.0562 507.974 33.1828C509.175 35.3909 509.514 35.8978 509.718 35.7739C510.047 35.5711 509.798 32.8898 508.835 26.2993C508.608 24.6883 508.415 23.3589 508.427 23.3477C508.438 23.3364 509.073 23.2801 509.854 23.2012C513.706 22.8632 516.029 22.4577 521.184 21.2297C526.226 20.0242 525.682 20.0918 527.868 20.4298C531.369 20.9706 533.057 21.0832 538.45 21.1396C545.123 21.2184 548.262 21.072 554.278 20.4298L557.065 20.1256L559.773 20.4185C564.701 20.9593 568.281 21.1734 572.371 21.1734H575V20.2158V19.2582L573.561 19.2469C572.756 19.2356 571.42 19.1906 570.581 19.1568C569.21 19.0779 569.346 19.0666 572.031 19.0554L575 19.0328V18.0189V17.005H573.221C569.074 17.005 563.444 17.343 559.252 17.8387L557.042 18.109L554.833 17.8499C549.553 17.219 543.741 16.9487 537.782 17.0388C533.737 17.1064 531.279 17.2754 528.548 17.6922C527.71 17.8161 526.713 17.9513 526.339 17.9851C525.603 18.0414 525.84 18.0865 520.164 16.7459C516.754 15.9347 514.737 15.5517 512.29 15.2588C511.418 15.1574 510.693 15.056 510.681 15.0447C510.67 15.0447 511.123 13.9632 511.678 12.6676C514.522 6.05458 515.179 4.16191 514.669 4.16191C514.579 4.16191 513.219 5.44622 511.656 7.00091L508.812 9.85117L507.849 12.3522C506.92 14.7743 506.875 14.8645 506.569 14.8645C506.161 14.8645 505.889 14.5378 505.889 14.0646C505.889 13.5351 505.56 12.9493 505.107 12.6451C504.427 12.1945 503.385 12.3522 502.864 12.9718C502.683 13.2084 501.833 13.6816 501.754 13.6027C501.731 13.5802 501.436 12.2846 501.085 10.7186C500.405 7.68813 500.269 7.29382 498.74 4.25204C497.743 2.23545 497.369 1.67216 496.27 0.52304C495.772 0.00481072 495.545 -0.107848 495.42 0.0949376ZM499.204 17.005C499.204 17.0613 498.853 17.7373 498.434 18.4921C498.003 19.2582 497.494 20.182 497.29 20.5537L496.939 21.2297L496.451 21.1959C493.46 20.9818 490.492 20.4749 486.798 19.5736L484.872 19.1004L486.855 18.616C490.175 17.8049 492.882 17.343 496.259 17.0163C497.641 16.8811 499.204 16.8698 499.204 17.005ZM512.573 17.2979C514.443 17.5232 517.037 18.0189 519.484 18.616L521.467 19.1004L519.541 19.5736C515.564 20.5425 512.528 21.0382 509.265 21.241C508.11 21.3198 508.042 21.3085 508.042 21.1058C508.042 20.9931 508.438 20.013 508.914 18.9427L509.786 16.9825L510.466 17.0613C510.851 17.0951 511.792 17.2078 512.573 17.2979ZM469.974 19.1455C468.274 19.2469 464.774 19.2582 462.836 19.1568C461.817 19.1004 462.961 19.0666 466.292 19.0666C469.339 19.0666 470.767 19.1004 469.974 19.1455ZM543.503 19.1568C541.566 19.2582 538.065 19.2469 536.366 19.1455C535.573 19.1004 537 19.0666 540.048 19.0666C543.379 19.0666 544.523 19.1004 543.503 19.1568Z" fill="black"/>
</svg>
