<svg width="991" height="36" viewBox="0 0 991 36" fill="none" xmlns="http://www.w3.org/2000/svg">
<path d="M63.1168 0.0949376C63.0163 0.241394 63.4627 2.37064 65.1589 9.85117C65.3933 10.8989 65.7169 12.3522 65.8843 13.0619C66.0405 13.7717 66.1967 14.4702 66.2302 14.5941C66.286 14.8307 66.2302 14.8419 65.3598 14.9095C60.9519 15.27 58.4187 15.6756 54.0666 16.7233C48.4089 18.0978 48.6544 18.0414 47.929 17.9851C47.5608 17.9513 46.5787 17.8161 45.753 17.6922C43.0636 17.2754 40.642 17.1064 36.6582 17.0388C30.7884 16.9487 25.0525 17.219 19.8635 17.8499L17.6874 18.109L15.5114 17.8499C11.3824 17.343 5.83629 17.005 1.76316 17.005H0V18.0189V19.0328L2.93488 19.0554C5.56847 19.0666 5.70238 19.0779 4.35211 19.1568C3.52633 19.1906 2.20953 19.2356 1.42839 19.2469L0 19.2582V20.2158V21.1734H2.60011C6.60628 21.1734 10.2777 20.948 14.998 20.4185L17.6651 20.1256L20.4103 20.4298C26.2354 21.072 29.4604 21.2184 35.9663 21.1396C41.3227 21.0832 42.9631 20.9706 46.4225 20.4298C48.5762 20.0918 48.0406 20.0242 53.0065 21.2297C54.8812 21.6803 57.0684 22.1873 57.8608 22.345C59.4342 22.6492 62.5142 23.0886 63.1168 23.0886C63.3288 23.0886 63.4962 23.1449 63.4962 23.2125C63.4962 23.2688 62.6258 24.9812 61.5656 27.0091C58.5973 32.6645 57.6934 34.4333 57.6934 34.6135C57.6934 34.929 57.8831 34.9177 58.4634 34.6023C59.4342 34.084 60.6506 33.025 61.7442 31.7745C64.1211 29.0369 64.4112 28.6314 65.8061 25.9613L67.1229 23.4265H67.9152C68.5848 23.4265 68.741 23.4603 68.9196 23.6631C69.1651 23.956 69.7454 24.2151 70.1136 24.2151C70.2587 24.2151 70.6158 24.0912 70.9059 23.9448C71.4304 23.6744 71.4304 23.6744 71.9549 23.8772L72.4794 24.0799L72.7249 26.4458L72.9592 28.8229L73.6846 29.9833C74.0752 30.6254 74.8898 32.0562 75.4812 33.1828C76.6641 35.3909 76.9989 35.8978 77.1997 35.7739C77.5234 35.5711 77.2779 32.8898 76.3293 26.2993C76.1061 24.6883 75.9164 23.3589 75.9276 23.3477C75.9388 23.3364 76.5637 23.2801 77.3337 23.2012C81.1278 22.8632 83.4155 22.4577 88.4929 21.2297C93.4588 20.0242 92.9231 20.0918 95.0769 20.4298C98.5251 20.9706 100.188 21.0832 105.5 21.1396C112.072 21.2184 115.164 21.072 121.089 20.4298L123.834 20.1256L126.501 20.4185C131.356 20.9593 134.882 21.1734 138.91 21.1734H141.499V20.2158V19.2582L140.082 19.2469C139.29 19.2356 137.973 19.1906 137.147 19.1568C135.797 19.0779 135.931 19.0666 138.576 19.0554L141.499 19.0328V18.0189V17.005H139.747C135.663 17.005 130.117 17.343 125.988 17.8387L123.812 18.109L121.636 17.8499C116.436 17.219 110.711 16.9487 104.841 17.0388C100.857 17.1064 98.4358 17.2754 95.7464 17.6922C94.9206 17.8161 93.9386 17.9513 93.5704 17.9851C92.845 18.0414 93.0794 18.0865 87.4886 16.7459C84.1296 15.9347 82.1433 15.5517 79.7329 15.2588C78.8736 15.1574 78.1594 15.056 78.1483 15.0447C78.1371 15.0447 78.5835 13.9632 79.1303 12.6676C81.9313 6.05458 82.5785 4.16191 82.0763 4.16191C81.9871 4.16191 80.648 5.44622 79.108 7.00091L76.307 9.85117L75.3585 12.3522C74.4434 14.7743 74.3988 14.8645 74.0975 14.8645C73.6957 14.8645 73.4279 14.5378 73.4279 14.0646C73.4279 13.5351 73.1043 12.9493 72.6579 12.6451C71.9884 12.1945 70.9617 12.3522 70.4484 12.9718C70.2698 13.2084 69.4329 13.6816 69.3548 13.6027C69.3325 13.5802 69.0423 12.2846 68.6964 10.7186C68.0268 7.68813 67.8929 7.29382 66.3864 4.25204C65.4044 2.23545 65.0362 1.67216 63.9537 0.52304C63.4627 0.00481072 63.2395 -0.107848 63.1168 0.0949376ZM66.844 17.005C66.844 17.0613 66.498 17.7373 66.0851 18.4921C65.6611 19.2582 65.1589 20.182 64.958 20.5537L64.6121 21.2297L64.1323 21.1959C61.1862 20.9818 58.2625 20.4749 54.6246 19.5736L52.7275 19.1004L54.6804 18.616C57.95 17.8049 60.6171 17.343 63.9425 17.0163C65.304 16.8811 66.844 16.8698 66.844 17.005ZM80.0119 17.2979C81.8532 17.5232 84.4086 18.0189 86.819 18.616L88.7719 19.1004L86.8748 19.5736C82.9579 20.5425 79.9672 21.0382 76.7534 21.241C75.6151 21.3198 75.5482 21.3085 75.5482 21.1058C75.5482 20.9931 75.9388 20.013 76.4074 18.9427L77.2667 16.9825L77.9363 17.0613C78.3157 17.0951 79.2419 17.2078 80.0119 17.2979ZM38.0531 19.1455C36.3792 19.2469 32.931 19.2582 31.0227 19.1568C30.0184 19.1004 31.1455 19.0666 34.4263 19.0666C37.4282 19.0666 38.8342 19.1004 38.0531 19.1455ZM110.477 19.1568C108.568 19.2582 105.12 19.2469 103.446 19.1455C102.665 19.1004 104.071 19.0666 107.073 19.0666C110.354 19.0666 111.481 19.1004 110.477 19.1568Z" fill="black"/>
<path d="M204.734 0.0949376C204.634 0.241394 205.08 2.37064 206.776 9.85117C207.01 10.8989 207.334 12.3522 207.501 13.0619C207.658 13.7717 207.814 14.4702 207.847 14.5941C207.903 14.8307 207.847 14.8419 206.977 14.9095C202.569 15.27 200.036 15.6756 195.684 16.7233C190.026 18.0978 190.272 18.0414 189.546 17.9851C189.178 17.9513 188.196 17.8161 187.37 17.6922C184.681 17.2754 182.259 17.1064 178.275 17.0388C172.406 16.9487 166.67 17.219 161.481 17.8499L159.305 18.109L157.129 17.8499C153 17.343 147.453 17.005 143.38 17.005H141.617V18.0189V19.0328L144.552 19.0554C147.186 19.0666 147.32 19.0779 145.969 19.1568C145.144 19.1906 143.827 19.2356 143.046 19.2469L141.617 19.2582V20.2158V21.1734H144.217C148.223 21.1734 151.895 20.948 156.615 20.4185L159.282 20.1256L162.027 20.4298C167.853 21.072 171.078 21.2184 177.583 21.1396C182.94 21.0832 184.58 20.9706 188.04 20.4298C190.193 20.0918 189.658 20.0242 194.624 21.2297C196.498 21.6803 198.686 22.1873 199.478 22.345C201.051 22.6492 204.131 23.0886 204.734 23.0886C204.946 23.0886 205.113 23.1449 205.113 23.2125C205.113 23.2688 204.243 24.9812 203.183 27.0091C200.214 32.6645 199.311 34.4333 199.311 34.6135C199.311 34.929 199.5 34.9177 200.081 34.6023C201.051 34.084 202.268 33.025 203.361 31.7745C205.738 29.0369 206.028 28.6314 207.423 25.9613L208.74 23.4265H209.532C210.202 23.4265 210.358 23.4603 210.537 23.6631C210.782 23.956 211.363 24.2151 211.731 24.2151C211.876 24.2151 212.233 24.0912 212.523 23.9448C213.048 23.6744 213.048 23.6744 213.572 23.8772L214.097 24.0799L214.342 26.4458L214.576 28.8229L215.302 29.9833C215.692 30.6254 216.507 32.0562 217.098 33.1828C218.281 35.3909 218.616 35.8978 218.817 35.7739C219.141 35.5711 218.895 32.8898 217.947 26.2993C217.723 24.6883 217.534 23.3589 217.545 23.3477C217.556 23.3364 218.181 23.2801 218.951 23.2012C222.745 22.8632 225.033 22.4577 230.11 21.2297C235.076 20.0242 234.54 20.0918 236.694 20.4298C240.142 20.9706 241.805 21.0832 247.117 21.1396C253.69 21.2184 256.781 21.072 262.706 20.4298L265.451 20.1256L268.119 20.4185C272.973 20.9593 276.499 21.1734 280.528 21.1734H283.117V20.2158V19.2582L281.699 19.2469C280.907 19.2356 279.59 19.1906 278.764 19.1568C277.414 19.0779 277.548 19.0666 280.193 19.0554L283.117 19.0328V18.0189V17.005H281.365C277.28 17.005 271.734 17.343 267.605 17.8387L265.429 18.109L263.253 17.8499C258.053 17.219 252.328 16.9487 246.458 17.0388C242.475 17.1064 240.053 17.2754 237.364 17.6922C236.538 17.8161 235.556 17.9513 235.188 17.9851C234.462 18.0414 234.697 18.0865 229.106 16.7459C225.747 15.9347 223.76 15.5517 221.35 15.2588C220.491 15.1574 219.777 15.056 219.765 15.0447C219.754 15.0447 220.201 13.9632 220.747 12.6676C223.548 6.05458 224.196 4.16191 223.694 4.16191C223.604 4.16191 222.265 5.44622 220.725 7.00091L217.924 9.85117L216.976 12.3522C216.061 14.7743 216.016 14.8645 215.715 14.8645C215.313 14.8645 215.045 14.5378 215.045 14.0646C215.045 13.5351 214.721 12.9493 214.275 12.6451C213.606 12.1945 212.579 12.3522 212.066 12.9718C211.887 13.2084 211.05 13.6816 210.972 13.6027C210.95 13.5802 210.66 12.2846 210.314 10.7186C209.644 7.68813 209.51 7.29382 208.004 4.25204C207.022 2.23545 206.653 1.67216 205.571 0.52304C205.08 0.00481072 204.857 -0.107848 204.734 0.0949376ZM208.461 17.005C208.461 17.0613 208.115 17.7373 207.702 18.4921C207.278 19.2582 206.776 20.182 206.575 20.5537L206.229 21.2297L205.749 21.1959C202.803 20.9818 199.88 20.4749 196.242 19.5736L194.345 19.1004L196.298 18.616C199.567 17.8049 202.234 17.343 205.56 17.0163C206.921 16.8811 208.461 16.8698 208.461 17.005ZM221.629 17.2979C223.47 17.5232 226.026 18.0189 228.436 18.616L230.389 19.1004L228.492 19.5736C224.575 20.5425 221.584 21.0382 218.371 21.241C217.232 21.3198 217.165 21.3085 217.165 21.1058C217.165 20.9931 217.556 20.013 218.025 18.9427L218.884 16.9825L219.553 17.0613C219.933 17.0951 220.859 17.2078 221.629 17.2979ZM179.67 19.1455C177.996 19.2469 174.548 19.2582 172.64 19.1568C171.636 19.1004 172.763 19.0666 176.043 19.0666C179.045 19.0666 180.451 19.1004 179.67 19.1455ZM252.094 19.1568C250.186 19.2582 246.737 19.2469 245.064 19.1455C244.282 19.1004 245.688 19.0666 248.69 19.0666C251.971 19.0666 253.098 19.1004 252.094 19.1568Z" fill="black"/>
<path d="M346.353 0.0949376C346.252 0.241394 346.699 2.37064 348.395 9.85117C348.629 10.8989 348.953 12.3522 349.12 13.0619C349.276 13.7717 349.433 14.4702 349.466 14.5941C349.522 14.8307 349.466 14.8419 348.596 14.9095C344.188 15.27 341.655 15.6756 337.302 16.7233C331.645 18.0978 331.89 18.0414 331.165 17.9851C330.797 17.9513 329.815 17.8161 328.989 17.6922C326.299 17.2754 323.878 17.1064 319.894 17.0388C314.024 16.9487 308.288 17.219 303.099 17.8499L300.923 18.109L298.747 17.8499C294.618 17.343 289.072 17.005 284.999 17.005H283.236V18.0189V19.0328L286.171 19.0554C288.804 19.0666 288.938 19.0779 287.588 19.1568C286.762 19.1906 285.445 19.2356 284.664 19.2469L283.236 19.2582V20.2158V21.1734H285.836C289.842 21.1734 293.514 20.948 298.234 20.4185L300.901 20.1256L303.646 20.4298C309.471 21.072 312.696 21.2184 319.202 21.1396C324.559 21.0832 326.199 20.9706 329.658 20.4298C331.812 20.0918 331.276 20.0242 336.242 21.2297C338.117 21.6803 340.304 22.1873 341.097 22.345C342.67 22.6492 345.75 23.0886 346.353 23.0886C346.565 23.0886 346.732 23.1449 346.732 23.2125C346.732 23.2688 345.862 24.9812 344.801 27.0091C341.833 32.6645 340.929 34.4333 340.929 34.6135C340.929 34.929 341.119 34.9177 341.699 34.6023C342.67 34.084 343.886 33.025 344.98 31.7745C347.357 29.0369 347.647 28.6314 349.042 25.9613L350.359 23.4265H351.151C351.821 23.4265 351.977 23.4603 352.155 23.6631C352.401 23.956 352.981 24.2151 353.349 24.2151C353.495 24.2151 353.852 24.0912 354.142 23.9448C354.666 23.6744 354.666 23.6744 355.191 23.8772L355.715 24.0799L355.961 26.4458L356.195 28.8229L356.92 29.9833C357.311 30.6254 358.126 32.0562 358.717 33.1828C359.9 35.3909 360.235 35.8978 360.436 35.7739C360.759 35.5711 360.514 32.8898 359.565 26.2993C359.342 24.6883 359.152 23.3589 359.163 23.3477C359.175 23.3364 359.8 23.2801 360.569 23.2012C364.364 22.8632 366.651 22.4577 371.729 21.2297C376.695 20.0242 376.159 20.0918 378.313 20.4298C381.761 20.9706 383.424 21.0832 388.735 21.1396C395.308 21.2184 398.399 21.072 404.325 20.4298L407.07 20.1256L409.737 20.4185C414.591 20.9593 418.118 21.1734 422.146 21.1734H424.735V20.2158V19.2582L423.318 19.2469C422.526 19.2356 421.209 19.1906 420.383 19.1568C419.033 19.0779 419.167 19.0666 421.812 19.0554L424.735 19.0328V18.0189V17.005H422.983C418.899 17.005 413.353 17.343 409.224 17.8387L407.048 18.109L404.872 17.8499C399.672 17.219 393.947 16.9487 388.077 17.0388C384.093 17.1064 381.672 17.2754 378.982 17.6922C378.156 17.8161 377.174 17.9513 376.806 17.9851C376.081 18.0414 376.315 18.0865 370.724 16.7459C367.365 15.9347 365.379 15.5517 362.969 15.2588C362.109 15.1574 361.395 15.056 361.384 15.0447C361.373 15.0447 361.819 13.9632 362.366 12.6676C365.167 6.05458 365.814 4.16191 365.312 4.16191C365.223 4.16191 363.884 5.44622 362.344 7.00091L359.543 9.85117L358.594 12.3522C357.679 14.7743 357.635 14.8645 357.333 14.8645C356.932 14.8645 356.664 14.5378 356.664 14.0646C356.664 13.5351 356.34 12.9493 355.894 12.6451C355.224 12.1945 354.198 12.3522 353.684 12.9718C353.506 13.2084 352.669 13.6816 352.591 13.6027C352.568 13.5802 352.278 12.2846 351.932 10.7186C351.263 7.68813 351.129 7.29382 349.622 4.25204C348.64 2.23545 348.272 1.67216 347.19 0.52304C346.699 0.00481072 346.475 -0.107848 346.353 0.0949376ZM350.08 17.005C350.08 17.0613 349.734 17.7373 349.321 18.4921C348.897 19.2582 348.395 20.182 348.194 20.5537L347.848 21.2297L347.368 21.1959C344.422 20.9818 341.498 20.4749 337.86 19.5736L335.963 19.1004L337.916 18.616C341.186 17.8049 343.853 17.343 347.178 17.0163C348.54 16.8811 350.08 16.8698 350.08 17.005ZM363.248 17.2979C365.089 17.5232 367.644 18.0189 370.055 18.616L372.008 19.1004L370.111 19.5736C366.194 20.5425 363.203 21.0382 359.989 21.241C358.851 21.3198 358.784 21.3085 358.784 21.1058C358.784 20.9931 359.175 20.013 359.643 18.9427L360.503 16.9825L361.172 17.0613C361.552 17.0951 362.478 17.2078 363.248 17.2979ZM321.289 19.1455C319.615 19.2469 316.167 19.2582 314.259 19.1568C313.254 19.1004 314.381 19.0666 317.662 19.0666C320.664 19.0666 322.07 19.1004 321.289 19.1455ZM393.712 19.1568C391.804 19.2582 388.356 19.2469 386.682 19.1455C385.901 19.1004 387.307 19.0666 390.309 19.0666C393.59 19.0666 394.717 19.1004 393.712 19.1568Z" fill="black"/>
<path d="M487.97 0.0949376C487.869 0.241394 488.316 2.37064 490.012 9.85117C490.246 10.8989 490.57 12.3522 490.737 13.0619C490.894 13.7717 491.05 14.4702 491.083 14.5941C491.139 14.8307 491.083 14.8419 490.213 14.9095C485.805 15.27 483.272 15.6756 478.92 16.7233C473.262 18.0978 473.507 18.0414 472.782 17.9851C472.414 17.9513 471.432 17.8161 470.606 17.6922C467.917 17.2754 465.495 17.1064 461.511 17.0388C455.641 16.9487 449.906 17.219 444.717 17.8499L442.54 18.109L440.364 17.8499C436.235 17.343 430.689 17.005 426.616 17.005H424.853V18.0189V19.0328L427.788 19.0554C430.421 19.0666 430.555 19.0779 429.205 19.1568C428.379 19.1906 427.063 19.2356 426.281 19.2469L424.853 19.2582V20.2158V21.1734H427.453C431.459 21.1734 435.131 20.948 439.851 20.4185L442.518 20.1256L445.263 20.4298C451.088 21.072 454.313 21.2184 460.819 21.1396C466.176 21.0832 467.816 20.9706 471.276 20.4298C473.429 20.0918 472.894 20.0242 477.86 21.2297C479.734 21.6803 481.921 22.1873 482.714 22.345C484.287 22.6492 487.367 23.0886 487.97 23.0886C488.182 23.0886 488.349 23.1449 488.349 23.2125C488.349 23.2688 487.479 24.9812 486.419 27.0091C483.45 32.6645 482.546 34.4333 482.546 34.6135C482.546 34.929 482.736 34.9177 483.316 34.6023C484.287 34.084 485.504 33.025 486.597 31.7745C488.974 29.0369 489.264 28.6314 490.659 25.9613L491.976 23.4265H492.768C493.438 23.4265 493.594 23.4603 493.773 23.6631C494.018 23.956 494.598 24.2151 494.967 24.2151C495.112 24.2151 495.469 24.0912 495.759 23.9448C496.283 23.6744 496.283 23.6744 496.808 23.8772L497.332 24.0799L497.578 26.4458L497.812 28.8229L498.538 29.9833C498.928 30.6254 499.743 32.0562 500.334 33.1828C501.517 35.3909 501.852 35.8978 502.053 35.7739C502.376 35.5711 502.131 32.8898 501.182 26.2993C500.959 24.6883 500.769 23.3589 500.781 23.3477C500.792 23.3364 501.417 23.2801 502.187 23.2012C505.981 22.8632 508.268 22.4577 513.346 21.2297C518.312 20.0242 517.776 20.0918 519.93 20.4298C523.378 20.9706 525.041 21.0832 530.353 21.1396C536.925 21.2184 540.017 21.072 545.942 20.4298L548.687 20.1256L551.354 20.4185C556.209 20.9593 559.735 21.1734 563.763 21.1734H566.352V20.2158V19.2582L564.935 19.2469C564.143 19.2356 562.826 19.1906 562 19.1568C560.65 19.0779 560.784 19.0666 563.429 19.0554L566.352 19.0328V18.0189V17.005H564.6C560.516 17.005 554.97 17.343 550.841 17.8387L548.665 18.109L546.489 17.8499C541.289 17.219 535.564 16.9487 529.694 17.0388C525.71 17.1064 523.289 17.2754 520.599 17.6922C519.774 17.8161 518.792 17.9513 518.423 17.9851C517.698 18.0414 517.932 18.0865 512.342 16.7459C508.983 15.9347 506.996 15.5517 504.586 15.2588C503.727 15.1574 503.012 15.056 503.001 15.0447C502.99 15.0447 503.437 13.9632 503.983 12.6676C506.784 6.05458 507.432 4.16191 506.929 4.16191C506.84 4.16191 505.501 5.44622 503.961 7.00091L501.16 9.85117L500.211 12.3522C499.296 14.7743 499.252 14.8645 498.951 14.8645C498.549 14.8645 498.281 14.5378 498.281 14.0646C498.281 13.5351 497.957 12.9493 497.511 12.6451C496.841 12.1945 495.815 12.3522 495.301 12.9718C495.123 13.2084 494.286 13.6816 494.208 13.6027C494.185 13.5802 493.895 12.2846 493.549 10.7186C492.88 7.68813 492.746 7.29382 491.239 4.25204C490.257 2.23545 489.889 1.67216 488.807 0.52304C488.316 0.00481072 488.093 -0.107848 487.97 0.0949376ZM491.697 17.005C491.697 17.0613 491.351 17.7373 490.938 18.4921C490.514 19.2582 490.012 20.182 489.811 20.5537L489.465 21.2297L488.985 21.1959C486.039 20.9818 483.116 20.4749 479.478 19.5736L477.581 19.1004L479.533 18.616C482.803 17.8049 485.47 17.343 488.796 17.0163C490.157 16.8811 491.697 16.8698 491.697 17.005ZM504.865 17.2979C506.706 17.5232 509.262 18.0189 511.672 18.616L513.625 19.1004L511.728 19.5736C507.811 20.5425 504.82 21.0382 501.606 21.241C500.468 21.3198 500.401 21.3085 500.401 21.1058C500.401 20.9931 500.792 20.013 501.26 18.9427L502.12 16.9825L502.789 17.0613C503.169 17.0951 504.095 17.2078 504.865 17.2979ZM462.906 19.1455C461.232 19.2469 457.784 19.2582 455.876 19.1568C454.871 19.1004 455.999 19.0666 459.279 19.0666C462.281 19.0666 463.687 19.1004 462.906 19.1455ZM535.33 19.1568C533.421 19.2582 529.973 19.2469 528.299 19.1455C527.518 19.1004 528.924 19.0666 531.926 19.0666C535.207 19.0666 536.334 19.1004 535.33 19.1568Z" fill="black"/>
<path d="M629.894 0.0955219C629.794 0.242832 630.239 2.3845 631.929 9.90865C632.162 10.9625 632.485 12.4243 632.652 13.1381C632.807 13.852 632.963 14.5546 632.996 14.6792C633.052 14.9172 632.996 14.9285 632.129 14.9965C627.737 15.3591 625.213 15.7671 620.876 16.8209C615.238 18.2033 615.483 18.1467 614.76 18.09C614.393 18.056 613.414 17.9201 612.591 17.7954C609.912 17.3761 607.499 17.2062 603.529 17.1382C597.68 17.0475 591.964 17.3195 586.793 17.954L584.625 18.2147L582.457 17.954C578.342 17.4441 572.816 17.1042 568.757 17.1042H567V18.124V19.1439L569.925 19.1665C572.549 19.1779 572.682 19.1892 571.337 19.2685C570.514 19.3025 569.202 19.3478 568.423 19.3592L567 19.3705V20.3337V21.2969H569.591C573.583 21.2969 577.241 21.0702 581.945 20.5376L584.603 20.243L587.338 20.549C593.143 21.1949 596.356 21.3422 602.839 21.2629C608.177 21.2062 609.812 21.0929 613.259 20.549C615.405 20.209 614.871 20.141 619.819 21.3535C621.688 21.8068 623.867 22.3167 624.657 22.4753C626.224 22.7813 629.294 23.2232 629.894 23.2232C630.105 23.2232 630.272 23.2799 630.272 23.3479C630.272 23.4045 629.405 25.1269 628.348 27.1666C625.39 32.855 624.49 34.6341 624.49 34.8154C624.49 35.1327 624.679 35.1213 625.257 34.8041C626.224 34.2828 627.437 33.2176 628.526 31.9598C630.895 29.2063 631.184 28.7983 632.574 26.1128L633.886 23.5632H634.676C635.343 23.5632 635.498 23.5972 635.676 23.8011C635.921 24.0957 636.499 24.3564 636.866 24.3564C637.011 24.3564 637.367 24.2317 637.656 24.0844C638.178 23.8125 638.178 23.8125 638.701 24.0164L639.224 24.2204L639.468 26.6L639.702 28.991L640.425 30.1581C640.814 30.804 641.625 32.2431 642.215 33.3763C643.394 35.5973 643.727 36.1072 643.927 35.9825C644.25 35.7786 644.005 33.0817 643.06 26.4527C642.838 24.8323 642.649 23.4952 642.66 23.4838C642.671 23.4725 643.293 23.4159 644.061 23.3365C647.841 22.9966 650.121 22.5887 655.181 21.3535C660.129 20.141 659.595 20.209 661.741 20.549C665.177 21.0929 666.834 21.2062 672.127 21.2629C678.677 21.3422 681.757 21.1949 687.662 20.549L690.397 20.243L693.055 20.5376C697.892 21.0816 701.406 21.2969 705.42 21.2969H708V20.3337V19.3705L706.588 19.3592C705.798 19.3478 704.486 19.3025 703.663 19.2685C702.318 19.1892 702.451 19.1779 705.087 19.1665L708 19.1439V18.124V17.1042H706.254C702.184 17.1042 696.658 17.4441 692.543 17.9427L690.375 18.2147L688.207 17.954C683.025 17.3195 677.32 17.0475 671.471 17.1382C667.501 17.2062 665.088 17.3761 662.409 17.7954C661.586 17.9201 660.607 18.056 660.24 18.09C659.517 18.1467 659.751 18.192 654.18 16.8436C650.833 16.0277 648.853 15.6424 646.452 15.3478C645.595 15.2458 644.884 15.1438 644.872 15.1325C644.861 15.1325 645.306 14.0447 645.851 12.7415C648.642 6.08991 649.287 4.18621 648.787 4.18621C648.698 4.18621 647.363 5.47801 645.829 7.04176L643.038 9.90865L642.093 12.4243C641.181 14.8605 641.136 14.9512 640.836 14.9512C640.436 14.9512 640.169 14.6226 640.169 14.1466C640.169 13.6141 639.846 13.0248 639.402 12.7189C638.734 12.2656 637.711 12.4243 637.2 13.0475C637.022 13.2854 636.188 13.7614 636.11 13.6821C636.088 13.6594 635.799 12.3563 635.454 10.7812C634.787 7.73299 634.653 7.33638 633.152 4.27686C632.174 2.24852 631.807 1.68194 630.728 0.526121C630.239 0.00486953 630.016 -0.108446 629.894 0.0955219ZM633.608 17.1042C633.608 17.1608 633.263 17.8407 632.852 18.5999C632.429 19.3705 631.929 20.2997 631.729 20.6736L631.384 21.3535L630.906 21.3195C627.97 21.1042 625.057 20.5943 621.432 19.6878L619.541 19.2119L621.487 18.7246C624.746 17.9087 627.403 17.4441 630.717 17.1155C632.074 16.9795 633.608 16.9682 633.608 17.1042ZM646.729 17.3988C648.564 17.6254 651.111 18.124 653.513 18.7246L655.459 19.2119L653.568 19.6878C649.665 20.6623 646.685 21.1609 643.482 21.3648C642.348 21.4442 642.282 21.4328 642.282 21.2289C642.282 21.1156 642.671 20.1297 643.138 19.0532L643.994 17.0815L644.661 17.1608C645.039 17.1948 645.962 17.3082 646.729 17.3988ZM604.919 19.2572C603.251 19.3592 599.815 19.3705 597.913 19.2685C596.912 19.2119 598.036 19.1779 601.305 19.1779C604.296 19.1779 605.697 19.2119 604.919 19.2572ZM677.087 19.2685C675.185 19.3705 671.749 19.3592 670.081 19.2572C669.303 19.2119 670.704 19.1779 673.695 19.1779C676.964 19.1779 678.088 19.2119 677.087 19.2685Z" fill="black"/>
<path d="M771.205 0.0949376C771.105 0.241394 771.551 2.37064 773.247 9.85117C773.482 10.8989 773.805 12.3522 773.973 13.0619C774.129 13.7717 774.285 14.4702 774.319 14.5941C774.374 14.8307 774.319 14.8419 773.448 14.9095C769.04 15.27 766.507 15.6756 762.155 16.7233C756.497 18.0978 756.743 18.0414 756.017 17.9851C755.649 17.9513 754.667 17.8161 753.841 17.6922C751.152 17.2754 748.73 17.1064 744.747 17.0388C738.877 16.9487 733.141 17.219 727.952 17.8499L725.776 18.109L723.6 17.8499C719.471 17.343 713.925 17.005 709.852 17.005H708.088V18.0189V19.0328L711.023 19.0554C713.657 19.0666 713.791 19.0779 712.44 19.1568C711.615 19.1906 710.298 19.2356 709.517 19.2469L708.088 19.2582V20.2158V21.1734H710.688C714.695 21.1734 718.366 20.948 723.086 20.4185L725.753 20.1256L728.499 20.4298C734.324 21.072 737.549 21.2184 744.055 21.1396C749.411 21.0832 751.052 20.9706 754.511 20.4298C756.665 20.0918 756.129 20.0242 761.095 21.2297C762.97 21.6803 765.157 22.1873 765.949 22.345C767.523 22.6492 770.603 23.0886 771.205 23.0886C771.417 23.0886 771.585 23.1449 771.585 23.2125C771.585 23.2688 770.714 24.9812 769.654 27.0091C766.686 32.6645 765.782 34.4333 765.782 34.6135C765.782 34.929 765.971 34.9177 766.552 34.6023C767.523 34.084 768.739 33.025 769.833 31.7745C772.209 29.0369 772.5 28.6314 773.895 25.9613L775.211 23.4265H776.004C776.673 23.4265 776.829 23.4603 777.008 23.6631C777.253 23.956 777.834 24.2151 778.202 24.2151C778.347 24.2151 778.704 24.0912 778.994 23.9448C779.519 23.6744 779.519 23.6744 780.043 23.8772L780.568 24.0799L780.813 26.4458L781.048 28.8229L781.773 29.9833C782.164 30.6254 782.978 32.0562 783.57 33.1828C784.752 35.3909 785.087 35.8978 785.288 35.7739C785.612 35.5711 785.366 32.8898 784.418 26.2993C784.195 24.6883 784.005 23.3589 784.016 23.3477C784.027 23.3364 784.652 23.2801 785.422 23.2012C789.216 22.8632 791.504 22.4577 796.581 21.2297C801.547 20.0242 801.012 20.0918 803.165 20.4298C806.613 20.9706 808.276 21.0832 813.588 21.1396C820.161 21.2184 823.252 21.072 829.177 20.4298L831.923 20.1256L834.59 20.4185C839.444 20.9593 842.97 21.1734 846.999 21.1734H849.588V20.2158V19.2582L848.171 19.2469C847.378 19.2356 846.061 19.1906 845.236 19.1568C843.885 19.0779 844.019 19.0666 846.664 19.0554L849.588 19.0328V18.0189V17.005H847.836C843.751 17.005 838.205 17.343 834.076 17.8387L831.9 18.109L829.724 17.8499C824.524 17.219 818.799 16.9487 812.93 17.0388C808.946 17.1064 806.524 17.2754 803.835 17.6922C803.009 17.8161 802.027 17.9513 801.659 17.9851C800.933 18.0414 801.168 18.0865 795.577 16.7459C792.218 15.9347 790.232 15.5517 787.821 15.2588C786.962 15.1574 786.248 15.056 786.237 15.0447C786.226 15.0447 786.672 13.9632 787.219 12.6676C790.02 6.05458 790.667 4.16191 790.165 4.16191C790.075 4.16191 788.736 5.44622 787.196 7.00091L784.395 9.85117L783.447 12.3522C782.532 14.7743 782.487 14.8645 782.186 14.8645C781.784 14.8645 781.516 14.5378 781.516 14.0646C781.516 13.5351 781.193 12.9493 780.746 12.6451C780.077 12.1945 779.05 12.3522 778.537 12.9718C778.358 13.2084 777.521 13.6816 777.443 13.6027C777.421 13.5802 777.131 12.2846 776.785 10.7186C776.115 7.68813 775.981 7.29382 774.475 4.25204C773.493 2.23545 773.125 1.67216 772.042 0.52304C771.551 0.00481072 771.328 -0.107848 771.205 0.0949376ZM774.932 17.005C774.932 17.0613 774.586 17.7373 774.174 18.4921C773.749 19.2582 773.247 20.182 773.046 20.5537L772.7 21.2297L772.221 21.1959C769.275 20.9818 766.351 20.4749 762.713 19.5736L760.816 19.1004L762.769 18.616C766.038 17.8049 768.705 17.343 772.031 17.0163C773.392 16.8811 774.932 16.8698 774.932 17.005ZM788.1 17.2979C789.942 17.5232 792.497 18.0189 794.907 18.616L796.86 19.1004L794.963 19.5736C791.046 20.5425 788.056 21.0382 784.842 21.241C783.704 21.3198 783.637 21.3085 783.637 21.1058C783.637 20.9931 784.027 20.013 784.496 18.9427L785.355 16.9825L786.025 17.0613C786.404 17.0951 787.33 17.2078 788.1 17.2979ZM746.141 19.1455C744.468 19.2469 741.019 19.2582 739.111 19.1568C738.107 19.1004 739.234 19.0666 742.515 19.0666C745.517 19.0666 746.923 19.1004 746.141 19.1455ZM818.565 19.1568C816.657 19.2582 813.209 19.2469 811.535 19.1455C810.754 19.1004 812.16 19.0666 815.161 19.0666C818.442 19.0666 819.569 19.1004 818.565 19.1568Z" fill="black"/>
<path d="M912.617 0.0949376C912.517 0.241394 912.963 2.37064 914.659 9.85117C914.894 10.8989 915.217 12.3522 915.385 13.0619C915.541 13.7717 915.697 14.4702 915.731 14.5941C915.786 14.8307 915.731 14.8419 914.86 14.9095C910.452 15.27 907.919 15.6756 903.567 16.7233C897.909 18.0978 898.155 18.0414 897.43 17.9851C897.061 17.9513 896.079 17.8161 895.253 17.6922C892.564 17.2754 890.143 17.1064 886.159 17.0388C880.289 16.9487 874.553 17.219 869.364 17.8499L867.188 18.109L865.012 17.8499C860.883 17.343 855.337 17.005 851.264 17.005H849.5V18.0189V19.0328L852.435 19.0554C855.069 19.0666 855.203 19.0779 853.853 19.1568C853.027 19.1906 851.71 19.2356 850.929 19.2469L849.5 19.2582V20.2158V21.1734H852.101C856.107 21.1734 859.778 20.948 864.499 20.4185L867.166 20.1256L869.911 20.4298C875.736 21.072 878.961 21.2184 885.467 21.1396C890.823 21.0832 892.464 20.9706 895.923 20.4298C898.077 20.0918 897.541 20.0242 902.507 21.2297C904.382 21.6803 906.569 22.1873 907.361 22.345C908.935 22.6492 912.015 23.0886 912.617 23.0886C912.829 23.0886 912.997 23.1449 912.997 23.2125C912.997 23.2688 912.126 24.9812 911.066 27.0091C908.098 32.6645 907.194 34.4333 907.194 34.6135C907.194 34.929 907.384 34.9177 907.964 34.6023C908.935 34.084 910.151 33.025 911.245 31.7745C913.622 29.0369 913.912 28.6314 915.307 25.9613L916.623 23.4265H917.416C918.085 23.4265 918.242 23.4603 918.42 23.6631C918.666 23.956 919.246 24.2151 919.614 24.2151C919.759 24.2151 920.116 24.0912 920.406 23.9448C920.931 23.6744 920.931 23.6744 921.455 23.8772L921.98 24.0799L922.225 26.4458L922.46 28.8229L923.185 29.9833C923.576 30.6254 924.39 32.0562 924.982 33.1828C926.165 35.3909 926.499 35.8978 926.7 35.7739C927.024 35.5711 926.778 32.8898 925.83 26.2993C925.607 24.6883 925.417 23.3589 925.428 23.3477C925.439 23.3364 926.064 23.2801 926.834 23.2012C930.628 22.8632 932.916 22.4577 937.993 21.2297C942.959 20.0242 942.424 20.0918 944.577 20.4298C948.026 20.9706 949.688 21.0832 955 21.1396C961.573 21.2184 964.664 21.072 970.59 20.4298L973.335 20.1256L976.002 20.4185C980.856 20.9593 984.382 21.1734 988.411 21.1734H991V20.2158V19.2582L989.583 19.2469C988.79 19.2356 987.474 19.1906 986.648 19.1568C985.297 19.0779 985.431 19.0666 988.076 19.0554L991 19.0328V18.0189V17.005H989.248C985.164 17.005 979.617 17.343 975.489 17.8387L973.312 18.109L971.136 17.8499C965.936 17.219 960.211 16.9487 954.342 17.0388C950.358 17.1064 947.936 17.2754 945.247 17.6922C944.421 17.8161 943.439 17.9513 943.071 17.9851C942.346 18.0414 942.58 18.0865 936.989 16.7459C933.63 15.9347 931.644 15.5517 929.233 15.2588C928.374 15.1574 927.66 15.056 927.649 15.0447C927.638 15.0447 928.084 13.9632 928.631 12.6676C931.432 6.05458 932.079 4.16191 931.577 4.16191C931.488 4.16191 930.148 5.44622 928.608 7.00091L925.807 9.85117L924.859 12.3522C923.944 14.7743 923.899 14.8645 923.598 14.8645C923.196 14.8645 922.928 14.5378 922.928 14.0646C922.928 13.5351 922.605 12.9493 922.158 12.6451C921.489 12.1945 920.462 12.3522 919.949 12.9718C919.77 13.2084 918.933 13.6816 918.855 13.6027C918.833 13.5802 918.543 12.2846 918.197 10.7186C917.527 7.68813 917.393 7.29382 915.887 4.25204C914.905 2.23545 914.537 1.67216 913.454 0.52304C912.963 0.00481072 912.74 -0.107848 912.617 0.0949376ZM916.344 17.005C916.344 17.0613 915.999 17.7373 915.586 18.4921C915.162 19.2582 914.659 20.182 914.459 20.5537L914.113 21.2297L913.633 21.1959C910.687 20.9818 907.763 20.4749 904.125 19.5736L902.228 19.1004L904.181 18.616C907.451 17.8049 910.118 17.343 913.443 17.0163C914.804 16.8811 916.344 16.8698 916.344 17.005ZM929.512 17.2979C931.354 17.5232 933.909 18.0189 936.32 18.616L938.272 19.1004L936.375 19.5736C932.458 20.5425 929.468 21.0382 926.254 21.241C925.116 21.3198 925.049 21.3085 925.049 21.1058C925.049 20.9931 925.439 20.013 925.908 18.9427L926.767 16.9825L927.437 17.0613C927.816 17.0951 928.742 17.2078 929.512 17.2979ZM887.554 19.1455C885.88 19.2469 882.431 19.2582 880.523 19.1568C879.519 19.1004 880.646 19.0666 883.927 19.0666C886.929 19.0666 888.335 19.1004 887.554 19.1455ZM959.977 19.1568C958.069 19.2582 954.621 19.2469 952.947 19.1455C952.166 19.1004 953.572 19.0666 956.574 19.0666C959.854 19.0666 960.981 19.1004 959.977 19.1568Z" fill="black"/>
</svg>
