<svg width="1440" height="20" viewBox="0 0 1440 20" fill="none" xmlns="http://www.w3.org/2000/svg">
<path d="M64.1839 0.0530682C64.0818 0.134907 64.5357 1.32472 66.2606 5.5048C66.4989 6.09027 66.828 6.90236 66.9982 7.29897C67.1571 7.69557 67.3159 8.08588 67.35 8.15513C67.4067 8.28733 67.35 8.29362 66.4648 8.3314C61.9824 8.53285 59.4064 8.75948 54.9807 9.34494C49.2273 10.113 49.477 10.0815 48.7394 10.05C48.3649 10.0311 47.3663 9.95559 46.5265 9.88634C43.7917 9.65341 41.3292 9.55898 37.278 9.52121C31.3089 9.47085 25.4761 9.62193 20.1993 9.97447L17.9865 10.1193L15.7736 9.97447C11.5749 9.69118 5.93497 9.50232 1.79297 9.50232H0V10.0689V10.6355L2.98451 10.6481C5.66262 10.6544 5.79879 10.6607 4.42569 10.7047C3.58595 10.7236 2.24689 10.7488 1.45254 10.7551L0 10.7614V11.2965V11.8316H2.64407C6.71798 11.8316 10.4514 11.7057 15.2516 11.4098L17.9638 11.2461L20.7554 11.4161C26.679 11.7749 29.9585 11.8568 36.5744 11.8127C42.0214 11.7812 43.6895 11.7183 47.2074 11.4161C49.3976 11.2272 48.8529 11.1895 53.9027 11.8631C55.8091 12.1149 58.0333 12.3982 58.839 12.4863C60.4391 12.6563 63.5711 12.9018 64.1839 12.9018C64.3995 12.9018 64.5697 12.9333 64.5697 12.971C64.5697 13.0025 63.6846 13.9594 62.6065 15.0926C59.588 18.2528 58.6688 19.2412 58.6688 19.3419C58.6688 19.5182 58.8617 19.5119 59.4518 19.3356C60.4391 19.046 61.676 18.4542 62.7881 17.7555C65.2052 16.2257 65.5003 15.9991 66.9188 14.5071L68.2578 13.0906H69.0635C69.7444 13.0906 69.9033 13.1095 70.0848 13.2228C70.3345 13.3865 70.9246 13.5313 71.2991 13.5313C71.4466 13.5313 71.8097 13.4621 72.1048 13.3802C72.6381 13.2291 72.6381 13.2291 73.1715 13.3425L73.7048 13.4558L73.9545 14.7778L74.1928 16.1061L74.9304 16.7545C75.3276 17.1133 76.156 17.9129 76.7574 18.5424C77.9603 19.7763 78.3007 20.0596 78.505 19.9903C78.8341 19.877 78.5844 18.3787 77.6199 14.696C77.3929 13.7957 77.2 13.0529 77.2113 13.0466C77.2227 13.0403 77.8582 13.0088 78.6412 12.9647C82.4995 12.7759 84.8258 12.5493 89.9891 11.8631C95.0389 11.1895 94.4942 11.2272 96.6844 11.4161C100.191 11.7183 101.882 11.7812 107.283 11.8127C113.967 11.8568 117.111 11.7749 123.136 11.4161L125.928 11.2461L128.64 11.4098C133.577 11.712 137.162 11.8316 141.259 11.8316H143.892V11.2965V10.7614L142.451 10.7551C141.645 10.7488 140.306 10.7236 139.466 10.7047C138.093 10.6607 138.229 10.6544 140.919 10.6481L143.892 10.6355V10.0689V9.50232H142.11C137.957 9.50232 132.317 9.69118 128.118 9.96818L125.905 10.1193L123.692 9.97447C118.404 9.62193 112.583 9.47085 106.614 9.52121C102.563 9.55898 100.1 9.65341 97.3653 9.88634C96.5255 9.95559 95.5269 10.0311 95.1524 10.05C94.4148 10.0815 94.6531 10.1067 88.9678 9.35753C85.5521 8.90427 83.5321 8.69023 81.081 8.52655C80.2072 8.46989 79.4809 8.41324 79.4696 8.40694C79.4582 8.40694 79.9121 7.80259 80.4682 7.07863C83.3165 3.38329 83.9747 2.32567 83.464 2.32567C83.3733 2.32567 82.0115 3.04334 80.4455 3.91209L77.5972 5.5048L76.6326 6.90236C75.7021 8.25585 75.6567 8.30622 75.3503 8.30622C74.9417 8.30622 74.6694 8.12365 74.6694 7.85925C74.6694 7.56337 74.3403 7.23601 73.8864 7.06604C73.2055 6.81423 72.1615 6.90236 71.6395 7.2486C71.4579 7.38081 70.6068 7.64521 70.5274 7.60114C70.5047 7.58855 70.2097 6.86459 69.8579 5.98954C69.177 4.2961 69.0408 4.07577 67.5089 2.37604C66.5102 1.24918 66.1357 0.93441 65.035 0.29229C64.5357 0.00270462 64.3087 -0.0602474 64.1839 0.0530682ZM67.9741 9.50232C67.9741 9.5338 67.6223 9.91152 67.2025 10.3333C66.7712 10.7614 66.2606 11.2776 66.0563 11.4853L65.7045 11.8631L65.2166 11.8442C62.2207 11.7246 59.2476 11.4413 55.5481 10.9377L53.619 10.6733L55.6049 10.4026C58.9298 9.94929 61.642 9.69118 65.0237 9.50862C66.4081 9.43307 67.9741 9.42678 67.9741 9.50232ZM81.3647 9.666C83.2371 9.79191 85.8358 10.0689 88.2869 10.4026L90.2728 10.6733L88.3437 10.9377C84.3605 11.479 81.3193 11.756 78.0511 11.8694C76.8936 11.9134 76.8255 11.9071 76.8255 11.7938C76.8255 11.7309 77.2227 11.1832 77.6993 10.5851L78.5731 9.48973L79.254 9.5338C79.6398 9.55269 80.5817 9.61564 81.3647 9.666ZM38.6964 10.6984C36.9943 10.7551 33.4878 10.7614 31.5473 10.7047C30.5259 10.6733 31.6721 10.6544 35.0084 10.6544C38.061 10.6544 39.4908 10.6733 38.6964 10.6984ZM112.345 10.7047C110.404 10.7614 106.898 10.7551 105.195 10.6984C104.401 10.6733 105.831 10.6544 108.883 10.6544C112.22 10.6544 113.366 10.6733 112.345 10.7047Z" fill="black"/>
<path d="M208.196 0.0530682C208.093 0.134907 208.547 1.32472 210.272 5.5048C210.511 6.09027 210.84 6.90236 211.01 7.29897C211.169 7.69557 211.328 8.08588 211.362 8.15513C211.418 8.28733 211.362 8.29362 210.477 8.3314C205.994 8.53285 203.418 8.75948 198.992 9.34494C193.239 10.113 193.489 10.0815 192.751 10.05C192.377 10.0311 191.378 9.95559 190.538 9.88634C187.803 9.65341 185.341 9.55898 181.29 9.52121C175.321 9.47085 169.488 9.62193 164.211 9.97447L161.998 10.1193L159.785 9.97447C155.587 9.69118 149.947 9.50232 145.805 9.50232H144.012V10.0689V10.6355L146.996 10.6481C149.674 10.6544 149.811 10.6607 148.437 10.7047C147.598 10.7236 146.259 10.7488 145.464 10.7551L144.012 10.7614V11.2965V11.8316H146.656C150.73 11.8316 154.463 11.7057 159.263 11.4098L161.975 11.2461L164.767 11.4161C170.691 11.7749 173.97 11.8568 180.586 11.8127C186.033 11.7812 187.701 11.7183 191.219 11.4161C193.409 11.2272 192.865 11.1895 197.914 11.8631C199.821 12.1149 202.045 12.3982 202.851 12.4863C204.451 12.6563 207.583 12.9018 208.196 12.9018C208.411 12.9018 208.581 12.9333 208.581 12.971C208.581 13.0025 207.696 13.9594 206.618 15.0926C203.6 18.2528 202.681 19.2412 202.681 19.3419C202.681 19.5182 202.873 19.5119 203.464 19.3356C204.451 19.046 205.688 18.4542 206.8 17.7555C209.217 16.2257 209.512 15.9991 210.93 14.5071L212.27 13.0906H213.075C213.756 13.0906 213.915 13.1095 214.097 13.2228C214.346 13.3865 214.936 13.5313 215.311 13.5313C215.458 13.5313 215.821 13.4621 216.116 13.3802C216.65 13.2291 216.65 13.2291 217.183 13.3425L217.717 13.4558L217.966 14.7778L218.205 16.1061L218.942 16.7545C219.339 17.1133 220.168 17.9129 220.769 18.5424C221.972 19.7763 222.312 20.0596 222.517 19.9903C222.846 19.877 222.596 18.3787 221.632 14.696C221.405 13.7957 221.212 13.0529 221.223 13.0466C221.234 13.0403 221.87 13.0088 222.653 12.9647C226.511 12.7759 228.838 12.5493 234.001 11.8631C239.051 11.1895 238.506 11.2272 240.696 11.4161C244.203 11.7183 245.893 11.7812 251.295 11.8127C257.979 11.8568 261.122 11.7749 267.148 11.4161L269.94 11.2461L272.652 11.4098C277.588 11.712 281.174 11.8316 285.271 11.8316H287.904V11.2965V10.7614L286.462 10.7551C285.657 10.7488 284.318 10.7236 283.478 10.7047C282.105 10.6607 282.241 10.6544 284.93 10.6481L287.904 10.6355V10.0689V9.50232H286.122C281.969 9.50232 276.329 9.69118 272.13 9.96818L269.917 10.1193L267.704 9.97447C262.416 9.62193 256.595 9.47085 250.626 9.52121C246.574 9.55898 244.112 9.65341 241.377 9.88634C240.537 9.95559 239.539 10.0311 239.164 10.05C238.427 10.0815 238.665 10.1067 232.98 9.35753C229.564 8.90427 227.544 8.69023 225.093 8.52655C224.219 8.46989 223.493 8.41324 223.481 8.40694C223.47 8.40694 223.924 7.80259 224.48 7.07863C227.328 3.38329 227.986 2.32567 227.476 2.32567C227.385 2.32567 226.023 3.04334 224.457 3.91209L221.609 5.5048L220.644 6.90236C219.714 8.25585 219.668 8.30622 219.362 8.30622C218.953 8.30622 218.681 8.12365 218.681 7.85925C218.681 7.56337 218.352 7.23601 217.898 7.06604C217.217 6.81423 216.173 6.90236 215.651 7.2486C215.47 7.38081 214.619 7.64521 214.539 7.60114C214.516 7.58855 214.221 6.86459 213.87 5.98954C213.189 4.2961 213.053 4.07577 211.521 2.37604C210.522 1.24918 210.147 0.93441 209.047 0.29229C208.547 0.00270462 208.32 -0.0602474 208.196 0.0530682ZM211.986 9.50232C211.986 9.5338 211.634 9.91152 211.214 10.3333C210.783 10.7614 210.272 11.2776 210.068 11.4853L209.716 11.8631L209.228 11.8442C206.232 11.7246 203.259 11.4413 199.56 10.9377L197.631 10.6733L199.617 10.4026C202.942 9.94929 205.654 9.69118 209.035 9.50862C210.42 9.43307 211.986 9.42678 211.986 9.50232ZM225.376 9.666C227.249 9.79191 229.847 10.0689 232.299 10.4026L234.285 10.6733L232.355 10.9377C228.372 11.479 225.331 11.756 222.063 11.8694C220.905 11.9134 220.837 11.9071 220.837 11.7938C220.837 11.7309 221.234 11.1832 221.711 10.5851L222.585 9.48973L223.266 9.5338C223.652 9.55269 224.593 9.61564 225.376 9.666ZM182.708 10.6984C181.006 10.7551 177.499 10.7614 175.559 10.7047C174.538 10.6733 175.684 10.6544 179.02 10.6544C182.073 10.6544 183.503 10.6733 182.708 10.6984ZM256.356 10.7047C254.416 10.7614 250.909 10.7551 249.207 10.6984C248.413 10.6733 249.843 10.6544 252.895 10.6544C256.231 10.6544 257.378 10.6733 256.356 10.7047Z" fill="black"/>
<path d="M352.208 0.0530682C352.106 0.134907 352.56 1.32472 354.285 5.5048C354.523 6.09027 354.852 6.90236 355.022 7.29897C355.181 7.69557 355.34 8.08588 355.374 8.15513C355.431 8.28733 355.374 8.29362 354.489 8.3314C350.006 8.53285 347.43 8.75948 343.005 9.34494C337.251 10.113 337.501 10.0815 336.763 10.05C336.389 10.0311 335.39 9.95559 334.55 9.88634C331.816 9.65341 329.353 9.55898 325.302 9.52121C319.333 9.47085 313.5 9.62193 308.223 9.97447L306.01 10.1193L303.798 9.97447C299.599 9.69118 293.959 9.50232 289.817 9.50232H288.024V10.0689V10.6355L291.008 10.6481C293.687 10.6544 293.823 10.6607 292.45 10.7047C291.61 10.7236 290.271 10.7488 289.476 10.7551L288.024 10.7614V11.2965V11.8316H290.668C294.742 11.8316 298.475 11.7057 303.276 11.4098L305.988 11.2461L308.779 11.4161C314.703 11.7749 317.982 11.8568 324.598 11.8127C330.045 11.7812 331.713 11.7183 335.231 11.4161C337.421 11.2272 336.877 11.1895 341.927 11.8631C343.833 12.1149 346.057 12.3982 346.863 12.4863C348.463 12.6563 351.595 12.9018 352.208 12.9018C352.423 12.9018 352.594 12.9333 352.594 12.971C352.594 13.0025 351.709 13.9594 350.63 15.0926C347.612 18.2528 346.693 19.2412 346.693 19.3419C346.693 19.5182 346.886 19.5119 347.476 19.3356C348.463 19.046 349.7 18.4542 350.812 17.7555C353.229 16.2257 353.524 15.9991 354.943 14.5071L356.282 13.0906H357.087C357.768 13.0906 357.927 13.1095 358.109 13.2228C358.358 13.3865 358.949 13.5313 359.323 13.5313C359.471 13.5313 359.834 13.4621 360.129 13.3802C360.662 13.2291 360.662 13.2291 361.195 13.3425L361.729 13.4558L361.978 14.7778L362.217 16.1061L362.954 16.7545C363.352 17.1133 364.18 17.9129 364.781 18.5424C365.984 19.7763 366.325 20.0596 366.529 19.9903C366.858 19.877 366.608 18.3787 365.644 14.696C365.417 13.7957 365.224 13.0529 365.235 13.0466C365.247 13.0403 365.882 13.0088 366.665 12.9647C370.523 12.7759 372.85 12.5493 378.013 11.8631C383.063 11.1895 382.518 11.2272 384.708 11.4161C388.215 11.7183 389.906 11.7812 395.307 11.8127C401.991 11.8568 405.135 11.7749 411.16 11.4161L413.952 11.2461L416.664 11.4098C421.6 11.712 425.186 11.8316 429.283 11.8316H431.916V11.2965V10.7614L430.475 10.7551C429.669 10.7488 428.33 10.7236 427.49 10.7047C426.117 10.6607 426.253 10.6544 428.943 10.6481L431.916 10.6355V10.0689V9.50232H430.134C425.981 9.50232 420.341 9.69118 416.142 9.96818L413.929 10.1193L411.716 9.97447C406.428 9.62193 400.607 9.47085 394.638 9.52121C390.587 9.55898 388.124 9.65341 385.389 9.88634C384.549 9.95559 383.551 10.0311 383.176 10.05C382.439 10.0815 382.677 10.1067 376.992 9.35753C373.576 8.90427 371.556 8.69023 369.105 8.52655C368.231 8.46989 367.505 8.41324 367.493 8.40694C367.482 8.40694 367.936 7.80259 368.492 7.07863C371.34 3.38329 371.999 2.32567 371.488 2.32567C371.397 2.32567 370.035 3.04334 368.469 3.91209L365.621 5.5048L364.657 6.90236C363.726 8.25585 363.681 8.30622 363.374 8.30622C362.966 8.30622 362.693 8.12365 362.693 7.85925C362.693 7.56337 362.364 7.23601 361.91 7.06604C361.229 6.81423 360.185 6.90236 359.663 7.2486C359.482 7.38081 358.631 7.64521 358.551 7.60114C358.529 7.58855 358.234 6.86459 357.882 5.98954C357.201 4.2961 357.065 4.07577 355.533 2.37604C354.534 1.24918 354.16 0.93441 353.059 0.29229C352.56 0.00270462 352.333 -0.0602474 352.208 0.0530682ZM355.998 9.50232C355.998 9.5338 355.646 9.91152 355.226 10.3333C354.795 10.7614 354.285 11.2776 354.08 11.4853L353.728 11.8631L353.24 11.8442C350.245 11.7246 347.271 11.4413 343.572 10.9377L341.643 10.6733L343.629 10.4026C346.954 9.94929 349.666 9.69118 353.048 9.50862C354.432 9.43307 355.998 9.42678 355.998 9.50232ZM369.389 9.666C371.261 9.79191 373.86 10.0689 376.311 10.4026L378.297 10.6733L376.368 10.9377C372.384 11.479 369.343 11.756 366.075 11.8694C364.918 11.9134 364.849 11.9071 364.849 11.7938C364.849 11.7309 365.247 11.1832 365.723 10.5851L366.597 9.48973L367.278 9.5338C367.664 9.55269 368.606 9.61564 369.389 9.666ZM326.72 10.6984C325.018 10.7551 321.512 10.7614 319.571 10.7047C318.55 10.6733 319.696 10.6544 323.032 10.6544C326.085 10.6544 327.515 10.6733 326.72 10.6984ZM400.368 10.7047C398.428 10.7614 394.921 10.7551 393.219 10.6984C392.425 10.6733 393.855 10.6544 396.907 10.6544C400.244 10.6544 401.39 10.6733 400.368 10.7047Z" fill="black"/>
<path d="M496.22 0.0530682C496.117 0.134907 496.571 1.32472 498.296 5.5048C498.535 6.09027 498.864 6.90236 499.034 7.29897C499.193 7.69557 499.352 8.08588 499.386 8.15513C499.442 8.28733 499.386 8.29362 498.5 8.3314C494.018 8.53285 491.442 8.75948 487.016 9.34494C481.263 10.113 481.513 10.0815 480.775 10.05C480.401 10.0311 479.402 9.95559 478.562 9.88634C475.827 9.65341 473.365 9.55898 469.314 9.52121C463.345 9.47085 457.512 9.62193 452.235 9.97447L450.022 10.1193L447.809 9.97447C443.611 9.69118 437.971 9.50232 433.829 9.50232H432.036V10.0689V10.6355L435.02 10.6481C437.698 10.6544 437.834 10.6607 436.461 10.7047C435.622 10.7236 434.283 10.7488 433.488 10.7551L432.036 10.7614V11.2965V11.8316H434.68C438.754 11.8316 442.487 11.7057 447.287 11.4098L449.999 11.2461L452.791 11.4161C458.715 11.7749 461.994 11.8568 468.61 11.8127C474.057 11.7812 475.725 11.7183 479.243 11.4161C481.433 11.2272 480.888 11.1895 485.938 11.8631C487.845 12.1149 490.069 12.3982 490.875 12.4863C492.475 12.6563 495.607 12.9018 496.22 12.9018C496.435 12.9018 496.605 12.9333 496.605 12.971C496.605 13.0025 495.72 13.9594 494.642 15.0926C491.624 18.2528 490.704 19.2412 490.704 19.3419C490.704 19.5182 490.897 19.5119 491.487 19.3356C492.475 19.046 493.712 18.4542 494.824 17.7555C497.241 16.2257 497.536 15.9991 498.954 14.5071L500.293 13.0906H501.099C501.78 13.0906 501.939 13.1095 502.12 13.2228C502.37 13.3865 502.96 13.5313 503.335 13.5313C503.482 13.5313 503.845 13.4621 504.14 13.3802C504.674 13.2291 504.674 13.2291 505.207 13.3425L505.74 13.4558L505.99 14.7778L506.228 16.1061L506.966 16.7545C507.363 17.1133 508.192 17.9129 508.793 18.5424C509.996 19.7763 510.336 20.0596 510.541 19.9903C510.87 19.877 510.62 18.3787 509.656 14.696C509.429 13.7957 509.236 13.0529 509.247 13.0466C509.258 13.0403 509.894 13.0088 510.677 12.9647C514.535 12.7759 516.861 12.5493 522.025 11.8631C527.075 11.1895 526.53 11.2272 528.72 11.4161C532.227 11.7183 533.917 11.7812 539.319 11.8127C546.003 11.8568 549.146 11.7749 555.172 11.4161L557.964 11.2461L560.676 11.4098C565.612 11.712 569.198 11.8316 573.295 11.8316H575.927V11.2965V10.7614L574.486 10.7551C573.681 10.7488 572.341 10.7236 571.502 10.7047C570.129 10.6607 570.265 10.6544 572.954 10.6481L575.927 10.6355V10.0689V9.50232H574.146C569.992 9.50232 564.353 9.69118 560.154 9.96818L557.941 10.1193L555.728 9.97447C550.44 9.62193 544.618 9.47085 538.649 9.52121C534.598 9.55898 532.136 9.65341 529.401 9.88634C528.561 9.95559 527.563 10.0311 527.188 10.05C526.45 10.0815 526.689 10.1067 521.003 9.35753C517.588 8.90427 515.568 8.69023 513.117 8.52655C512.243 8.46989 511.517 8.41324 511.505 8.40694C511.494 8.40694 511.948 7.80259 512.504 7.07863C515.352 3.38329 516.01 2.32567 515.5 2.32567C515.409 2.32567 514.047 3.04334 512.481 3.91209L509.633 5.5048L508.668 6.90236C507.738 8.25585 507.692 8.30622 507.386 8.30622C506.977 8.30622 506.705 8.12365 506.705 7.85925C506.705 7.56337 506.376 7.23601 505.922 7.06604C505.241 6.81423 504.197 6.90236 503.675 7.2486C503.494 7.38081 502.642 7.64521 502.563 7.60114C502.54 7.58855 502.245 6.86459 501.894 5.98954C501.213 4.2961 501.076 4.07577 499.544 2.37604C498.546 1.24918 498.171 0.93441 497.071 0.29229C496.571 0.00270462 496.344 -0.0602474 496.22 0.0530682ZM500.01 9.50232C500.01 9.5338 499.658 9.91152 499.238 10.3333C498.807 10.7614 498.296 11.2776 498.092 11.4853L497.74 11.8631L497.252 11.8442C494.256 11.7246 491.283 11.4413 487.584 10.9377L485.655 10.6733L487.641 10.4026C490.965 9.94929 493.678 9.69118 497.059 9.50862C498.444 9.43307 500.01 9.42678 500.01 9.50232ZM513.4 9.666C515.273 9.79191 517.871 10.0689 520.323 10.4026L522.308 10.6733L520.379 10.9377C516.396 11.479 513.355 11.756 510.087 11.8694C508.929 11.9134 508.861 11.9071 508.861 11.7938C508.861 11.7309 509.258 11.1832 509.735 10.5851L510.609 9.48973L511.29 9.5338C511.675 9.55269 512.617 9.61564 513.4 9.666ZM470.732 10.6984C469.03 10.7551 465.523 10.7614 463.583 10.7047C462.562 10.6733 463.708 10.6544 467.044 10.6544C470.097 10.6544 471.526 10.6733 470.732 10.6984ZM544.38 10.7047C542.44 10.7614 538.933 10.7551 537.231 10.6984C536.437 10.6733 537.866 10.6544 540.919 10.6544C544.255 10.6544 545.401 10.6733 544.38 10.7047Z" fill="black"/>
<path d="M640.233 0.0530682C640.131 0.134907 640.585 1.32472 642.309 5.5048C642.548 6.09027 642.877 6.90236 643.047 7.29897C643.206 7.69557 643.365 8.08588 643.399 8.15513C643.456 8.28733 643.399 8.29362 642.514 8.3314C638.031 8.53285 635.455 8.75948 631.03 9.34494C625.276 10.113 625.526 10.0815 624.788 10.05C624.414 10.0311 623.415 9.95559 622.575 9.88634C619.84 9.65341 617.378 9.55898 613.327 9.52121C607.358 9.47085 601.525 9.62193 596.248 9.97447L594.035 10.1193L591.822 9.97447C587.624 9.69118 581.984 9.50232 577.842 9.50232H576.049V10.0689V10.6355L579.033 10.6481C581.711 10.6544 581.848 10.6607 580.475 10.7047C579.635 10.7236 578.296 10.7488 577.501 10.7551L576.049 10.7614V11.2965V11.8316H578.693C582.767 11.8316 586.5 11.7057 591.3 11.4098L594.013 11.2461L596.804 11.4161C602.728 11.7749 606.007 11.8568 612.623 11.8127C618.07 11.7812 619.738 11.7183 623.256 11.4161C625.446 11.2272 624.902 11.1895 629.952 11.8631C631.858 12.1149 634.082 12.3982 634.888 12.4863C636.488 12.6563 639.62 12.9018 640.233 12.9018C640.448 12.9018 640.619 12.9333 640.619 12.971C640.619 13.0025 639.733 13.9594 638.655 15.0926C635.637 18.2528 634.718 19.2412 634.718 19.3419C634.718 19.5182 634.911 19.5119 635.501 19.3356C636.488 19.046 637.725 18.4542 638.837 17.7555C641.254 16.2257 641.549 15.9991 642.968 14.5071L644.307 13.0906H645.112C645.793 13.0906 645.952 13.1095 646.134 13.2228C646.383 13.3865 646.973 13.5313 647.348 13.5313C647.495 13.5313 647.859 13.4621 648.154 13.3802C648.687 13.2291 648.687 13.2291 649.22 13.3425L649.754 13.4558L650.003 14.7778L650.242 16.1061L650.979 16.7545C651.376 17.1133 652.205 17.9129 652.806 18.5424C654.009 19.7763 654.35 20.0596 654.554 19.9903C654.883 19.877 654.633 18.3787 653.669 14.696C653.442 13.7957 653.249 13.0529 653.26 13.0466C653.272 13.0403 653.907 13.0088 654.69 12.9647C658.548 12.7759 660.875 12.5493 666.038 11.8631C671.088 11.1895 670.543 11.2272 672.733 11.4161C676.24 11.7183 677.931 11.7812 683.332 11.8127C690.016 11.8568 693.159 11.7749 699.185 11.4161L701.977 11.2461L704.689 11.4098C709.625 11.712 713.211 11.8316 717.308 11.8316H719.941V11.2965V10.7614L718.499 10.7551C717.694 10.7488 716.355 10.7236 715.515 10.7047C714.142 10.6607 714.278 10.6544 716.967 10.6481L719.941 10.6355V10.0689V9.50232H718.159C714.006 9.50232 708.366 9.69118 704.167 9.96818L701.954 10.1193L699.741 9.97447C694.453 9.62193 688.632 9.47085 682.663 9.52121C678.611 9.55898 676.149 9.65341 673.414 9.88634C672.574 9.95559 671.576 10.0311 671.201 10.05C670.464 10.0815 670.702 10.1067 665.017 9.35753C661.601 8.90427 659.581 8.69023 657.13 8.52655C656.256 8.46989 655.53 8.41324 655.518 8.40694C655.507 8.40694 655.961 7.80259 656.517 7.07863C659.365 3.38329 660.024 2.32567 659.513 2.32567C659.422 2.32567 658.06 3.04334 656.494 3.91209L653.646 5.5048L652.681 6.90236C651.751 8.25585 651.705 8.30622 651.399 8.30622C650.991 8.30622 650.718 8.12365 650.718 7.85925C650.718 7.56337 650.389 7.23601 649.935 7.06604C649.254 6.81423 648.21 6.90236 647.688 7.2486C647.507 7.38081 646.656 7.64521 646.576 7.60114C646.554 7.58855 646.258 6.86459 645.907 5.98954C645.226 4.2961 645.09 4.07577 643.558 2.37604C642.559 1.24918 642.185 0.93441 641.084 0.29229C640.585 0.00270462 640.358 -0.0602474 640.233 0.0530682ZM644.023 9.50232C644.023 9.5338 643.671 9.91152 643.251 10.3333C642.82 10.7614 642.309 11.2776 642.105 11.4853L641.753 11.8631L641.265 11.8442C638.27 11.7246 635.296 11.4413 631.597 10.9377L629.668 10.6733L631.654 10.4026C634.979 9.94929 637.691 9.69118 641.072 9.50862C642.457 9.43307 644.023 9.42678 644.023 9.50232ZM657.414 9.666C659.286 9.79191 661.885 10.0689 664.336 10.4026L666.322 10.6733L664.392 10.9377C660.409 11.479 657.368 11.756 654.1 11.8694C652.942 11.9134 652.874 11.9071 652.874 11.7938C652.874 11.7309 653.272 11.1832 653.748 10.5851L654.622 9.48973L655.303 9.5338C655.689 9.55269 656.631 9.61564 657.414 9.666ZM614.745 10.6984C613.043 10.7551 609.537 10.7614 607.596 10.7047C606.575 10.6733 607.721 10.6544 611.057 10.6544C614.11 10.6544 615.54 10.6733 614.745 10.6984ZM688.393 10.7047C686.453 10.7614 682.946 10.7551 681.244 10.6984C680.45 10.6733 681.88 10.6544 684.932 10.6544C688.269 10.6544 689.415 10.6733 688.393 10.7047Z" fill="black"/>
<path d="M784.244 0.0530682C784.142 0.134907 784.596 1.32472 786.321 5.5048C786.559 6.09027 786.889 6.90236 787.059 7.29897C787.218 7.69557 787.376 8.08588 787.411 8.15513C787.467 8.28733 787.411 8.29362 786.525 8.3314C782.043 8.53285 779.467 8.75948 775.041 9.34494C769.288 10.113 769.538 10.0815 768.8 10.05C768.425 10.0311 767.427 9.95559 766.587 9.88634C763.852 9.65341 761.39 9.55898 757.339 9.52121C751.369 9.47085 745.537 9.62193 740.26 9.97447L738.047 10.1193L735.834 9.97447C731.635 9.69118 725.996 9.50232 721.854 9.50232H720.061V10.0689V10.6355L723.045 10.6481C725.723 10.6544 725.859 10.6607 724.486 10.7047C723.646 10.7236 722.307 10.7488 721.513 10.7551L720.061 10.7614V11.2965V11.8316H722.705C726.779 11.8316 730.512 11.7057 735.312 11.4098L738.024 11.2461L740.816 11.4161C746.74 11.7749 750.019 11.8568 756.635 11.8127C762.082 11.7812 763.75 11.7183 767.268 11.4161C769.458 11.2272 768.913 11.1895 773.963 11.8631C775.87 12.1149 778.094 12.3982 778.9 12.4863C780.5 12.6563 783.632 12.9018 784.244 12.9018C784.46 12.9018 784.63 12.9333 784.63 12.971C784.63 13.0025 783.745 13.9594 782.667 15.0926C779.649 18.2528 778.729 19.2412 778.729 19.3419C778.729 19.5182 778.922 19.5119 779.512 19.3356C780.5 19.046 781.737 18.4542 782.849 17.7555C785.266 16.2257 785.561 15.9991 786.979 14.5071L788.318 13.0906H789.124C789.805 13.0906 789.964 13.1095 790.145 13.2228C790.395 13.3865 790.985 13.5313 791.36 13.5313C791.507 13.5313 791.87 13.4621 792.165 13.3802C792.699 13.2291 792.699 13.2291 793.232 13.3425L793.765 13.4558L794.015 14.7778L794.253 16.1061L794.991 16.7545C795.388 17.1133 796.217 17.9129 796.818 18.5424C798.021 19.7763 798.361 20.0596 798.566 19.9903C798.895 19.877 798.645 18.3787 797.68 14.696C797.453 13.7957 797.261 13.0529 797.272 13.0466C797.283 13.0403 797.919 13.0088 798.702 12.9647C802.56 12.7759 804.886 12.5493 810.05 11.8631C815.099 11.1895 814.555 11.2272 816.745 11.4161C820.251 11.7183 821.942 11.7812 827.344 11.8127C834.028 11.8568 837.171 11.7749 843.197 11.4161L845.989 11.2461L848.701 11.4098C853.637 11.712 857.223 11.8316 861.32 11.8316H863.952V11.2965V10.7614L862.511 10.7551C861.705 10.7488 860.366 10.7236 859.527 10.7047C858.154 10.6607 858.29 10.6544 860.979 10.6481L863.952 10.6355V10.0689V9.50232H862.171C858.017 9.50232 852.377 9.69118 848.179 9.96818L845.966 10.1193L843.753 9.97447C838.465 9.62193 832.643 9.47085 826.674 9.52121C822.623 9.55898 820.161 9.65341 817.426 9.88634C816.586 9.95559 815.587 10.0311 815.213 10.05C814.475 10.0815 814.714 10.1067 809.028 9.35753C805.613 8.90427 803.593 8.69023 801.142 8.52655C800.268 8.46989 799.541 8.41324 799.53 8.40694C799.519 8.40694 799.973 7.80259 800.529 7.07863C803.377 3.38329 804.035 2.32567 803.525 2.32567C803.434 2.32567 802.072 3.04334 800.506 3.91209L797.658 5.5048L796.693 6.90236C795.763 8.25585 795.717 8.30622 795.411 8.30622C795.002 8.30622 794.73 8.12365 794.73 7.85925C794.73 7.56337 794.401 7.23601 793.947 7.06604C793.266 6.81423 792.222 6.90236 791.7 7.2486C791.518 7.38081 790.667 7.64521 790.588 7.60114C790.565 7.58855 790.27 6.86459 789.918 5.98954C789.238 4.2961 789.101 4.07577 787.569 2.37604C786.571 1.24918 786.196 0.93441 785.096 0.29229C784.596 0.00270462 784.369 -0.0602474 784.244 0.0530682ZM788.035 9.50232C788.035 9.5338 787.683 9.91152 787.263 10.3333C786.832 10.7614 786.321 11.2776 786.117 11.4853L785.765 11.8631L785.277 11.8442C782.281 11.7246 779.308 11.4413 775.609 10.9377L773.68 10.6733L775.665 10.4026C778.99 9.94929 781.703 9.69118 785.084 9.50862C786.469 9.43307 788.035 9.42678 788.035 9.50232ZM801.425 9.666C803.298 9.79191 805.896 10.0689 808.347 10.4026L810.333 10.6733L808.404 10.9377C804.421 11.479 801.38 11.756 798.112 11.8694C796.954 11.9134 796.886 11.9071 796.886 11.7938C796.886 11.7309 797.283 11.1832 797.76 10.5851L798.634 9.48973L799.315 9.5338C799.7 9.55269 800.642 9.61564 801.425 9.666ZM758.757 10.6984C757.055 10.7551 753.548 10.7614 751.608 10.7047C750.586 10.6733 751.733 10.6544 755.069 10.6544C758.122 10.6544 759.551 10.6733 758.757 10.6984ZM832.405 10.7047C830.465 10.7614 826.958 10.7551 825.256 10.6984C824.462 10.6733 825.891 10.6544 828.944 10.6544C832.28 10.6544 833.426 10.6733 832.405 10.7047Z" fill="black"/>
<path d="M928.256 0.0530682C928.154 0.134907 928.608 1.32472 930.333 5.5048C930.571 6.09027 930.9 6.90236 931.07 7.29897C931.229 7.69557 931.388 8.08588 931.422 8.15513C931.479 8.28733 931.422 8.29362 930.537 8.3314C926.055 8.53285 923.479 8.75948 919.053 9.34494C913.3 10.113 913.549 10.0815 912.812 10.05C912.437 10.0311 911.439 9.95559 910.599 9.88634C907.864 9.65341 905.401 9.55898 901.35 9.52121C895.381 9.47085 889.548 9.62193 884.272 9.97447L882.059 10.1193L879.846 9.97447C875.647 9.69118 870.007 9.50232 865.865 9.50232H864.072V10.0689V10.6355L867.057 10.6481C869.735 10.6544 869.871 10.6607 868.498 10.7047C867.658 10.7236 866.319 10.7488 865.525 10.7551L864.072 10.7614V11.2965V11.8316H866.716C870.79 11.8316 874.524 11.7057 879.324 11.4098L882.036 11.2461L884.828 11.4161C890.751 11.7749 894.031 11.8568 900.647 11.8127C906.094 11.7812 907.762 11.7183 911.28 11.4161C913.47 11.2272 912.925 11.1895 917.975 11.8631C919.881 12.1149 922.106 12.3982 922.911 12.4863C924.511 12.6563 927.643 12.9018 928.256 12.9018C928.472 12.9018 928.642 12.9333 928.642 12.971C928.642 13.0025 927.757 13.9594 926.679 15.0926C923.66 18.2528 922.741 19.2412 922.741 19.3419C922.741 19.5182 922.934 19.5119 923.524 19.3356C924.511 19.046 925.748 18.4542 926.86 17.7555C929.277 16.2257 929.573 15.9991 930.991 14.5071L932.33 13.0906H933.136C933.817 13.0906 933.976 13.1095 934.157 13.2228C934.407 13.3865 934.997 13.5313 935.371 13.5313C935.519 13.5313 935.882 13.4621 936.177 13.3802C936.71 13.2291 936.71 13.2291 937.244 13.3425L937.777 13.4558L938.027 14.7778L938.265 16.1061L939.003 16.7545C939.4 17.1133 940.228 17.9129 940.83 18.5424C942.033 19.7763 942.373 20.0596 942.577 19.9903C942.906 19.877 942.657 18.3787 941.692 14.696C941.465 13.7957 941.272 13.0529 941.284 13.0466C941.295 13.0403 941.93 13.0088 942.713 12.9647C946.572 12.7759 948.898 12.5493 954.061 11.8631C959.111 11.1895 958.566 11.2272 960.757 11.4161C964.263 11.7183 965.954 11.7812 971.356 11.8127C978.04 11.8568 981.183 11.7749 987.209 11.4161L990 11.2461L992.712 11.4098C997.649 11.712 1001.23 11.8316 1005.33 11.8316H1007.96V11.2965V10.7614L1006.52 10.7551C1005.72 10.7488 1004.38 10.7236 1003.54 10.7047C1002.17 10.6607 1002.3 10.6544 1004.99 10.6481L1007.96 10.6355V10.0689V9.50232H1006.18C1002.03 9.50232 996.389 9.69118 992.19 9.96818L989.978 10.1193L987.765 9.97447C982.477 9.62193 976.655 9.47085 970.686 9.52121C966.635 9.55898 964.172 9.65341 961.438 9.88634C960.598 9.95559 959.599 10.0311 959.225 10.05C958.487 10.0815 958.725 10.1067 953.04 9.35753C949.624 8.90427 947.604 8.69023 945.153 8.52655C944.279 8.46989 943.553 8.41324 943.542 8.40694C943.53 8.40694 943.984 7.80259 944.54 7.07863C947.389 3.38329 948.047 2.32567 947.536 2.32567C947.446 2.32567 946.084 3.04334 944.518 3.91209L941.669 5.5048L940.705 6.90236C939.774 8.25585 939.729 8.30622 939.423 8.30622C939.014 8.30622 938.742 8.12365 938.742 7.85925C938.742 7.56337 938.413 7.23601 937.959 7.06604C937.278 6.81423 936.234 6.90236 935.712 7.2486C935.53 7.38081 934.679 7.64521 934.6 7.60114C934.577 7.58855 934.282 6.86459 933.93 5.98954C933.249 4.2961 933.113 4.07577 931.581 2.37604C930.582 1.24918 930.208 0.93441 929.107 0.29229C928.608 0.00270462 928.381 -0.0602474 928.256 0.0530682ZM932.046 9.50232C932.046 9.5338 931.695 9.91152 931.275 10.3333C930.843 10.7614 930.333 11.2776 930.129 11.4853L929.777 11.8631L929.289 11.8442C926.293 11.7246 923.32 11.4413 919.62 10.9377L917.691 10.6733L919.677 10.4026C923.002 9.94929 925.714 9.69118 929.096 9.50862C930.48 9.43307 932.046 9.42678 932.046 9.50232ZM945.437 9.666C947.309 9.79191 949.908 10.0689 952.359 10.4026L954.345 10.6733L952.416 10.9377C948.433 11.479 945.392 11.756 942.123 11.8694C940.966 11.9134 940.898 11.9071 940.898 11.7938C940.898 11.7309 941.295 11.1832 941.772 10.5851L942.645 9.48973L943.326 9.5338C943.712 9.55269 944.654 9.61564 945.437 9.666ZM902.769 10.6984C901.067 10.7551 897.56 10.7614 895.62 10.7047C894.598 10.6733 895.744 10.6544 899.081 10.6544C902.133 10.6544 903.563 10.6733 902.769 10.6984ZM976.417 10.7047C974.476 10.7614 970.97 10.7551 969.268 10.6984C968.473 10.6733 969.903 10.6544 972.956 10.6544C976.292 10.6544 977.438 10.6733 976.417 10.7047Z" fill="black"/>
<path d="M1072.27 0.0530682C1072.17 0.134907 1072.62 1.32472 1074.35 5.5048C1074.58 6.09027 1074.91 6.90236 1075.08 7.29897C1075.24 7.69557 1075.4 8.08588 1075.43 8.15513C1075.49 8.28733 1075.43 8.29362 1074.55 8.3314C1070.07 8.53285 1067.49 8.75948 1063.07 9.34494C1057.31 10.113 1057.56 10.0815 1056.82 10.05C1056.45 10.0311 1055.45 9.95559 1054.61 9.88634C1051.88 9.65341 1049.41 9.55898 1045.36 9.52121C1039.39 9.47085 1033.56 9.62193 1028.28 9.97447L1026.07 10.1193L1023.86 9.97447C1019.66 9.69118 1014.02 9.50232 1009.88 9.50232H1008.08V10.0689V10.6355L1011.07 10.6481C1013.75 10.6544 1013.88 10.6607 1012.51 10.7047C1011.67 10.7236 1010.33 10.7488 1009.54 10.7551L1008.08 10.7614V11.2965V11.8316H1010.73C1014.8 11.8316 1018.54 11.7057 1023.34 11.4098L1026.05 11.2461L1028.84 11.4161C1034.76 11.7749 1038.04 11.8568 1044.66 11.8127C1050.11 11.7812 1051.77 11.7183 1055.29 11.4161C1057.48 11.2272 1056.94 11.1895 1061.99 11.8631C1063.89 12.1149 1066.12 12.3982 1066.92 12.4863C1068.52 12.6563 1071.66 12.9018 1072.27 12.9018C1072.48 12.9018 1072.65 12.9333 1072.65 12.971C1072.65 13.0025 1071.77 13.9594 1070.69 15.0926C1067.67 18.2528 1066.75 19.2412 1066.75 19.3419C1066.75 19.5182 1066.95 19.5119 1067.54 19.3356C1068.52 19.046 1069.76 18.4542 1070.87 17.7555C1073.29 16.2257 1073.58 15.9991 1075 14.5071L1076.34 13.0906H1077.15C1077.83 13.0906 1077.99 13.1095 1078.17 13.2228C1078.42 13.3865 1079.01 13.5313 1079.38 13.5313C1079.53 13.5313 1079.89 13.4621 1080.19 13.3802C1080.72 13.2291 1080.72 13.2291 1081.26 13.3425L1081.79 13.4558L1082.04 14.7778L1082.28 16.1061L1083.01 16.7545C1083.41 17.1133 1084.24 17.9129 1084.84 18.5424C1086.04 19.7763 1086.39 20.0596 1086.59 19.9903C1086.92 19.877 1086.67 18.3787 1085.7 14.696C1085.48 13.7957 1085.28 13.0529 1085.3 13.0466C1085.31 13.0403 1085.94 13.0088 1086.73 12.9647C1090.58 12.7759 1092.91 12.5493 1098.07 11.8631C1103.12 11.1895 1102.58 11.2272 1104.77 11.4161C1108.28 11.7183 1109.97 11.7812 1115.37 11.8127C1122.05 11.8568 1125.2 11.7749 1131.22 11.4161L1134.01 11.2461L1136.72 11.4098C1141.66 11.712 1145.25 11.8316 1149.34 11.8316H1151.98V11.2965V10.7614L1150.54 10.7551C1149.73 10.7488 1148.39 10.7236 1147.55 10.7047C1146.18 10.6607 1146.31 10.6544 1149 10.6481L1151.98 10.6355V10.0689V9.50232H1150.19C1146.04 9.50232 1140.4 9.69118 1136.2 9.96818L1133.99 10.1193L1131.78 9.97447C1126.49 9.62193 1120.67 9.47085 1114.7 9.52121C1110.65 9.55898 1108.18 9.65341 1105.45 9.88634C1104.61 9.95559 1103.61 10.0311 1103.24 10.05C1102.5 10.0815 1102.74 10.1067 1097.05 9.35753C1093.64 8.90427 1091.62 8.69023 1089.17 8.52655C1088.29 8.46989 1087.57 8.41324 1087.55 8.40694C1087.54 8.40694 1088 7.80259 1088.55 7.07863C1091.4 3.38329 1092.06 2.32567 1091.55 2.32567C1091.46 2.32567 1090.1 3.04334 1088.53 3.91209L1085.68 5.5048L1084.72 6.90236C1083.79 8.25585 1083.74 8.30622 1083.43 8.30622C1083.03 8.30622 1082.75 8.12365 1082.75 7.85925C1082.75 7.56337 1082.42 7.23601 1081.97 7.06604C1081.29 6.81423 1080.25 6.90236 1079.72 7.2486C1079.54 7.38081 1078.69 7.64521 1078.61 7.60114C1078.59 7.58855 1078.29 6.86459 1077.94 5.98954C1077.26 4.2961 1077.13 4.07577 1075.59 2.37604C1074.59 1.24918 1074.22 0.93441 1073.12 0.29229C1072.62 0.00270462 1072.39 -0.0602474 1072.27 0.0530682ZM1076.06 9.50232C1076.06 9.5338 1075.71 9.91152 1075.29 10.3333C1074.86 10.7614 1074.35 11.2776 1074.14 11.4853L1073.79 11.8631L1073.3 11.8442C1070.31 11.7246 1067.33 11.4413 1063.63 10.9377L1061.7 10.6733L1063.69 10.4026C1067.01 9.94929 1069.73 9.69118 1073.11 9.50862C1074.49 9.43307 1076.06 9.42678 1076.06 9.50232ZM1089.45 9.666C1091.32 9.79191 1093.92 10.0689 1096.37 10.4026L1098.36 10.6733L1096.43 10.9377C1092.45 11.479 1089.4 11.756 1086.14 11.8694C1084.98 11.9134 1084.91 11.9071 1084.91 11.7938C1084.91 11.7309 1085.31 11.1832 1085.78 10.5851L1086.66 9.48973L1087.34 9.5338C1087.72 9.55269 1088.67 9.61564 1089.45 9.666ZM1046.78 10.6984C1045.08 10.7551 1041.57 10.7614 1039.63 10.7047C1038.61 10.6733 1039.76 10.6544 1043.09 10.6544C1046.15 10.6544 1047.58 10.6733 1046.78 10.6984ZM1120.43 10.7047C1118.49 10.7614 1114.98 10.7551 1113.28 10.6984C1112.49 10.6733 1113.92 10.6544 1116.97 10.6544C1120.3 10.6544 1121.45 10.6733 1120.43 10.7047Z" fill="black"/>
<path d="M1216.28 0.0530682C1216.18 0.134907 1216.63 1.32472 1218.36 5.5048C1218.6 6.09027 1218.92 6.90236 1219.09 7.29897C1219.25 7.69557 1219.41 8.08588 1219.45 8.15513C1219.5 8.28733 1219.45 8.29362 1218.56 8.3314C1214.08 8.53285 1211.5 8.75948 1207.08 9.34494C1201.32 10.113 1201.57 10.0815 1200.84 10.05C1200.46 10.0311 1199.46 9.95559 1198.62 9.88634C1195.89 9.65341 1193.43 9.55898 1189.37 9.52121C1183.41 9.47085 1177.57 9.62193 1172.3 9.97447L1170.08 10.1193L1167.87 9.97447C1163.67 9.69118 1158.03 9.50232 1153.89 9.50232H1152.1V10.0689V10.6355L1155.08 10.6481C1157.76 10.6544 1157.89 10.6607 1156.52 10.7047C1155.68 10.7236 1154.34 10.7488 1153.55 10.7551L1152.1 10.7614V11.2965V11.8316H1154.74C1158.81 11.8316 1162.55 11.7057 1167.35 11.4098L1170.06 11.2461L1172.85 11.4161C1178.78 11.7749 1182.05 11.8568 1188.67 11.8127C1194.12 11.7812 1195.79 11.7183 1199.3 11.4161C1201.49 11.2272 1200.95 11.1895 1206 11.8631C1207.91 12.1149 1210.13 12.3982 1210.94 12.4863C1212.54 12.6563 1215.67 12.9018 1216.28 12.9018C1216.5 12.9018 1216.67 12.9333 1216.67 12.971C1216.67 13.0025 1215.78 13.9594 1214.7 15.0926C1211.68 18.2528 1210.77 19.2412 1210.77 19.3419C1210.77 19.5182 1210.96 19.5119 1211.55 19.3356C1212.54 19.046 1213.77 18.4542 1214.88 17.7555C1217.3 16.2257 1217.6 15.9991 1219.01 14.5071L1220.35 13.0906H1221.16C1221.84 13.0906 1222 13.1095 1222.18 13.2228C1222.43 13.3865 1223.02 13.5313 1223.4 13.5313C1223.54 13.5313 1223.91 13.4621 1224.2 13.3802C1224.73 13.2291 1224.73 13.2291 1225.27 13.3425L1225.8 13.4558L1226.05 14.7778L1226.29 16.1061L1227.03 16.7545C1227.42 17.1133 1228.25 17.9129 1228.85 18.5424C1230.06 19.7763 1230.4 20.0596 1230.6 19.9903C1230.93 19.877 1230.68 18.3787 1229.72 14.696C1229.49 13.7957 1229.3 13.0529 1229.31 13.0466C1229.32 13.0403 1229.95 13.0088 1230.74 12.9647C1234.6 12.7759 1236.92 12.5493 1242.09 11.8631C1247.14 11.1895 1246.59 11.2272 1248.78 11.4161C1252.29 11.7183 1253.98 11.7812 1259.38 11.8127C1266.06 11.8568 1269.21 11.7749 1275.23 11.4161L1278.02 11.2461L1280.74 11.4098C1285.67 11.712 1289.26 11.8316 1293.36 11.8316H1295.99V11.2965V10.7614L1294.55 10.7551C1293.74 10.7488 1292.4 10.7236 1291.56 10.7047C1290.19 10.6607 1290.33 10.6544 1293.01 10.6481L1295.99 10.6355V10.0689V9.50232H1294.21C1290.05 9.50232 1284.41 9.69118 1280.21 9.96818L1278 10.1193L1275.79 9.97447C1270.5 9.62193 1264.68 9.47085 1258.71 9.52121C1254.66 9.55898 1252.2 9.65341 1249.46 9.88634C1248.62 9.95559 1247.62 10.0311 1247.25 10.05C1246.51 10.0815 1246.75 10.1067 1241.06 9.35753C1237.65 8.90427 1235.63 8.69023 1233.18 8.52655C1232.3 8.46989 1231.58 8.41324 1231.57 8.40694C1231.55 8.40694 1232.01 7.80259 1232.56 7.07863C1235.41 3.38329 1236.07 2.32567 1235.56 2.32567C1235.47 2.32567 1234.11 3.04334 1232.54 3.91209L1229.69 5.5048L1228.73 6.90236C1227.8 8.25585 1227.75 8.30622 1227.45 8.30622C1227.04 8.30622 1226.77 8.12365 1226.77 7.85925C1226.77 7.56337 1226.44 7.23601 1225.98 7.06604C1225.3 6.81423 1224.26 6.90236 1223.74 7.2486C1223.55 7.38081 1222.7 7.64521 1222.62 7.60114C1222.6 7.58855 1222.31 6.86459 1221.95 5.98954C1221.27 4.2961 1221.14 4.07577 1219.61 2.37604C1218.61 1.24918 1218.23 0.93441 1217.13 0.29229C1216.63 0.00270462 1216.4 -0.0602474 1216.28 0.0530682ZM1220.07 9.50232C1220.07 9.5338 1219.72 9.91152 1219.3 10.3333C1218.87 10.7614 1218.36 11.2776 1218.15 11.4853L1217.8 11.8631L1217.31 11.8442C1214.32 11.7246 1211.34 11.4413 1207.64 10.9377L1205.72 10.6733L1207.7 10.4026C1211.03 9.94929 1213.74 9.69118 1217.12 9.50862C1218.5 9.43307 1220.07 9.42678 1220.07 9.50232ZM1233.46 9.666C1235.33 9.79191 1237.93 10.0689 1240.38 10.4026L1242.37 10.6733L1240.44 10.9377C1236.46 11.479 1233.42 11.756 1230.15 11.8694C1228.99 11.9134 1228.92 11.9071 1228.92 11.7938C1228.92 11.7309 1229.32 11.1832 1229.8 10.5851L1230.67 9.48973L1231.35 9.5338C1231.74 9.55269 1232.68 9.61564 1233.46 9.666ZM1190.79 10.6984C1189.09 10.7551 1185.58 10.7614 1183.64 10.7047C1182.62 10.6733 1183.77 10.6544 1187.1 10.6544C1190.16 10.6544 1191.59 10.6733 1190.79 10.6984ZM1264.44 10.7047C1262.5 10.7614 1258.99 10.7551 1257.29 10.6984C1256.5 10.6733 1257.93 10.6544 1260.98 10.6544C1264.32 10.6544 1265.46 10.6733 1264.44 10.7047Z" fill="black"/>
<path d="M1360.29 0.0530682C1360.19 0.134907 1360.64 1.32472 1362.37 5.5048C1362.61 6.09027 1362.94 6.90236 1363.11 7.29897C1363.27 7.69557 1363.42 8.08588 1363.46 8.15513C1363.52 8.28733 1363.46 8.29362 1362.57 8.3314C1358.09 8.53285 1355.51 8.75948 1351.09 9.34494C1345.34 10.113 1345.59 10.0815 1344.85 10.05C1344.47 10.0311 1343.47 9.95559 1342.63 9.88634C1339.9 9.65341 1337.44 9.55898 1333.39 9.52121C1327.42 9.47085 1321.58 9.62193 1316.31 9.97447L1314.09 10.1193L1311.88 9.97447C1307.68 9.69118 1302.04 9.50232 1297.9 9.50232H1296.11V10.0689V10.6355L1299.09 10.6481C1301.77 10.6544 1301.91 10.6607 1300.53 10.7047C1299.69 10.7236 1298.36 10.7488 1297.56 10.7551L1296.11 10.7614V11.2965V11.8316H1298.75C1302.83 11.8316 1306.56 11.7057 1311.36 11.4098L1314.07 11.2461L1316.86 11.4161C1322.79 11.7749 1326.07 11.8568 1332.68 11.8127C1338.13 11.7812 1339.8 11.7183 1343.32 11.4161C1345.51 11.2272 1344.96 11.1895 1350.01 11.8631C1351.92 12.1149 1354.14 12.3982 1354.95 12.4863C1356.55 12.6563 1359.68 12.9018 1360.29 12.9018C1360.51 12.9018 1360.68 12.9333 1360.68 12.971C1360.68 13.0025 1359.79 13.9594 1358.71 15.0926C1355.7 18.2528 1354.78 19.2412 1354.78 19.3419C1354.78 19.5182 1354.97 19.5119 1355.56 19.3356C1356.55 19.046 1357.78 18.4542 1358.9 17.7555C1361.31 16.2257 1361.61 15.9991 1363.03 14.5071L1364.37 13.0906H1365.17C1365.85 13.0906 1366.01 13.1095 1366.19 13.2228C1366.44 13.3865 1367.03 13.5313 1367.41 13.5313C1367.55 13.5313 1367.92 13.4621 1368.21 13.3802C1368.75 13.2291 1368.75 13.2291 1369.28 13.3425L1369.81 13.4558L1370.06 14.7778L1370.3 16.1061L1371.04 16.7545C1371.44 17.1133 1372.26 17.9129 1372.87 18.5424C1374.07 19.7763 1374.41 20.0596 1374.61 19.9903C1374.94 19.877 1374.69 18.3787 1373.73 14.696C1373.5 13.7957 1373.31 13.0529 1373.32 13.0466C1373.33 13.0403 1373.97 13.0088 1374.75 12.9647C1378.61 12.7759 1380.93 12.5493 1386.1 11.8631C1391.15 11.1895 1390.6 11.2272 1392.79 11.4161C1396.3 11.7183 1397.99 11.7812 1403.39 11.8127C1410.08 11.8568 1413.22 11.7749 1419.24 11.4161L1422.04 11.2461L1424.75 11.4098C1429.68 11.712 1433.27 11.8316 1437.37 11.8316H1440V11.2965V10.7614L1438.56 10.7551C1437.75 10.7488 1436.41 10.7236 1435.57 10.7047C1434.2 10.6607 1434.34 10.6544 1437.03 10.6481L1440 10.6355V10.0689V9.50232H1438.22C1434.07 9.50232 1428.43 9.69118 1424.23 9.96818L1422.01 10.1193L1419.8 9.97447C1414.51 9.62193 1408.69 9.47085 1402.72 9.52121C1398.67 9.55898 1396.21 9.65341 1393.47 9.88634C1392.63 9.95559 1391.64 10.0311 1391.26 10.05C1390.52 10.0815 1390.76 10.1067 1385.08 9.35753C1381.66 8.90427 1379.64 8.69023 1377.19 8.52655C1376.32 8.46989 1375.59 8.41324 1375.58 8.40694C1375.57 8.40694 1376.02 7.80259 1376.58 7.07863C1379.42 3.38329 1380.08 2.32567 1379.57 2.32567C1379.48 2.32567 1378.12 3.04334 1376.55 3.91209L1373.71 5.5048L1372.74 6.90236C1371.81 8.25585 1371.77 8.30622 1371.46 8.30622C1371.05 8.30622 1370.78 8.12365 1370.78 7.85925C1370.78 7.56337 1370.45 7.23601 1369.99 7.06604C1369.31 6.81423 1368.27 6.90236 1367.75 7.2486C1367.57 7.38081 1366.72 7.64521 1366.64 7.60114C1366.61 7.58855 1366.32 6.86459 1365.97 5.98954C1365.29 4.2961 1365.15 4.07577 1363.62 2.37604C1362.62 1.24918 1362.24 0.93441 1361.14 0.29229C1360.64 0.00270462 1360.42 -0.0602474 1360.29 0.0530682ZM1364.08 9.50232C1364.08 9.5338 1363.73 9.91152 1363.31 10.3333C1362.88 10.7614 1362.37 11.2776 1362.16 11.4853L1361.81 11.8631L1361.32 11.8442C1358.33 11.7246 1355.36 11.4413 1351.66 10.9377L1349.73 10.6733L1351.71 10.4026C1355.04 9.94929 1357.75 9.69118 1361.13 9.50862C1362.52 9.43307 1364.08 9.42678 1364.08 9.50232ZM1377.47 9.666C1379.35 9.79191 1381.94 10.0689 1384.4 10.4026L1386.38 10.6733L1384.45 10.9377C1380.47 11.479 1377.43 11.756 1374.16 11.8694C1373 11.9134 1372.93 11.9071 1372.93 11.7938C1372.93 11.7309 1373.33 11.1832 1373.81 10.5851L1374.68 9.48973L1375.36 9.5338C1375.75 9.55269 1376.69 9.61564 1377.47 9.666ZM1334.8 10.6984C1333.1 10.7551 1329.6 10.7614 1327.66 10.7047C1326.63 10.6733 1327.78 10.6544 1331.12 10.6544C1334.17 10.6544 1335.6 10.6733 1334.8 10.6984ZM1408.45 10.7047C1406.51 10.7614 1403.01 10.7551 1401.3 10.6984C1400.51 10.6733 1401.94 10.6544 1404.99 10.6544C1408.33 10.6544 1409.47 10.6733 1408.45 10.7047Z" fill="black"/>
</svg>
