<?xml version="1.0" encoding="UTF-8"?>
<svg width="501px" height="13px" viewBox="0 0 501 13" version="1.1" xmlns="http://www.w3.org/2000/svg" xmlns:xlink="http://www.w3.org/1999/xlink">
    <!-- Generator: Sketch 63.1 (92452) - https://sketch.com -->
    <title>Group 110</title>
    <desc>Created with Sketch.</desc>
    <defs>
        <polygon id="path-1" points="0.294 0.829 500.294 0.829 500.294 12.913 0.294 12.913"></polygon>
    </defs>
    <g id="Page-1" stroke="none" stroke-width="1" fill="none" fill-rule="evenodd">
        <g id="215683-P0XZ2N-422" transform="translate(0.000000, -25.000000)">
            <g id="Group-110" transform="translate(0.000000, 25.000000)">
                <mask id="mask-2" fill="white">
                    <use xlink:href="#path-1"></use>
                </mask>
                <g id="Clip-108"></g>
                <path d="M-1.602,6.764 C5.591,6.753 5.592,7.753 12.785,7.742 C19.977,7.731 19.976,6.731 27.168,6.719 C34.359,6.708 34.361,7.708 41.553,7.697 C48.746,7.686 48.745,6.686 55.937,6.674 C63.13,6.663 63.131,7.663 70.323,7.652 C77.517,7.64 77.516,6.64 84.709,6.629 C91.901,6.618 91.903,7.618 99.095,7.606 C106.288,7.595 106.287,6.595 113.48,6.584 C120.673,6.573 120.675,7.573 127.867,7.562 C135.06,7.55 135.058,6.55 142.251,6.539 C149.444,6.528 149.446,7.528 156.64,7.517 C163.833,7.505 163.831,6.505 171.023,6.494 C178.216,6.483 178.218,7.483 185.412,7.472 C192.605,7.46 192.604,6.46 199.798,6.449 C206.991,6.438 206.993,7.438 214.187,7.426 C221.379,7.416 221.378,6.416 228.571,6.404 C235.765,6.393 235.766,7.393 242.959,7.382 C250.153,7.371 250.151,6.371 257.344,6.359 C264.538,6.349 264.541,7.349 271.734,7.337 C278.924,7.326 278.923,6.326 286.114,6.315 C293.307,6.303 293.308,7.303 300.501,7.292 C307.695,7.281 307.694,6.281 314.887,6.27 C322.081,6.258 322.082,7.258 329.276,7.247 C336.469,7.236 336.467,6.236 343.661,6.225 C350.854,6.213 350.855,7.213 358.05,7.202 C365.245,7.191 365.244,6.19 372.438,6.18 C379.632,6.168 379.633,7.168 386.829,7.157 C394.023,7.146 394.021,6.146 401.214,6.135 C408.41,6.123 408.411,7.123 415.606,7.112 C422.802,7.101 422.8,6.101 429.996,6.089 C437.19,6.079 437.191,7.079 444.384,7.067 C451.581,7.056 451.579,6.056 458.775,6.045 C465.969,6.034 465.97,7.034 473.165,7.023 C480.364,7.011 480.362,6.011 487.561,6 C494.76,5.988 494.76,6.988 501.958,6.977 M0.006,8.015 C7.199,7.987 7.194,6.987 14.388,6.958 C21.579,6.929 21.583,7.929 28.775,7.9 C35.967,7.872 35.963,6.872 43.155,6.843 C50.348,6.814 50.352,7.814 57.545,7.786 C64.737,7.757 64.732,6.757 71.924,6.729 C79.119,6.7 79.123,7.7 86.316,7.671 C93.508,7.642 93.504,6.642 100.696,6.614 C107.889,6.585 107.894,7.585 115.087,7.556 C122.28,7.527 122.276,6.527 129.468,6.499 C136.661,6.47 136.665,7.47 143.858,7.441 C151.051,7.413 151.047,6.413 158.241,6.384 C165.433,6.356 165.437,7.356 172.629,7.327 C179.822,7.298 179.819,6.298 187.012,6.27 C194.206,6.241 194.21,7.241 201.404,7.212 C208.598,7.183 208.594,6.183 215.787,6.155 C222.98,6.126 222.984,7.126 230.177,7.097 C237.371,7.068 237.366,6.068 244.56,6.04 C251.752,6.011 251.756,7.011 258.95,6.982 C266.143,6.953 266.139,5.953 273.333,5.924 C280.524,5.896 280.529,6.896 287.719,6.867 C294.913,6.838 294.907,5.838 302.1,5.81 C309.293,5.781 309.299,6.781 316.494,6.752 C323.687,6.724 323.681,5.724 330.874,5.695 C338.067,5.667 338.071,6.667 345.264,6.638 C352.459,6.609 352.454,5.609 359.65,5.58 C366.843,5.552 366.849,6.552 374.042,6.523 C381.237,6.494 381.231,5.494 388.426,5.465 C395.621,5.437 395.624,6.437 402.82,6.408 C410.015,6.379 410.009,5.379 417.205,5.351 C424.399,5.322 424.403,6.322 431.598,6.293 C438.793,6.265 438.789,5.265 445.984,5.236 C453.179,5.208 453.183,6.207 460.378,6.178 C467.574,6.149 467.568,5.149 474.762,5.121 C481.96,5.092 481.966,6.092 489.164,6.064 C496.363,6.035 496.359,5.035 503.558,5.006 M27.045,0.829 C27.045,0.829 32.386,11.71 35.39,9.574 C38.394,7.439 35.12,5.245 33.721,5.836 C32.322,6.427 29.248,12.913 29.248,12.913 M37.727,2.565 C37.727,2.565 33.701,7.167 34.789,8.172 C35.877,9.178 38.811,5.524 37.192,5.836 C35.574,6.149 38.461,11.311 38.461,11.311 M84.732,2.565 C84.732,2.565 85.97,11.71 88.974,9.574 C91.978,7.439 88.704,5.245 87.305,5.836 C85.906,6.427 82.832,12.913 82.832,12.913 M96.794,1.375 C96.794,1.375 87.285,7.167 88.373,8.172 C89.461,9.178 94.413,5.25 92.794,5.562 C91.176,5.875 92.045,11.311 92.045,11.311 M140.34,0.829 C140.34,0.829 145.681,11.71 148.685,9.574 C151.689,7.439 148.415,5.245 147.017,5.836 C145.618,6.427 142.543,12.913 142.543,12.913 M151.022,2.565 C151.022,2.565 146.996,7.167 148.084,8.172 C149.172,9.178 152.106,5.524 150.488,5.836 C148.869,6.149 151.756,11.311 151.756,11.311 M198.027,2.565 C198.027,2.565 199.265,11.71 202.269,9.574 C205.273,7.439 201.999,5.245 200.601,5.836 C199.202,6.427 196.127,12.913 196.127,12.913 M210.09,1.375 C210.09,1.375 200.58,7.167 201.668,8.172 C202.756,9.178 207.708,5.25 206.09,5.562 C204.471,5.875 205.34,11.311 205.34,11.311 M253.636,0.829 C253.636,0.829 258.976,11.71 261.98,9.574 C264.985,7.439 261.71,5.245 260.312,5.836 C258.914,6.427 255.839,12.913 255.839,12.913 M264.318,2.565 C264.318,2.565 260.292,7.167 261.38,8.172 C262.468,9.178 265.402,5.524 263.783,5.836 C262.165,6.149 265.052,11.311 265.052,11.311 M311.323,2.565 C311.323,2.565 312.56,11.71 315.564,9.574 C318.569,7.439 315.294,5.245 313.896,5.836 C312.498,6.427 309.423,12.913 309.423,12.913 M323.385,1.375 C323.385,1.375 313.875,7.167 314.964,8.172 C316.052,9.178 321.003,5.25 319.385,5.562 C317.767,5.875 318.636,11.311 318.636,11.311 M366.931,0.829 C366.931,0.829 372.271,11.71 375.275,9.574 C378.281,7.439 375.005,5.245 373.607,5.836 C372.208,6.427 369.134,12.913 369.134,12.913 M377.613,2.565 C377.613,2.565 373.587,7.167 374.675,8.172 C375.763,9.178 378.697,5.524 377.078,5.836 C375.46,6.149 378.347,11.311 378.347,11.311" id="Stroke-107" stroke="#1D1C1A" mask="url(#mask-2)"></path>
                <path d="M424.619,2.565 C424.619,2.565 425.855,11.71 428.859,9.574 C431.865,7.439 428.589,5.245 427.191,5.836 C425.792,6.427 422.718,12.913 422.718,12.913 M436.681,1.375 C436.681,1.375 427.171,7.167 428.259,8.172 C429.347,9.178 434.298,5.25 432.681,5.562 C431.062,5.875 431.931,11.311 431.931,11.311 M480.226,0.829 C480.226,0.829 485.566,11.71 488.57,9.574 C491.576,7.439 488.3,5.245 486.902,5.836 C485.503,6.427 482.429,12.913 482.429,12.913 M490.908,2.565 C490.908,2.565 486.882,7.167 487.97,8.172 C489.058,9.178 491.992,5.524 490.373,5.836 C488.755,6.149 491.642,11.311 491.642,11.311" id="Stroke-109" stroke="#1D1C1A" mask="url(#mask-2)"></path>
            </g>
        </g>
    </g>
</svg>