<?xml version="1.0" encoding="UTF-8"?>
<svg width="500px" height="25px" viewBox="0 0 500 25" version="1.1" xmlns="http://www.w3.org/2000/svg" xmlns:xlink="http://www.w3.org/1999/xlink">
    <!-- Generator: Sketch 63.1 (92452) - https://sketch.com -->
    <title>Group</title>
    <desc>Created with Sketch.</desc>
    <defs>
        <polygon id="path-1" points="0.06 0.427804658 500 0.427804658 500 8.179375 0.06 8.179375"></polygon>
    </defs>
    <g id="Page-1" stroke="none" stroke-width="1" fill="none" fill-rule="evenodd">
        <g id="217663-P1Q9FR-252" transform="translate(0.000000, -369.000000)">
            <g id="Group" transform="translate(0.000000, 369.057000)">
                <path d="M78.997,16.39375 C71.273,16.39375 64.373,15.208125 58.236,13.854375 C47.578,11.50375 31.19,13.868125 31.026,13.8925 C29.951,14.050625 28.874,13.633125 28.622,12.961875 C28.369,12.29 29.035,11.616875 30.11,11.45875 C30.828,11.353125 47.816,8.90375 59.567,11.496875 C69.697,13.730625 82.033,15.4825 96.73,11.5275 C97.747,11.25375 98.922,11.546875 99.358,12.18125 C99.795,12.815625 99.327,13.550625 98.312,13.82375 C91.371,15.69125 84.939,16.393125 78.997,16.39375" id="Fill-194" fill="#000105"></path>
                <path d="M145.95,16.39375 C138.226,16.39375 131.326,15.208125 125.189,13.854375 C114.551,11.5075 98.144,13.868125 97.979,13.8925 C96.903,14.0525 95.828,13.633125 95.575,12.96125 C95.322,12.289375 95.988,11.616875 97.064,11.45875 C97.781,11.35375 114.769,8.904375 126.52,11.496875 C136.649,13.730625 148.985,15.4825 163.683,11.5275 C164.698,11.25375 165.875,11.546875 166.311,12.18125 C166.748,12.815625 166.279,13.550625 165.265,13.82375 C158.323,15.69125 151.892,16.393125 145.95,16.39375" id="Fill-195" fill="#000105"></path>
                <path d="M212.902,16.39375 C205.179,16.39375 198.279,15.208125 192.142,13.854375 C181.484,11.50375 165.097,13.868125 164.932,13.8925 C163.859,14.05 162.78,13.63375 162.527,12.961875 C162.274,12.29 162.941,11.616875 164.016,11.45875 C164.733,11.353125 181.721,8.90375 193.473,11.496875 C203.601,13.73 215.937,15.4825 230.636,11.5275 C231.652,11.25375 232.827,11.546875 233.264,12.18125 C233.701,12.815625 233.232,13.550625 232.218,13.82375 C225.276,15.69125 218.845,16.393125 212.902,16.39375" id="Fill-196" fill="#000105"></path>
                <path d="M279.855,16.39375 C272.132,16.39375 265.232,15.208125 259.095,13.854375 C248.457,11.508125 232.048,13.8675 231.884,13.8925 C230.806,14.0525 229.733,13.633125 229.48,12.96125 C229.228,12.289375 229.894,11.616875 230.969,11.45875 C231.686,11.353125 248.672,8.90375 260.427,11.496875 C270.554,13.73 282.89,15.4825 297.589,11.5275 C298.603,11.253125 299.779,11.546875 300.217,12.18125 C300.653,12.815625 300.186,13.550625 299.171,13.82375 C292.229,15.69125 285.798,16.393125 279.855,16.39375" id="Fill-197" fill="#000105"></path>
                <path d="M44.727,14.6 C36.318,14.6 28.836,13.520625 28.365,13.451875 C27.29,13.29375 26.624,12.62125 26.876,11.949375 C27.13,11.2775 28.204,10.860625 29.281,11.018125 C29.445,11.043125 45.853,13.401875 56.491,11.05625 C67.348,8.660625 80.6,6.7925 96.566,11.086875 C97.581,11.359375 98.05,12.095 97.613,12.729375 C97.176,13.363125 96.001,13.658125 94.985,13.383125 C80.285,9.429375 67.95,11.179375 57.822,13.41375 C53.785,14.30375 49.129,14.6 44.727,14.6" id="Fill-198" fill="#000105"></path>
                <path d="M111.68,14.6 C103.271,14.6 95.789,13.520625 95.318,13.451875 C94.243,13.29375 93.577,12.62125 93.829,11.949375 C94.082,11.2775 95.158,10.860625 96.233,11.018125 C96.397,11.043125 112.807,13.401875 123.444,11.05625 C134.301,8.660625 147.554,6.7925 163.52,11.086875 C164.534,11.359375 165.003,12.095 164.566,12.729375 C164.13,13.363125 162.953,13.658125 161.938,13.383125 C147.239,9.429375 134.903,11.179375 124.775,13.41375 C120.738,14.30375 116.082,14.6 111.68,14.6" id="Fill-199" fill="#000105"></path>
                <path d="M178.633,14.6 C170.224,14.6 162.742,13.520625 162.271,13.451875 C161.196,13.29375 160.53,12.62125 160.782,11.949375 C161.036,11.2775 162.112,10.860625 163.187,11.018125 C163.351,11.043125 179.759,13.401875 190.396,11.05625 C201.253,8.660625 214.507,6.7925 230.472,11.086875 C231.487,11.359375 231.956,12.095 231.519,12.729375 C231.083,13.363125 229.906,13.658125 228.891,13.383125 C214.192,9.429375 201.856,11.179375 191.728,13.41375 C187.69,14.30375 183.035,14.6 178.633,14.6" id="Fill-200" fill="#000105"></path>
                <path d="M245.586,14.6 C237.176,14.6 229.694,13.520625 229.224,13.451875 C228.148,13.29375 227.482,12.62125 227.735,11.949375 C227.988,11.2775 229.063,10.860625 230.139,11.018125 C230.303,11.043125 246.714,13.401875 257.349,11.05625 C268.209,8.660625 281.461,6.7925 297.426,11.086875 C298.44,11.359375 298.908,12.095 298.472,12.729375 C298.035,13.363125 296.857,13.656875 295.844,13.383125 C281.146,9.429375 268.81,11.179375 258.681,13.41375 C254.644,14.30375 249.987,14.6 245.586,14.6" id="Fill-201" fill="#000105"></path>
                <path d="M345.203,16.39375 C337.479,16.39375 330.579,15.208125 324.441,13.854375 C313.805,11.50875 297.396,13.8675 297.231,13.8925 C296.156,14.050625 295.08,13.633125 294.828,12.96125 C294.575,12.289375 295.241,11.616875 296.316,11.45875 C297.034,11.35375 314.023,8.905 325.773,11.496875 C335.901,13.73 348.237,15.48125 362.937,11.5275 C363.95,11.253125 365.127,11.546875 365.564,12.18125 C366.001,12.815625 365.533,13.550625 364.519,13.82375 C357.577,15.69125 351.146,16.393125 345.203,16.39375" id="Fill-202" fill="#000105"></path>
                <path d="M412.155,16.39375 C404.432,16.39375 397.532,15.208125 391.395,13.854375 C380.757,11.50875 364.351,13.868125 364.185,13.8925 C363.111,14.050625 362.032,13.633125 361.781,12.96125 C361.528,12.289375 362.194,11.616875 363.27,11.45875 C363.987,11.35375 380.976,8.905 392.727,11.496875 C402.853,13.73 415.189,15.4825 429.889,11.5275 C430.903,11.253125 432.079,11.546875 432.517,12.18125 C432.953,12.815625 432.485,13.550625 431.471,13.82375 C424.528,15.69125 418.098,16.393125 412.155,16.39375" id="Fill-203" fill="#000105"></path>
                <path d="M479.108,16.39375 C471.385,16.39375 464.485,15.208125 458.348,13.854375 C447.71,11.5075 431.302,13.8675 431.137,13.8925 C430.062,14.050625 428.985,13.633125 428.733,12.96125 C428.48,12.289375 429.146,11.616875 430.222,11.45875 C430.939,11.35375 447.928,8.905 459.68,11.496875 C469.806,13.73 482.143,15.4825 496.842,11.5275 C497.855,11.253125 499.032,11.546875 499.47,12.18125 C499.906,12.815625 499.438,13.550625 498.424,13.82375 C491.481,15.69125 485.051,16.393125 479.108,16.39375" id="Fill-204" fill="#000105"></path>
                <path d="M310.934,14.6 C302.524,14.6 295.042,13.520625 294.571,13.451875 C293.496,13.29375 292.83,12.62125 293.083,11.949375 C293.335,11.2775 294.412,10.860625 295.486,11.018125 C295.651,11.0425 312.061,13.401875 322.696,11.05625 C333.555,8.660625 346.808,6.7925 362.772,11.086875 C363.787,11.359375 364.255,12.095 363.818,12.729375 C363.382,13.363125 362.205,13.656875 361.19,13.383125 C346.489,9.429375 334.155,11.179375 324.028,13.41375 C319.991,14.30375 315.335,14.6 310.934,14.6" id="Fill-205" fill="#000105"></path>
                <path d="M377.886,14.6 C369.477,14.6 361.994,13.520625 361.523,13.451875 C360.448,13.29375 359.782,12.62125 360.035,11.949375 C360.287,11.2775 361.367,10.860625 362.438,11.018125 C362.604,11.0425 379.011,13.401875 389.649,11.05625 C400.508,8.660625 413.761,6.7925 429.726,11.086875 C430.74,11.359375 431.208,12.095 430.771,12.729375 C430.336,13.363125 429.157,13.656875 428.144,13.383125 C413.442,9.429375 401.108,11.179375 390.981,13.41375 C386.943,14.30375 382.287,14.6 377.886,14.6" id="Fill-206" fill="#000105"></path>
                <g id="Group-212" transform="translate(0.000000, 8.089375)">
                    <mask id="mask-2" fill="white">
                        <use xlink:href="#path-1"></use>
                    </mask>
                    <g id="Clip-208"></g>
                    <path d="M444.839,6.510625 C436.43,6.510625 428.947,5.43125 428.477,5.3625 C427.401,5.204375 426.735,4.531875 426.988,3.86 C427.24,3.188125 428.318,2.77125 429.392,2.92875 C429.557,2.953125 445.965,5.3125 456.602,2.966875 C467.462,0.57125 480.714,-1.296875 496.679,2.9975 C497.693,3.27 498.161,4.005625 497.725,4.64 C497.289,5.27375 496.11,5.5675 495.097,5.29375 C480.399,1.34 468.062,3.09 457.934,5.324375 C453.896,6.214375 449.24,6.510625 444.839,6.510625" id="Fill-207" fill="#000105" mask="url(#mask-2)"></path>
                    <path d="M500.37,5.918125 C500.268,5.918125 500.164,5.913125 500.06,5.903125 C498.342,5.73625 496.833,5.56 495.448,5.365 C494.37,5.213125 493.693,4.544375 493.937,3.870625 C494.18,3.196875 495.253,2.775625 496.327,2.92625 C497.624,3.10875 499.046,3.274375 500.675,3.4325 C501.766,3.53875 502.513,4.178125 502.344,4.86 C502.189,5.4775 501.339,5.918125 500.37,5.918125" id="Fill-209" fill="#000105" mask="url(#mask-2)"></path>
                    <path d="M13.048,8.179375 C6.682,8.179375 0.051,7.4475 -6.807,5.98375 C-7.853,5.76125 -8.41,5.05 -8.053,4.396875 C-7.696,3.74375 -6.563,3.394375 -5.514,3.618125 C7.614,6.42 19.791,6.359375 30.681,3.4375 C31.697,3.165 32.873,3.45875 33.308,4.093125 C33.744,4.726875 33.274,5.4625 32.259,5.735 C26.186,7.364375 19.765,8.179375 13.048,8.179375" id="Fill-210" fill="#000105" mask="url(#mask-2)"></path>
                    <path d="M29.724,5.39625 C29.46,5.39625 29.191,5.363125 28.934,5.29375 C18.479,2.48 6.958,2.284375 -5.305,4.71125 C-6.359,4.9225 -7.482,4.555625 -7.816,3.896875 C-8.149,3.239375 -7.566,2.536875 -6.513,2.32875 C6.692,-0.285625 19.15,-0.06125 30.516,2.9975 C31.53,3.27 31.998,4.005625 31.561,4.64 C31.236,5.113125 30.498,5.395625 29.724,5.39625" id="Fill-211" fill="#000105" mask="url(#mask-2)"></path>
                </g>
                <path d="M171.707,6.428125 C172.703,6.428125 173.565,6.891875 173.69,7.525625 L175.516,16.810625 C175.651,17.495625 174.872,18.119375 173.775,18.20375 C172.684,18.290625 171.681,17.800625 171.546,17.115625 L169.72,7.830625 C169.585,7.145 170.365,6.52125 171.461,6.436875 C171.544,6.43125 171.626,6.428125 171.707,6.428125" id="Fill-213" fill="#000105"></path>
                <path d="M164.443,6.428125 C165.439,6.428125 166.301,6.891875 166.425,7.525625 L168.251,16.810625 C168.386,17.495625 167.606,18.119375 166.51,18.20375 C165.407,18.288125 164.416,17.800625 164.281,17.115625 L162.456,7.830625 C162.321,7.145 163.1,6.52125 164.196,6.436875 C164.279,6.43125 164.362,6.428125 164.443,6.428125" id="Fill-214" fill="#000105"></path>
                <path d="M160.733,6.428125 C161.729,6.428125 162.591,6.891875 162.715,7.525625 L164.541,16.810625 C164.676,17.495625 163.896,18.119375 162.8,18.20375 C161.695,18.288125 160.706,17.800625 160.571,17.115625 L158.746,7.830625 C158.611,7.145 159.39,6.52125 160.486,6.436875 C160.569,6.43125 160.652,6.428125 160.733,6.428125" id="Fill-215" fill="#000105"></path>
                <path d="M168.187,6.103125 C169.184,6.103125 170.045,6.566875 170.17,7.200625 L171.996,16.485625 C172.13,17.170625 171.351,17.794375 170.255,17.87875 C169.151,17.96375 168.16,17.475 168.026,16.790625 L166.2,7.505625 C166.065,6.820625 166.845,6.196875 167.941,6.1125 C168.024,6.10625 168.106,6.103125 168.187,6.103125" id="Fill-216" fill="#000105"></path>
                <polyline id="Fill-217" fill="#000105" points="160.295 14.22125 162.992 15.043125 159.726 19.2275 154.076 22.19 160.295 14.22125"></polyline>
                <polyline id="Fill-218" fill="#000105" points="166.185 9.0275 163.709 10.086875 155.698 2.769375 160.421 3.8675 166.185 9.0275"></polyline>
                <polyline id="Fill-219" fill="#000105" points="173.018 15.43 181.113 24.605625 175.752 22.19 170.392 16.335 173.018 15.43"></polyline>
                <polyline id="Fill-220" fill="#000105" points="172.011 3.559375 177.488 1.0175 170.414 9.578125 167.748 8.7175 172.011 3.559375"></polyline>
                <path d="M443.572,6.428125 C444.567,6.428125 445.429,6.891875 445.554,7.525625 L447.38,16.810625 C447.515,17.495625 446.736,18.119375 445.639,18.20375 C444.548,18.290625 443.545,17.800625 443.41,17.115625 L441.584,7.830625 C441.449,7.145 442.229,6.52125 443.325,6.436875 C443.408,6.43125 443.49,6.428125 443.572,6.428125" id="Fill-221" fill="#000105"></path>
                <path d="M436.307,6.428125 C437.303,6.428125 438.165,6.891875 438.289,7.525625 L440.115,16.810625 C440.25,17.495625 439.47,18.119375 438.374,18.20375 C437.271,18.288125 436.28,17.800625 436.145,17.115625 L434.32,7.830625 C434.185,7.145 434.964,6.52125 436.06,6.436875 C436.143,6.43125 436.226,6.428125 436.307,6.428125" id="Fill-222" fill="#000105"></path>
                <path d="M432.597,6.428125 C433.593,6.428125 434.455,6.891875 434.579,7.525625 L436.405,16.810625 C436.54,17.495625 435.76,18.119375 434.664,18.20375 C433.559,18.288125 432.57,17.800625 432.435,17.115625 L430.61,7.830625 C430.475,7.145 431.254,6.52125 432.35,6.436875 C432.433,6.43125 432.516,6.428125 432.597,6.428125" id="Fill-223" fill="#000105"></path>
                <path d="M440.052,6.103125 C441.048,6.103125 441.909,6.566875 442.034,7.200625 L443.86,16.485625 C443.994,17.170625 443.215,17.794375 442.119,17.87875 C441.015,17.96375 440.024,17.475 439.89,16.790625 L438.064,7.505625 C437.929,6.820625 438.709,6.196875 439.805,6.1125 C439.888,6.10625 439.97,6.103125 440.052,6.103125" id="Fill-224" fill="#000105"></path>
                <polyline id="Fill-225" fill="#000105" points="432.159 14.22125 434.856 15.043125 431.59 19.2275 425.94 22.19 432.159 14.22125"></polyline>
                <polyline id="Fill-226" fill="#000105" points="438.027 14.176875 441.027 14.190625 440.925 23.05625 438.049 20.47 438.027 14.176875"></polyline>
                <polyline id="Fill-227" fill="#000105" points="444.883 15.43 452.977 24.605625 447.616 22.19 442.256 16.335 444.883 15.43"></polyline>
                <polyline id="Fill-228" fill="#000105" points="443.875 3.559375 449.352 1.0175 442.278 9.578125 439.613 8.7175 443.875 3.559375"></polyline>
                <path d="M59.248,6.428125 C60.243,6.428125 61.105,6.891875 61.23,7.525625 L63.056,16.810625 C63.191,17.495625 62.412,18.119375 61.315,18.20375 C60.224,18.290625 59.221,17.800625 59.086,17.115625 L57.26,7.830625 C57.125,7.145 57.905,6.52125 59.001,6.436875 C59.084,6.43125 59.166,6.428125 59.248,6.428125" id="Fill-229" fill="#000105"></path>
                <path d="M51.983,6.428125 C52.979,6.428125 53.841,6.891875 53.965,7.525625 L55.791,16.810625 C55.926,17.495625 55.146,18.119375 54.05,18.20375 C52.947,18.288125 51.956,17.800625 51.821,17.115625 L49.996,7.830625 C49.861,7.145 50.64,6.52125 51.736,6.436875 C51.819,6.43125 51.902,6.428125 51.983,6.428125" id="Fill-230" fill="#000105"></path>
                <path d="M48.273,6.428125 C49.269,6.428125 50.131,6.891875 50.255,7.525625 L52.081,16.810625 C52.216,17.495625 51.437,18.119375 50.34,18.20375 C49.235,18.288125 48.246,17.800625 48.111,17.115625 L46.286,7.830625 C46.151,7.145 46.93,6.52125 48.026,6.436875 C48.109,6.43125 48.192,6.428125 48.273,6.428125" id="Fill-231" fill="#000105"></path>
                <path d="M55.728,6.103125 C56.724,6.103125 57.585,6.566875 57.71,7.200625 L59.536,16.485625 C59.67,17.170625 58.891,17.794375 57.795,17.87875 C56.691,17.96375 55.7,17.475 55.566,16.790625 L53.74,7.505625 C53.605,6.820625 54.385,6.196875 55.481,6.1125 C55.564,6.10625 55.646,6.103125 55.728,6.103125" id="Fill-232" fill="#000105"></path>
                <polyline id="Fill-233" fill="#000105" points="47.835 14.22125 50.532 15.043125 47.266 19.2275 41.616 22.19 47.835 14.22125"></polyline>
                <polyline id="Fill-234" fill="#000105" points="53.703 14.176875 56.703 14.190625 56.601 23.05625 53.725 20.47 53.703 14.176875"></polyline>
                <polyline id="Fill-235" fill="#000105" points="51.531 8.43 48.573 8.7425 46.21 1.33226763e-14 49.761 2.234375 51.531 8.43"></polyline>
                <polyline id="Fill-236" fill="#000105" points="60.559 15.43 68.653 24.605625 63.292 22.19 57.932 16.335 60.559 15.43"></polyline>
                <polyline id="Fill-237" fill="#000105" points="59.551 3.559375 65.028 1.0175 57.954 9.578125 55.289 8.7175 59.551 3.559375"></polyline>
                <path d="M298.261,19.2675 C297.266,19.285625 296.382,18.8375 296.228,18.206875 L293.971,8.95875 C293.804,8.27625 294.554,7.63875 295.646,7.535 C296.733,7.4275 297.758,7.899375 297.924,8.581875 L300.182,17.829375 C300.349,18.5125 299.599,19.15 298.507,19.25375 C298.424,19.261875 298.342,19.26625 298.261,19.2675" id="Fill-238" fill="#000105"></path>
                <path d="M305.522,19.135625 C304.527,19.15375 303.644,18.705625 303.49,18.075 L301.233,8.826875 C301.066,8.144375 301.816,7.506875 302.908,7.4025 C304.006,7.298125 305.02,7.7675 305.187,8.449375 L307.444,17.6975 C307.61,18.38 306.86,19.018125 305.768,19.121875 C305.686,19.129375 305.603,19.134375 305.522,19.135625" id="Fill-239" fill="#000105"></path>
                <path d="M309.231,19.068125 C308.235,19.08625 307.352,18.638125 307.198,18.0075 L304.941,8.759375 C304.774,8.076875 305.524,7.439375 306.616,7.335 C307.717,7.230625 308.728,7.7 308.895,8.381875 L311.152,17.63 C311.319,18.3125 310.569,18.950625 309.477,19.054375 C309.394,19.061875 309.312,19.066875 309.231,19.068125" id="Fill-240" fill="#000105"></path>
                <path d="M301.794,19.528125 C300.799,19.54625 299.916,19.098125 299.762,18.4675 L297.505,9.22 C297.338,8.536875 298.088,7.9 299.18,7.795625 C300.279,7.690625 301.293,8.160625 301.459,8.8425 L303.716,18.09 C303.882,18.7725 303.132,19.410625 302.04,19.514375 C301.958,19.5225 301.875,19.526875 301.794,19.528125" id="Fill-241" fill="#000105"></path>
                <polyline id="Fill-242" fill="#000105" points="309.305 11.27 306.572 10.4975 309.641 6.255625 315.151 3.191875 309.305 11.27"></polyline>
                <polyline id="Fill-243" fill="#000105" points="306.909 15.855625 309.648 15.089375 315.441 23.1825 311.108 21.575625 306.909 15.855625"></polyline>
                <polyline id="Fill-244" fill="#000105" points="296.531 10.29375 288.014 1.26875 293.484 3.585625 299.115 9.34125 296.531 10.29375"></polyline>
                <polyline id="Fill-245" fill="#000105" points="298.091 22.140625 292.735 24.780625 299.407 16.095625 302.112 16.9075 298.091 22.140625"></polyline>
                <path d="M129.674,21.481875 C129.61,21.441875 129.32,21.5525 129.44,21.62875 C129.506,21.66875 129.795,21.558125 129.674,21.481875" id="Fill-367" fill="#E6E6E0"></path>
                <path d="M96.691,20.165625 C96.656,20.319375 96.873,20.54375 96.926,20.311875 C96.96,20.15875 96.744,19.934375 96.691,20.165625" id="Fill-368" fill="#E6E6E0"></path>
                <path d="M53.182,19.141875 C53.133,19.5625 53.241,19.885 53.65,20.02 C53.992,19.74625 54.933,19.8475 54.82,19.28875 C54.318,19.174375 53.512,18.933125 53.182,19.141875" id="Fill-369" fill="#E6E6E0"></path>
                <path d="M81.253,19.434375 C81.097,19.434375 80.941,19.434375 80.785,19.434375 C80.643,19.4425 80.509,19.45625 80.551,19.580625 C80.886,19.615625 80.946,19.821875 81.253,19.87375 C81.253,19.7275 81.253,19.580625 81.253,19.434375" id="Fill-370" fill="#E6E6E0"></path>
                <path d="M117.745,17.9725 C117.784,18.19125 117.661,18.511875 117.979,18.5575 C118.283,18.3625 118.287,18.013125 117.745,17.9725" id="Fill-371" fill="#E6E6E0"></path>
                <path d="M95.756,17.9725 C95.758,18.12 96.166,18.15625 96.223,17.9725 C96.174,17.795625 95.964,17.8825 95.756,17.9725" id="Fill-372" fill="#E6E6E0"></path>
                <path d="M121.488,16.07125 C121.451,15.89875 121.527,15.655625 121.253,15.631875 C121.24,15.72125 121.218,15.805 121.019,15.778125 C121.046,15.956875 121.089,16.125 121.488,16.07125" id="Fill-373" fill="#E6E6E0"></path>
                <path d="M8.504,14.754375 C9.12,14.79875 9.271,14.551875 9.204,14.169375 C8.588,14.125625 8.437,14.371875 8.504,14.754375" id="Fill-374" fill="#E6E6E0"></path>
                <path d="M46.633,12.706875 C45.845,12.263125 45.923,13.248125 46.633,12.706875" id="Fill-375" fill="#E6E6E0"></path>
                <path d="M132.012,11.829375 C132.012,11.926875 132.012,12.025 132.012,12.121875 C132.445,12.608125 133.154,11.683125 132.012,11.829375" id="Fill-376" fill="#E6E6E0"></path>
                <path d="M64.177,10.3675 C63.854,10.555625 63.946,11.0025 63.943,11.39125 C64.696,11.325625 65.301,11.1675 65.113,10.51375 C64.67,10.54625 64.596,10.34875 64.177,10.3675" id="Fill-377" fill="#E6E6E0"></path>
                <path d="M49.44,10.805625 C49.14,11.3825 50.079,11.185625 50.376,11.39125 C50.484,10.933125 50.171,10.738125 49.44,10.805625" id="Fill-378" fill="#E6E6E0"></path>
                <path d="M52.715,10.805625 C52.65,10.765625 52.36,10.87625 52.481,10.951875 C52.545,10.9925 52.836,10.88125 52.715,10.805625" id="Fill-379" fill="#E6E6E0"></path>
                <path d="M117.042,10.51375 C117.042,10.594375 117.232,10.679375 117.276,10.51375 C117.278,10.431875 117.088,10.3475 117.042,10.51375" id="Fill-380" fill="#E6E6E0"></path>
                <path d="M81.954,8.758125 C81.954,8.855625 81.954,8.953125 81.954,9.050625 C82.387,9.536875 83.095,8.611875 81.954,8.758125" id="Fill-381" fill="#E6E6E0"></path>
                <path d="M109.09,7.149375 C109.655,6.65875 108.305,7.503125 109.09,7.149375" id="Fill-382" fill="#E6E6E0"></path>
                <path d="M70.492,7.149375 C70.506,7.06 70.528,6.97625 70.726,7.003125 C70.726,6.905625 70.726,6.80875 70.726,6.710625 C70.151,6.48375 70.039,7.2075 70.492,7.149375" id="Fill-383" fill="#E6E6E0"></path>
                <path d="M88.738,6.710625 C88.741,6.858125 89.148,6.895 89.206,6.710625 C88.943,6.725625 88.843,6.498125 88.738,6.710625" id="Fill-384" fill="#E6E6E0"></path>
                <path d="M77.276,6.125625 C77.211,6.085625 76.922,6.19625 77.042,6.271875 C77.107,6.3125 77.396,6.20125 77.276,6.125625" id="Fill-385" fill="#E6E6E0"></path>
                <path d="M101.37,5.833125 C101.552,5.800625 101.832,5.829375 101.839,5.6875 C101.656,5.72 101.376,5.69125 101.37,5.833125" id="Fill-386" fill="#E6E6E0"></path>
                <path d="M77.744,5.248125 C77.695,5.07125 77.484,5.158125 77.276,5.248125 C77.279,5.395625 77.686,5.431875 77.744,5.248125" id="Fill-387" fill="#E6E6E0"></path>
                <path d="M58.796,4.078125 C58.86,4.11875 59.151,4.0075 59.03,3.9325 C58.965,3.891875 58.675,4.003125 58.796,4.078125" id="Fill-388" fill="#E6E6E0"></path>
                <path d="M79.382,3.493125 C79.446,3.53375 79.735,3.4225 79.614,3.3475 C79.55,3.306875 79.261,3.4175 79.382,3.493125" id="Fill-389" fill="#E6E6E0"></path>
                <path d="M7.334,3.493125 C8.107,3.343125 8.713,3.088125 8.737,2.469375 C7.848,2.5475 7.623,3.04 7.334,3.493125" id="Fill-390" fill="#E6E6E0"></path>
                <path d="M114.002,2.469375 C114.567,1.97875 113.217,2.823125 114.002,2.469375" id="Fill-391" fill="#E6E6E0"></path>
                <path d="M128.74,2.469375 C128.803,2.51 129.094,2.39875 128.973,2.323125 C128.908,2.283125 128.618,2.39375 128.74,2.469375" id="Fill-392" fill="#E6E6E0"></path>
                <path d="M127.569,2.323125 C127.75,2.290625 128.031,2.319375 128.036,2.176875 C127.855,2.21 127.576,2.18125 127.569,2.323125" id="Fill-393" fill="#E6E6E0"></path>
                <path d="M95.989,2.323125 C96.003,2.234375 96.025,2.15 96.223,2.176875 C96.223,2.079375 96.223,1.981875 96.223,1.884375 C95.648,1.6575 95.535,2.38125 95.989,2.323125" id="Fill-394" fill="#E6E6E0"></path>
                <path d="M36.573,1.591875 C36.576,1.739375 36.984,1.77625 37.042,1.591875 C36.779,1.606875 36.678,1.379375 36.573,1.591875" id="Fill-395" fill="#E6E6E0"></path>
                <path d="M63.709,1.445625 C64.275,0.955 62.924,1.799375 63.709,1.445625" id="Fill-396" fill="#E6E6E0"></path>
                <path d="M96.691,20.165625 C96.656,20.319375 96.873,20.54375 96.926,20.311875 C96.96,20.15875 96.744,19.934375 96.691,20.165625" id="Fill-1146" fill="#E6E6E0"></path>
                <path d="M53.182,19.141875 C53.133,19.5625 53.241,19.885 53.65,20.02 C53.992,19.74625 54.933,19.8475 54.82,19.28875 C54.318,19.174375 53.512,18.933125 53.182,19.141875" id="Fill-1147" fill="#E6E6E0"></path>
                <path d="M81.253,19.434375 C81.097,19.434375 80.941,19.434375 80.785,19.434375 C80.643,19.4425 80.509,19.45625 80.551,19.580625 C80.886,19.615625 80.946,19.821875 81.253,19.87375 C81.253,19.7275 81.253,19.580625 81.253,19.434375" id="Fill-1148" fill="#E6E6E0"></path>
                <path d="M95.756,17.9725 C95.758,18.12 96.166,18.15625 96.223,17.9725 C96.174,17.795625 95.964,17.8825 95.756,17.9725" id="Fill-1149" fill="#E6E6E0"></path>
                <path d="M8.504,14.754375 C9.12,14.79875 9.271,14.551875 9.204,14.169375 C8.588,14.125625 8.437,14.371875 8.504,14.754375" id="Fill-1150" fill="#E6E6E0"></path>
                <path d="M46.633,12.706875 C45.845,12.263125 45.923,13.248125 46.633,12.706875" id="Fill-1151" fill="#E6E6E0"></path>
                <path d="M64.177,10.3675 C63.854,10.555625 63.946,11.0025 63.943,11.39125 C64.696,11.325625 65.301,11.1675 65.113,10.51375 C64.67,10.54625 64.596,10.34875 64.177,10.3675" id="Fill-1152" fill="#E6E6E0"></path>
                <path d="M49.44,10.805625 C49.14,11.3825 50.079,11.185625 50.376,11.39125 C50.484,10.933125 50.171,10.738125 49.44,10.805625" id="Fill-1153" fill="#E6E6E0"></path>
                <path d="M52.715,10.805625 C52.65,10.765625 52.36,10.87625 52.481,10.951875 C52.545,10.9925 52.836,10.88125 52.715,10.805625" id="Fill-1154" fill="#E6E6E0"></path>
                <path d="M81.954,8.758125 C81.954,8.855625 81.954,8.953125 81.954,9.050625 C82.387,9.536875 83.095,8.611875 81.954,8.758125" id="Fill-1155" fill="#E6E6E0"></path>
                <path d="M70.492,7.149375 C70.506,7.06 70.528,6.97625 70.726,7.003125 C70.726,6.905625 70.726,6.80875 70.726,6.710625 C70.151,6.48375 70.039,7.2075 70.492,7.149375" id="Fill-1156" fill="#E6E6E0"></path>
                <path d="M88.738,6.710625 C88.741,6.858125 89.148,6.895 89.206,6.710625 C88.943,6.725625 88.843,6.498125 88.738,6.710625" id="Fill-1157" fill="#E6E6E0"></path>
                <path d="M77.276,6.125625 C77.211,6.085625 76.922,6.19625 77.042,6.271875 C77.107,6.3125 77.396,6.20125 77.276,6.125625" id="Fill-1158" fill="#E6E6E0"></path>
                <path d="M101.37,5.833125 C101.552,5.800625 101.832,5.829375 101.839,5.6875 C101.656,5.72 101.376,5.69125 101.37,5.833125" id="Fill-1159" fill="#E6E6E0"></path>
                <path d="M77.744,5.248125 C77.695,5.07125 77.484,5.158125 77.276,5.248125 C77.279,5.395625 77.686,5.431875 77.744,5.248125" id="Fill-1160" fill="#E6E6E0"></path>
                <path d="M58.796,4.078125 C58.86,4.11875 59.151,4.0075 59.03,3.9325 C58.965,3.891875 58.675,4.003125 58.796,4.078125" id="Fill-1161" fill="#E6E6E0"></path>
                <path d="M79.382,3.493125 C79.446,3.53375 79.735,3.4225 79.614,3.3475 C79.55,3.306875 79.261,3.4175 79.382,3.493125" id="Fill-1162" fill="#E6E6E0"></path>
                <path d="M7.334,3.493125 C8.107,3.343125 8.713,3.088125 8.737,2.469375 C7.848,2.5475 7.623,3.04 7.334,3.493125" id="Fill-1163" fill="#E6E6E0"></path>
                <path d="M95.989,2.323125 C96.003,2.234375 96.025,2.15 96.223,2.176875 C96.223,2.079375 96.223,1.981875 96.223,1.884375 C95.648,1.6575 95.535,2.38125 95.989,2.323125" id="Fill-1164" fill="#E6E6E0"></path>
                <path d="M36.573,1.591875 C36.576,1.739375 36.984,1.77625 37.042,1.591875 C36.779,1.606875 36.678,1.379375 36.573,1.591875" id="Fill-1165" fill="#E6E6E0"></path>
                <path d="M63.709,1.445625 C64.275,0.955 62.924,1.799375 63.709,1.445625" id="Fill-1166" fill="#E6E6E0"></path>
            </g>
        </g>
    </g>
</svg>