<?xml version="1.0" encoding="UTF-8"?>
<svg width="500px" height="50px" viewBox="0 0 500 50" version="1.1" xmlns="http://www.w3.org/2000/svg" xmlns:xlink="http://www.w3.org/1999/xlink">
    <!-- Generator: Sketch 63.1 (92452) - https://sketch.com -->
    <title>Group</title>
    <desc>Created with Sketch.</desc>
    <defs>
        <polygon id="path-1" points="0.06 0.684487453 500 0.684487453 500 13.087 0.06 13.087"></polygon>
    </defs>
    <g id="Page-1" stroke="none" stroke-width="1" fill="none" fill-rule="evenodd">
        <g id="217663-P1Q9FR-252" transform="translate(0.000000, -367.000000)">
            <g id="Group" transform="translate(0.000000, 367.477000)">
                <path d="M78.997,27.81 C71.273,27.81 64.373,25.913 58.236,23.747 C47.578,19.986 31.19,23.769 31.026,23.808 C29.951,24.061 28.874,23.393 28.622,22.319 C28.369,21.244 29.035,20.167 30.11,19.914 C30.828,19.745 47.816,15.826 59.567,19.975 C69.697,23.549 82.033,26.352 96.73,20.024 C97.747,19.586 98.922,20.055 99.358,21.07 C99.795,22.085 99.327,23.261 98.312,23.698 C91.371,26.686 84.939,27.809 78.997,27.81" id="Fill-194" fill="#000105"></path>
                <path d="M145.95,27.81 C138.226,27.81 131.326,25.913 125.189,23.747 C114.551,19.992 98.144,23.769 97.979,23.808 C96.903,24.064 95.828,23.393 95.575,22.318 C95.322,21.243 95.988,20.167 97.064,19.914 C97.781,19.746 114.769,15.827 126.52,19.975 C136.649,23.549 148.985,26.352 163.683,20.024 C164.698,19.586 165.875,20.055 166.311,21.07 C166.748,22.085 166.279,23.261 165.265,23.698 C158.323,26.686 151.892,27.809 145.95,27.81" id="Fill-195" fill="#000105"></path>
                <path d="M212.902,27.81 C205.179,27.81 198.279,25.913 192.142,23.747 C181.484,19.986 165.097,23.769 164.932,23.808 C163.859,24.06 162.78,23.394 162.527,22.319 C162.274,21.244 162.941,20.167 164.016,19.914 C164.733,19.745 181.721,15.826 193.473,19.975 C203.601,23.548 215.937,26.352 230.636,20.024 C231.652,19.586 232.827,20.055 233.264,21.07 C233.701,22.085 233.232,23.261 232.218,23.698 C225.276,26.686 218.845,27.809 212.902,27.81" id="Fill-196" fill="#000105"></path>
                <path d="M279.855,27.81 C272.132,27.81 265.232,25.913 259.095,23.747 C248.457,19.993 232.048,23.768 231.884,23.808 C230.806,24.064 229.733,23.393 229.48,22.318 C229.228,21.243 229.894,20.167 230.969,19.914 C231.686,19.745 248.672,15.826 260.427,19.975 C270.554,23.548 282.89,26.352 297.589,20.024 C298.603,19.585 299.779,20.055 300.217,21.07 C300.653,22.085 300.186,23.261 299.171,23.698 C292.229,26.686 285.798,27.809 279.855,27.81" id="Fill-197" fill="#000105"></path>
                <path d="M44.727,24.94 C36.318,24.94 28.836,23.213 28.365,23.103 C27.29,22.85 26.624,21.774 26.876,20.699 C27.13,19.624 28.204,18.957 29.281,19.209 C29.445,19.249 45.853,23.023 56.491,19.27 C67.348,15.437 80.6,12.448 96.566,19.319 C97.581,19.755 98.05,20.932 97.613,21.947 C97.176,22.961 96.001,23.433 94.985,22.993 C80.285,16.667 67.95,19.467 57.822,23.042 C53.785,24.466 49.129,24.94 44.727,24.94" id="Fill-198" fill="#000105"></path>
                <path d="M111.68,24.94 C103.271,24.94 95.789,23.213 95.318,23.103 C94.243,22.85 93.577,21.774 93.829,20.699 C94.082,19.624 95.158,18.957 96.233,19.209 C96.397,19.249 112.807,23.023 123.444,19.27 C134.301,15.437 147.554,12.448 163.52,19.319 C164.534,19.755 165.003,20.932 164.566,21.947 C164.13,22.961 162.953,23.433 161.938,22.993 C147.239,16.667 134.903,19.467 124.775,23.042 C120.738,24.466 116.082,24.94 111.68,24.94" id="Fill-199" fill="#000105"></path>
                <path d="M178.633,24.94 C170.224,24.94 162.742,23.213 162.271,23.103 C161.196,22.85 160.53,21.774 160.782,20.699 C161.036,19.624 162.112,18.957 163.187,19.209 C163.351,19.249 179.759,23.023 190.396,19.27 C201.253,15.437 214.507,12.448 230.472,19.319 C231.487,19.755 231.956,20.932 231.519,21.947 C231.083,22.961 229.906,23.433 228.891,22.993 C214.192,16.667 201.856,19.467 191.728,23.042 C187.69,24.466 183.035,24.94 178.633,24.94" id="Fill-200" fill="#000105"></path>
                <path d="M245.586,24.94 C237.176,24.94 229.694,23.213 229.224,23.103 C228.148,22.85 227.482,21.774 227.735,20.699 C227.988,19.624 229.063,18.957 230.139,19.209 C230.303,19.249 246.714,23.023 257.349,19.27 C268.209,15.437 281.461,12.448 297.426,19.319 C298.44,19.755 298.908,20.932 298.472,21.947 C298.035,22.961 296.857,23.431 295.844,22.993 C281.146,16.667 268.81,19.467 258.681,23.042 C254.644,24.466 249.987,24.94 245.586,24.94" id="Fill-201" fill="#000105"></path>
                <path d="M345.203,27.81 C337.479,27.81 330.579,25.913 324.441,23.747 C313.805,19.994 297.396,23.768 297.231,23.808 C296.156,24.061 295.08,23.393 294.828,22.318 C294.575,21.243 295.241,20.167 296.316,19.914 C297.034,19.746 314.023,15.828 325.773,19.975 C335.901,23.548 348.237,26.35 362.937,20.024 C363.95,19.585 365.127,20.055 365.564,21.07 C366.001,22.085 365.533,23.261 364.519,23.698 C357.577,26.686 351.146,27.809 345.203,27.81" id="Fill-202" fill="#000105"></path>
                <path d="M412.155,27.81 C404.432,27.81 397.532,25.913 391.395,23.747 C380.757,19.994 364.351,23.769 364.185,23.808 C363.111,24.061 362.032,23.393 361.781,22.318 C361.528,21.243 362.194,20.167 363.27,19.914 C363.987,19.746 380.976,15.828 392.727,19.975 C402.853,23.548 415.189,26.352 429.889,20.024 C430.903,19.585 432.079,20.055 432.517,21.07 C432.953,22.085 432.485,23.261 431.471,23.698 C424.528,26.686 418.098,27.809 412.155,27.81" id="Fill-203" fill="#000105"></path>
                <path d="M479.108,27.81 C471.385,27.81 464.485,25.913 458.348,23.747 C447.71,19.992 431.302,23.768 431.137,23.808 C430.062,24.061 428.985,23.393 428.733,22.318 C428.48,21.243 429.146,20.167 430.222,19.914 C430.939,19.746 447.928,15.828 459.68,19.975 C469.806,23.548 482.143,26.352 496.842,20.024 C497.855,19.585 499.032,20.055 499.47,21.07 C499.906,22.085 499.438,23.261 498.424,23.698 C491.481,26.686 485.051,27.809 479.108,27.81" id="Fill-204" fill="#000105"></path>
                <path d="M310.934,24.94 C302.524,24.94 295.042,23.213 294.571,23.103 C293.496,22.85 292.83,21.774 293.083,20.699 C293.335,19.624 294.412,18.957 295.486,19.209 C295.651,19.248 312.061,23.023 322.696,19.27 C333.555,15.437 346.808,12.448 362.772,19.319 C363.787,19.755 364.255,20.932 363.818,21.947 C363.382,22.961 362.205,23.431 361.19,22.993 C346.489,16.667 334.155,19.467 324.028,23.042 C319.991,24.466 315.335,24.94 310.934,24.94" id="Fill-205" fill="#000105"></path>
                <path d="M377.886,24.94 C369.477,24.94 361.994,23.213 361.523,23.103 C360.448,22.85 359.782,21.774 360.035,20.699 C360.287,19.624 361.367,18.957 362.438,19.209 C362.604,19.248 379.011,23.023 389.649,19.27 C400.508,15.437 413.761,12.448 429.726,19.319 C430.74,19.755 431.208,20.932 430.771,21.947 C430.336,22.961 429.157,23.431 428.144,22.993 C413.442,16.667 401.108,19.467 390.981,23.042 C386.943,24.466 382.287,24.94 377.886,24.94" id="Fill-206" fill="#000105"></path>
                <g id="Group-212" transform="translate(0.000000, 14.523000)">
                    <mask id="mask-2" fill="white">
                        <use xlink:href="#path-1"></use>
                    </mask>
                    <g id="Clip-208"></g>
                    <path d="M444.839,10.417 C436.43,10.417 428.947,8.69 428.477,8.58 C427.401,8.327 426.735,7.251 426.988,6.176 C427.24,5.101 428.318,4.434 429.392,4.686 C429.557,4.725 445.965,8.5 456.602,4.747 C467.462,0.914 480.714,-2.075 496.679,4.796 C497.693,5.232 498.161,6.409 497.725,7.424 C497.289,8.438 496.11,8.908 495.097,8.47 C480.399,2.144 468.062,4.944 457.934,8.519 C453.896,9.943 449.24,10.417 444.839,10.417" id="Fill-207" fill="#000105" mask="url(#mask-2)"></path>
                    <path d="M500.37,9.469 C500.268,9.469 500.164,9.461 500.06,9.445 C498.342,9.178 496.833,8.896 495.448,8.584 C494.37,8.341 493.693,7.271 493.937,6.193 C494.18,5.115 495.253,4.441 496.327,4.682 C497.624,4.974 499.046,5.239 500.675,5.492 C501.766,5.662 502.513,6.685 502.344,7.776 C502.189,8.764 501.339,9.469 500.37,9.469" id="Fill-209" fill="#000105" mask="url(#mask-2)"></path>
                    <path d="M13.048,13.087 C6.682,13.087 0.051,11.916 -6.807,9.574 C-7.853,9.218 -8.41,8.08 -8.053,7.035 C-7.696,5.99 -6.563,5.431 -5.514,5.789 C7.614,10.272 19.791,10.175 30.681,5.5 C31.697,5.064 32.873,5.534 33.308,6.549 C33.744,7.563 33.274,8.74 32.259,9.176 C26.186,11.783 19.765,13.087 13.048,13.087" id="Fill-210" fill="#000105" mask="url(#mask-2)"></path>
                    <path d="M29.724,8.634 C29.46,8.634 29.191,8.581 28.934,8.47 C18.479,3.968 6.958,3.655 -5.305,7.538 C-6.359,7.876 -7.482,7.289 -7.816,6.235 C-8.149,5.183 -7.566,4.059 -6.513,3.726 C6.692,-0.457 19.15,-0.098 30.516,4.796 C31.53,5.232 31.998,6.409 31.561,7.424 C31.236,8.181 30.498,8.633 29.724,8.634" id="Fill-211" fill="#000105" mask="url(#mask-2)"></path>
                </g>
                <path d="M171.707,11.865 C172.703,11.865 173.565,12.607 173.69,13.621 L175.516,28.477 C175.651,29.573 174.872,30.571 173.775,30.706 C172.684,30.845 171.681,30.061 171.546,28.965 L169.72,14.109 C169.585,13.012 170.365,12.014 171.461,11.879 C171.544,11.87 171.626,11.865 171.707,11.865" id="Fill-213" fill="#000105"></path>
                <path d="M164.443,11.865 C165.439,11.865 166.301,12.607 166.425,13.621 L168.251,28.477 C168.386,29.573 167.606,30.571 166.51,30.706 C165.407,30.841 164.416,30.061 164.281,28.965 L162.456,14.109 C162.321,13.012 163.1,12.014 164.196,11.879 C164.279,11.87 164.362,11.865 164.443,11.865" id="Fill-214" fill="#000105"></path>
                <path d="M160.733,11.865 C161.729,11.865 162.591,12.607 162.715,13.621 L164.541,28.477 C164.676,29.573 163.896,30.571 162.8,30.706 C161.695,30.841 160.706,30.061 160.571,28.965 L158.746,14.109 C158.611,13.012 159.39,12.014 160.486,11.879 C160.569,11.87 160.652,11.865 160.733,11.865" id="Fill-215" fill="#000105"></path>
                <path d="M168.187,11.345 C169.184,11.345 170.045,12.087 170.17,13.101 L171.996,27.957 C172.13,29.053 171.351,30.051 170.255,30.186 C169.151,30.322 168.16,29.54 168.026,28.445 L166.2,13.589 C166.065,12.493 166.845,11.495 167.941,11.36 C168.024,11.35 168.106,11.345 168.187,11.345" id="Fill-216" fill="#000105"></path>
                <polyline id="Fill-217" fill="#000105" points="160.295 24.334 162.992 25.649 159.726 32.344 154.076 37.084 160.295 24.334"></polyline>
                <polyline id="Fill-218" fill="#000105" points="166.185 16.024 163.709 17.719 155.698 6.011 160.421 7.768 166.185 16.024"></polyline>
                <polyline id="Fill-219" fill="#000105" points="173.018 26.268 181.113 40.949 175.752 37.084 170.392 27.716 173.018 26.268"></polyline>
                <polyline id="Fill-220" fill="#000105" points="172.011 7.275 177.488 3.208 170.414 16.905 167.748 15.528 172.011 7.275"></polyline>
                <path d="M443.572,11.865 C444.567,11.865 445.429,12.607 445.554,13.621 L447.38,28.477 C447.515,29.573 446.736,30.571 445.639,30.706 C444.548,30.845 443.545,30.061 443.41,28.965 L441.584,14.109 C441.449,13.012 442.229,12.014 443.325,11.879 C443.408,11.87 443.49,11.865 443.572,11.865" id="Fill-221" fill="#000105"></path>
                <path d="M436.307,11.865 C437.303,11.865 438.165,12.607 438.289,13.621 L440.115,28.477 C440.25,29.573 439.47,30.571 438.374,30.706 C437.271,30.841 436.28,30.061 436.145,28.965 L434.32,14.109 C434.185,13.012 434.964,12.014 436.06,11.879 C436.143,11.87 436.226,11.865 436.307,11.865" id="Fill-222" fill="#000105"></path>
                <path d="M432.597,11.865 C433.593,11.865 434.455,12.607 434.579,13.621 L436.405,28.477 C436.54,29.573 435.76,30.571 434.664,30.706 C433.559,30.841 432.57,30.061 432.435,28.965 L430.61,14.109 C430.475,13.012 431.254,12.014 432.35,11.879 C432.433,11.87 432.516,11.865 432.597,11.865" id="Fill-223" fill="#000105"></path>
                <path d="M440.052,11.345 C441.048,11.345 441.909,12.087 442.034,13.101 L443.86,27.957 C443.994,29.053 443.215,30.051 442.119,30.186 C441.015,30.322 440.024,29.54 439.89,28.445 L438.064,13.589 C437.929,12.493 438.709,11.495 439.805,11.36 C439.888,11.35 439.97,11.345 440.052,11.345" id="Fill-224" fill="#000105"></path>
                <polyline id="Fill-225" fill="#000105" points="432.159 24.334 434.856 25.649 431.59 32.344 425.94 37.084 432.159 24.334"></polyline>
                <polyline id="Fill-226" fill="#000105" points="438.027 24.263 441.027 24.285 440.925 38.47 438.049 34.332 438.027 24.263"></polyline>
                <polyline id="Fill-227" fill="#000105" points="444.883 26.268 452.977 40.949 447.616 37.084 442.256 27.716 444.883 26.268"></polyline>
                <polyline id="Fill-228" fill="#000105" points="443.875 7.275 449.352 3.208 442.278 16.905 439.613 15.528 443.875 7.275"></polyline>
                <path d="M59.248,11.865 C60.243,11.865 61.105,12.607 61.23,13.621 L63.056,28.477 C63.191,29.573 62.412,30.571 61.315,30.706 C60.224,30.845 59.221,30.061 59.086,28.965 L57.26,14.109 C57.125,13.012 57.905,12.014 59.001,11.879 C59.084,11.87 59.166,11.865 59.248,11.865" id="Fill-229" fill="#000105"></path>
                <path d="M51.983,11.865 C52.979,11.865 53.841,12.607 53.965,13.621 L55.791,28.477 C55.926,29.573 55.146,30.571 54.05,30.706 C52.947,30.841 51.956,30.061 51.821,28.965 L49.996,14.109 C49.861,13.012 50.64,12.014 51.736,11.879 C51.819,11.87 51.902,11.865 51.983,11.865" id="Fill-230" fill="#000105"></path>
                <path d="M48.273,11.865 C49.269,11.865 50.131,12.607 50.255,13.621 L52.081,28.477 C52.216,29.573 51.437,30.571 50.34,30.706 C49.235,30.841 48.246,30.061 48.111,28.965 L46.286,14.109 C46.151,13.012 46.93,12.014 48.026,11.879 C48.109,11.87 48.192,11.865 48.273,11.865" id="Fill-231" fill="#000105"></path>
                <path d="M55.728,11.345 C56.724,11.345 57.585,12.087 57.71,13.101 L59.536,27.957 C59.67,29.053 58.891,30.051 57.795,30.186 C56.691,30.322 55.7,29.54 55.566,28.445 L53.74,13.589 C53.605,12.493 54.385,11.495 55.481,11.36 C55.564,11.35 55.646,11.345 55.728,11.345" id="Fill-232" fill="#000105"></path>
                <polyline id="Fill-233" fill="#000105" points="47.835 24.334 50.532 25.649 47.266 32.344 41.616 37.084 47.835 24.334"></polyline>
                <polyline id="Fill-234" fill="#000105" points="53.703 24.263 56.703 24.285 56.601 38.47 53.725 34.332 53.703 24.263"></polyline>
                <polyline id="Fill-235" fill="#000105" points="51.531 15.068 48.573 15.568 46.21 1.58 49.761 5.155 51.531 15.068"></polyline>
                <polyline id="Fill-236" fill="#000105" points="60.559 26.268 68.653 40.949 63.292 37.084 57.932 27.716 60.559 26.268"></polyline>
                <polyline id="Fill-237" fill="#000105" points="59.551 7.275 65.028 3.208 57.954 16.905 55.289 15.528 59.551 7.275"></polyline>
                <path d="M298.261,32.408 C297.266,32.437 296.382,31.72 296.228,30.711 L293.971,15.914 C293.804,14.822 294.554,13.802 295.646,13.636 C296.733,13.464 297.758,14.219 297.924,15.311 L300.182,30.107 C300.349,31.2 299.599,32.22 298.507,32.386 C298.424,32.399 298.342,32.406 298.261,32.408" id="Fill-238" fill="#000105"></path>
                <path d="M305.522,32.197 C304.527,32.226 303.644,31.509 303.49,30.5 L301.233,15.703 C301.066,14.611 301.816,13.591 302.908,13.424 C304.006,13.257 305.02,14.008 305.187,15.099 L307.444,29.896 C307.61,30.988 306.86,32.009 305.768,32.175 C305.686,32.187 305.603,32.195 305.522,32.197" id="Fill-239" fill="#000105"></path>
                <path d="M309.231,32.089 C308.235,32.118 307.352,31.401 307.198,30.392 L304.941,15.595 C304.774,14.503 305.524,13.483 306.616,13.316 C307.717,13.149 308.728,13.9 308.895,14.991 L311.152,29.788 C311.319,30.88 310.569,31.901 309.477,32.067 C309.394,32.079 309.312,32.087 309.231,32.089" id="Fill-240" fill="#000105"></path>
                <path d="M301.794,32.825 C300.799,32.854 299.916,32.137 299.762,31.128 L297.505,16.332 C297.338,15.239 298.088,14.22 299.18,14.053 C300.279,13.885 301.293,14.637 301.459,15.728 L303.716,30.524 C303.882,31.616 303.132,32.637 302.04,32.803 C301.958,32.816 301.875,32.823 301.794,32.825" id="Fill-241" fill="#000105"></path>
                <polyline id="Fill-242" fill="#000105" points="309.305 19.612 306.572 18.376 309.641 11.589 315.151 6.687 309.305 19.612"></polyline>
                <polyline id="Fill-243" fill="#000105" points="306.909 26.949 309.648 25.723 315.441 38.672 311.108 36.101 306.909 26.949"></polyline>
                <polyline id="Fill-244" fill="#000105" points="296.531 18.05 288.014 3.61 293.484 7.317 299.115 16.526 296.531 18.05"></polyline>
                <polyline id="Fill-245" fill="#000105" points="298.091 37.005 292.735 41.229 299.407 27.333 302.112 28.632 298.091 37.005"></polyline>
                <path d="M132.247,48.821 C132.312,48.886 132.603,48.709 132.482,48.588 C132.416,48.523 132.127,48.7 132.247,48.821" id="Fill-361" fill="#E6E6E0"></path>
                <path d="M100.435,41.801 C100.668,41.801 100.902,41.801 101.136,41.801 C101.136,41.567 101.136,41.333 101.136,41.1 C100.902,41.1 100.668,41.1 100.435,41.1 C100.435,41.333 100.435,41.567 100.435,41.801" id="Fill-362" fill="#E6E6E0"></path>
                <path d="M35.17,41.1 C35.169,41.229 35.36,41.365 35.404,41.1 C35.405,40.969 35.215,40.834 35.17,41.1" id="Fill-363" fill="#E6E6E0"></path>
                <path d="M66.749,38.292 C66.686,38.227 66.395,38.405 66.516,38.526 C66.581,38.59 66.871,38.412 66.749,38.292" id="Fill-364" fill="#E6E6E0"></path>
                <path d="M63.474,37.823 C63.539,37.888 63.829,37.71 63.709,37.589 C63.643,37.525 63.354,37.703 63.474,37.823" id="Fill-365" fill="#E6E6E0"></path>
                <path d="M43.591,37.355 C43.557,37.601 43.772,37.96 43.825,37.589 C43.861,37.344 43.644,36.985 43.591,37.355" id="Fill-366" fill="#E6E6E0"></path>
                <path d="M129.674,35.951 C129.61,35.887 129.32,36.064 129.44,36.186 C129.506,36.25 129.795,36.073 129.674,35.951" id="Fill-367" fill="#E6E6E0"></path>
                <path d="M96.691,33.845 C96.656,34.091 96.873,34.45 96.926,34.079 C96.96,33.834 96.744,33.475 96.691,33.845" id="Fill-368" fill="#E6E6E0"></path>
                <path d="M53.182,32.207 C53.133,32.88 53.241,33.396 53.65,33.612 C53.992,33.174 54.933,33.336 54.82,32.442 C54.318,32.259 53.512,31.873 53.182,32.207" id="Fill-369" fill="#E6E6E0"></path>
                <path d="M81.253,32.675 C81.097,32.675 80.941,32.675 80.785,32.675 C80.643,32.688 80.509,32.71 80.551,32.909 C80.886,32.965 80.946,33.295 81.253,33.378 C81.253,33.144 81.253,32.909 81.253,32.675" id="Fill-370" fill="#E6E6E0"></path>
                <path d="M117.745,30.336 C117.784,30.686 117.661,31.199 117.979,31.272 C118.283,30.96 118.287,30.401 117.745,30.336" id="Fill-371" fill="#E6E6E0"></path>
                <path d="M95.756,30.336 C95.758,30.572 96.166,30.63 96.223,30.336 C96.174,30.053 95.964,30.192 95.756,30.336" id="Fill-372" fill="#E6E6E0"></path>
                <path d="M121.488,27.294 C121.451,27.018 121.527,26.629 121.253,26.591 C121.24,26.734 121.218,26.868 121.019,26.825 C121.046,27.111 121.089,27.38 121.488,27.294" id="Fill-373" fill="#E6E6E0"></path>
                <path d="M8.504,25.187 C9.12,25.258 9.271,24.863 9.204,24.251 C8.588,24.181 8.437,24.575 8.504,25.187" id="Fill-374" fill="#E6E6E0"></path>
                <path d="M46.633,21.911 C45.845,21.201 45.923,22.777 46.633,21.911" id="Fill-375" fill="#E6E6E0"></path>
                <path d="M132.012,20.507 C132.012,20.663 132.012,20.82 132.012,20.975 C132.445,21.753 133.154,20.273 132.012,20.507" id="Fill-376" fill="#E6E6E0"></path>
                <path d="M64.177,18.168 C63.854,18.469 63.946,19.184 63.943,19.806 C64.696,19.701 65.301,19.448 65.113,18.402 C64.67,18.454 64.596,18.138 64.177,18.168" id="Fill-377" fill="#E6E6E0"></path>
                <path d="M49.44,18.869 C49.14,19.792 50.079,19.477 50.376,19.806 C50.484,19.073 50.171,18.761 49.44,18.869" id="Fill-378" fill="#E6E6E0"></path>
                <path d="M52.715,18.869 C52.65,18.805 52.36,18.982 52.481,19.103 C52.545,19.168 52.836,18.99 52.715,18.869" id="Fill-379" fill="#E6E6E0"></path>
                <path d="M117.042,18.402 C117.042,18.531 117.232,18.667 117.276,18.402 C117.278,18.271 117.088,18.136 117.042,18.402" id="Fill-380" fill="#E6E6E0"></path>
                <path d="M81.954,15.593 C81.954,15.749 81.954,15.905 81.954,16.061 C82.387,16.839 83.095,15.359 81.954,15.593" id="Fill-381" fill="#E6E6E0"></path>
                <path d="M109.09,13.019 C109.655,12.234 108.305,13.585 109.09,13.019" id="Fill-382" fill="#E6E6E0"></path>
                <path d="M70.492,13.019 C70.506,12.876 70.528,12.742 70.726,12.785 C70.726,12.629 70.726,12.474 70.726,12.317 C70.151,11.954 70.039,13.112 70.492,13.019" id="Fill-383" fill="#E6E6E0"></path>
                <path d="M88.738,12.317 C88.741,12.553 89.148,12.612 89.206,12.317 C88.943,12.341 88.843,11.977 88.738,12.317" id="Fill-384" fill="#E6E6E0"></path>
                <path d="M77.276,11.381 C77.211,11.317 76.922,11.494 77.042,11.615 C77.107,11.68 77.396,11.502 77.276,11.381" id="Fill-385" fill="#E6E6E0"></path>
                <path d="M101.37,10.913 C101.552,10.861 101.832,10.907 101.839,10.68 C101.656,10.732 101.376,10.686 101.37,10.913" id="Fill-386" fill="#E6E6E0"></path>
                <path d="M77.744,9.977 C77.695,9.694 77.484,9.833 77.276,9.977 C77.279,10.213 77.686,10.271 77.744,9.977" id="Fill-387" fill="#E6E6E0"></path>
                <path d="M58.796,8.105 C58.86,8.17 59.151,7.992 59.03,7.872 C58.965,7.807 58.675,7.985 58.796,8.105" id="Fill-388" fill="#E6E6E0"></path>
                <path d="M79.382,7.169 C79.446,7.234 79.735,7.056 79.614,6.936 C79.55,6.871 79.261,7.048 79.382,7.169" id="Fill-389" fill="#E6E6E0"></path>
                <path d="M7.334,7.169 C8.107,6.929 8.713,6.521 8.737,5.531 C7.848,5.656 7.623,6.444 7.334,7.169" id="Fill-390" fill="#E6E6E0"></path>
                <path d="M114.002,5.531 C114.567,4.746 113.217,6.097 114.002,5.531" id="Fill-391" fill="#E6E6E0"></path>
                <path d="M128.74,5.531 C128.803,5.596 129.094,5.418 128.973,5.297 C128.908,5.233 128.618,5.41 128.74,5.531" id="Fill-392" fill="#E6E6E0"></path>
                <path d="M127.569,5.297 C127.75,5.245 128.031,5.291 128.036,5.063 C127.855,5.116 127.576,5.07 127.569,5.297" id="Fill-393" fill="#E6E6E0"></path>
                <path d="M95.989,5.297 C96.003,5.155 96.025,5.02 96.223,5.063 C96.223,4.907 96.223,4.751 96.223,4.595 C95.648,4.232 95.535,5.39 95.989,5.297" id="Fill-394" fill="#E6E6E0"></path>
                <path d="M36.573,4.127 C36.576,4.363 36.984,4.422 37.042,4.127 C36.779,4.151 36.678,3.787 36.573,4.127" id="Fill-395" fill="#E6E6E0"></path>
                <path d="M63.709,3.893 C64.275,3.108 62.924,4.459 63.709,3.893" id="Fill-396" fill="#E6E6E0"></path>
                <path d="M94.587,2.723 C94.587,2.958 94.587,3.191 94.587,3.425 C94.936,3.385 95.45,3.509 95.522,3.191 C95.155,3.091 95.321,2.455 94.587,2.723" id="Fill-397" fill="#E6E6E0"></path>
                <path d="M71.662,1.086 C71.598,1.021 71.307,1.198 71.428,1.319 C71.493,1.384 71.783,1.206 71.662,1.086" id="Fill-398" fill="#E6E6E0"></path>
                <path d="M95.054,0.383 C94.989,0.318 94.699,0.496 94.82,0.617 C94.884,0.682 95.175,0.504 95.054,0.383" id="Fill-399" fill="#E6E6E0"></path>
                <path d="M132.247,48.821 C132.312,48.886 132.603,48.709 132.482,48.588 C132.416,48.523 132.127,48.7 132.247,48.821" id="Fill-1140" fill="#E6E6E0"></path>
                <path d="M100.435,41.801 C100.668,41.801 100.902,41.801 101.136,41.801 C101.136,41.567 101.136,41.333 101.136,41.1 C100.902,41.1 100.668,41.1 100.435,41.1 C100.435,41.333 100.435,41.567 100.435,41.801" id="Fill-1141" fill="#E6E6E0"></path>
                <path d="M35.17,41.1 C35.169,41.229 35.36,41.365 35.404,41.1 C35.405,40.969 35.215,40.834 35.17,41.1" id="Fill-1142" fill="#E6E6E0"></path>
                <path d="M66.749,38.292 C66.686,38.227 66.395,38.405 66.516,38.526 C66.581,38.59 66.871,38.412 66.749,38.292" id="Fill-1143" fill="#E6E6E0"></path>
                <path d="M63.474,37.823 C63.539,37.888 63.829,37.71 63.709,37.589 C63.643,37.525 63.354,37.703 63.474,37.823" id="Fill-1144" fill="#E6E6E0"></path>
                <path d="M43.591,37.355 C43.557,37.601 43.772,37.96 43.825,37.589 C43.861,37.344 43.644,36.985 43.591,37.355" id="Fill-1145" fill="#E6E6E0"></path>
                <path d="M96.691,33.845 C96.656,34.091 96.873,34.45 96.926,34.079 C96.96,33.834 96.744,33.475 96.691,33.845" id="Fill-1146" fill="#E6E6E0"></path>
                <path d="M53.182,32.207 C53.133,32.88 53.241,33.396 53.65,33.612 C53.992,33.174 54.933,33.336 54.82,32.442 C54.318,32.259 53.512,31.873 53.182,32.207" id="Fill-1147" fill="#E6E6E0"></path>
                <path d="M81.253,32.675 C81.097,32.675 80.941,32.675 80.785,32.675 C80.643,32.688 80.509,32.71 80.551,32.909 C80.886,32.965 80.946,33.295 81.253,33.378 C81.253,33.144 81.253,32.909 81.253,32.675" id="Fill-1148" fill="#E6E6E0"></path>
                <path d="M95.756,30.336 C95.758,30.572 96.166,30.63 96.223,30.336 C96.174,30.053 95.964,30.192 95.756,30.336" id="Fill-1149" fill="#E6E6E0"></path>
                <path d="M8.504,25.187 C9.12,25.258 9.271,24.863 9.204,24.251 C8.588,24.181 8.437,24.575 8.504,25.187" id="Fill-1150" fill="#E6E6E0"></path>
                <path d="M46.633,21.911 C45.845,21.201 45.923,22.777 46.633,21.911" id="Fill-1151" fill="#E6E6E0"></path>
                <path d="M64.177,18.168 C63.854,18.469 63.946,19.184 63.943,19.806 C64.696,19.701 65.301,19.448 65.113,18.402 C64.67,18.454 64.596,18.138 64.177,18.168" id="Fill-1152" fill="#E6E6E0"></path>
                <path d="M49.44,18.869 C49.14,19.792 50.079,19.477 50.376,19.806 C50.484,19.073 50.171,18.761 49.44,18.869" id="Fill-1153" fill="#E6E6E0"></path>
                <path d="M52.715,18.869 C52.65,18.805 52.36,18.982 52.481,19.103 C52.545,19.168 52.836,18.99 52.715,18.869" id="Fill-1154" fill="#E6E6E0"></path>
                <path d="M81.954,15.593 C81.954,15.749 81.954,15.905 81.954,16.061 C82.387,16.839 83.095,15.359 81.954,15.593" id="Fill-1155" fill="#E6E6E0"></path>
                <path d="M70.492,13.019 C70.506,12.876 70.528,12.742 70.726,12.785 C70.726,12.629 70.726,12.474 70.726,12.317 C70.151,11.954 70.039,13.112 70.492,13.019" id="Fill-1156" fill="#E6E6E0"></path>
                <path d="M88.738,12.317 C88.741,12.553 89.148,12.612 89.206,12.317 C88.943,12.341 88.843,11.977 88.738,12.317" id="Fill-1157" fill="#E6E6E0"></path>
                <path d="M77.276,11.381 C77.211,11.317 76.922,11.494 77.042,11.615 C77.107,11.68 77.396,11.502 77.276,11.381" id="Fill-1158" fill="#E6E6E0"></path>
                <path d="M101.37,10.913 C101.552,10.861 101.832,10.907 101.839,10.68 C101.656,10.732 101.376,10.686 101.37,10.913" id="Fill-1159" fill="#E6E6E0"></path>
                <path d="M77.744,9.977 C77.695,9.694 77.484,9.833 77.276,9.977 C77.279,10.213 77.686,10.271 77.744,9.977" id="Fill-1160" fill="#E6E6E0"></path>
                <path d="M58.796,8.105 C58.86,8.17 59.151,7.992 59.03,7.872 C58.965,7.807 58.675,7.985 58.796,8.105" id="Fill-1161" fill="#E6E6E0"></path>
                <path d="M79.382,7.169 C79.446,7.234 79.735,7.056 79.614,6.936 C79.55,6.871 79.261,7.048 79.382,7.169" id="Fill-1162" fill="#E6E6E0"></path>
                <path d="M7.334,7.169 C8.107,6.929 8.713,6.521 8.737,5.531 C7.848,5.656 7.623,6.444 7.334,7.169" id="Fill-1163" fill="#E6E6E0"></path>
                <path d="M95.989,5.297 C96.003,5.155 96.025,5.02 96.223,5.063 C96.223,4.907 96.223,4.751 96.223,4.595 C95.648,4.232 95.535,5.39 95.989,5.297" id="Fill-1164" fill="#E6E6E0"></path>
                <path d="M36.573,4.127 C36.576,4.363 36.984,4.422 37.042,4.127 C36.779,4.151 36.678,3.787 36.573,4.127" id="Fill-1165" fill="#E6E6E0"></path>
                <path d="M63.709,3.893 C64.275,3.108 62.924,4.459 63.709,3.893" id="Fill-1166" fill="#E6E6E0"></path>
                <path d="M94.587,2.723 C94.587,2.958 94.587,3.191 94.587,3.425 C94.936,3.385 95.45,3.509 95.522,3.191 C95.155,3.091 95.321,2.455 94.587,2.723" id="Fill-1167" fill="#E6E6E0"></path>
                <path d="M71.662,1.086 C71.598,1.021 71.307,1.198 71.428,1.319 C71.493,1.384 71.783,1.206 71.662,1.086" id="Fill-1168" fill="#E6E6E0"></path>
                <path d="M95.054,0.383 C94.989,0.318 94.699,0.496 94.82,0.617 C94.884,0.682 95.175,0.504 95.054,0.383" id="Fill-1169" fill="#E6E6E0"></path>
            </g>
        </g>
    </g>
</svg>