<svg width="340" height="61" viewBox="0 0 340 61" fill="none" xmlns="http://www.w3.org/2000/svg">
<path d="M5.12 44.04C3.89333 44.4133 2.82667 44.4133 1.92 44.04C1.06667 43.6133 0.64 42.8667 0.64 41.8C0.64 41.4267 0.773333 41.1067 1.04 40.84C1.30667 40.5733 1.68 40.36 2.16 40.2C2.69333 40.04 3.2 39.9067 3.68 39.8C4.16 39.6933 4.69333 39.5867 5.28 39.48C5.92 39.3733 6.4 39.2933 6.72 39.24C9.92 38.3867 12.9867 36.7333 15.92 34.28C18.8533 31.8267 21.2533 29.0533 23.12 25.96C21.1467 25.5867 19.0667 25.6933 16.88 26.28C14.7467 26.8133 12.5333 27.5333 10.24 28.44C7.94667 29.3467 6 29.8533 4.4 29.96C3.44 30.0133 2.66667 29.7467 2.08 29.16C1.49333 28.52 1.2 27.7467 1.2 26.84C1.2 24.7067 2.8 22.3067 6 19.64L15.36 11.64C18.1333 9.29333 20.3733 8.12 22.08 8.12C23.3067 8.12 24.08 8.78666 24.4 10.12C18.2667 12.7333 12.5867 17.4 7.36 24.12C8.16 24.2267 10.88 23.8533 15.52 23C20.2133 22.0933 22.9333 21.6933 23.68 21.8C24.48 21.8533 25.0667 21.9067 25.44 21.96C25.8133 22.0133 26.24 22.12 26.72 22.28C27.2 22.44 27.52 22.68 27.68 23C27.8933 23.32 28.0267 23.7733 28.08 24.36C28.08 25.2133 27.68 26.3867 26.88 27.88C24.9067 31.5067 21.9467 34.76 18 37.64C14.1067 40.4667 9.81333 42.6 5.12 44.04ZM31.8325 6.44C30.9258 4.09333 31.2192 2.17333 32.7125 0.679999C33.6192 0.626664 34.3125 0.813329 34.7925 1.24C35.2725 1.61333 35.7258 2.36 36.1525 3.48C36.7925 5.29333 37.1125 8.17333 37.1125 12.12C37.1125 16.2267 37.2725 21.1333 37.5925 26.84C37.9658 32.5467 38.1525 36.6 38.1525 39C38.1525 41.7733 37.8058 43.96 37.1125 45.56C35.6725 44.92 34.6592 43.64 34.0725 41.72C33.4858 39.8 33.2192 37.9067 33.2725 36.04C33.3258 34.12 33.4592 31.72 33.6725 28.84C33.8858 25.9067 33.9925 23.7733 33.9925 22.44C33.9925 21.7467 33.9658 20.6267 33.9125 19.08C33.9125 17.48 33.8858 16.4667 33.8325 16.04C33.8325 15.6133 33.7792 14.8933 33.6725 13.88C33.6192 12.8667 33.5125 12.0933 33.3525 11.56C33.1925 10.9733 32.9792 10.2533 32.7125 9.4C32.4992 8.49333 32.2058 7.50667 31.8325 6.44ZM70.5688 28.52C70.6221 26.8667 70.4621 25.3467 70.0888 23.96C69.7154 22.5733 69.0221 21.5067 68.0088 20.76C66.9954 19.96 65.7688 19.8 64.3288 20.28C60.1154 21.72 56.5421 23.96 53.6088 27C52.6488 27.9067 51.7688 28.0933 50.9688 27.56C50.2221 26.9733 49.8488 26.0933 49.8488 24.92C49.8488 24.0133 50.3288 23.1333 51.2888 22.28C52.3021 21.3733 53.3688 20.6533 54.4888 20.12C55.6088 19.5333 56.9688 18.8933 58.5688 18.2C60.1688 17.4533 61.2354 16.9467 61.7688 16.68C63.0488 15.9333 64.0088 15.4267 64.6488 15.16C65.3421 14.8933 66.0888 14.76 66.8888 14.76C67.7421 14.7067 68.6221 14.8933 69.5288 15.32C70.1688 15.5867 70.7288 16.1733 71.2088 17.08C74.1954 22.4133 75.6888 27.5067 75.6888 32.36C75.6888 32.8933 76.1954 34.44 77.2088 37C78.2754 39.5067 78.8088 41.1067 78.8088 41.8C78.8088 42.6 78.5688 43.4267 78.0888 44.28C77.6621 45.1333 77.1288 45.56 76.4888 45.56C75.6888 45.5067 75.0221 45.2667 74.4888 44.84C73.9554 44.36 73.5554 43.88 73.2888 43.4C73.0754 42.8667 72.8088 42.12 72.4888 41.16C71.7421 41.4267 70.4888 41.9333 68.7288 42.68C66.9688 43.4267 65.5821 43.9867 64.5688 44.36C63.6088 44.68 62.3821 45.1067 60.8888 45.64C59.4488 46.12 58.0888 46.4667 56.8088 46.68C55.5821 46.8933 54.3554 47 53.1288 47C49.0221 47 46.1954 45.48 44.6488 42.44C44.3821 41.5867 44.2221 40.84 44.1688 40.2C44.1688 39.5067 44.4088 38.8133 44.8888 38.12C45.4221 37.3733 45.9554 36.76 46.4888 36.28C47.0221 35.7467 47.6888 35.2133 48.4888 34.68C49.3421 34.1467 50.0888 33.6933 50.7287 33.32C51.4221 32.9467 52.1421 32.6267 52.8888 32.36C56.6221 30.6533 61.9554 29.4533 68.8888 28.76C69.6354 28.6533 70.1954 28.5733 70.5688 28.52ZM49.0488 41.16C51.2354 41.7467 53.3421 42.0667 55.3688 42.12C57.3954 42.12 59.4488 41.8267 61.5288 41.24C63.6621 40.6533 65.5554 40.0133 67.2088 39.32C68.8621 38.5733 70.4088 37.72 71.8488 36.76C70.6754 35 68.8354 33.88 66.3288 33.4C63.8754 32.8667 61.4221 32.92 58.9688 33.56C56.5688 34.1467 54.3821 35.1333 52.4088 36.52C50.4354 37.9067 49.3154 39.4533 49.0488 41.16ZM81.6125 22.84C83.3192 22.84 84.9725 23.56 86.5725 25C88.1725 26.3867 89.4525 27.96 90.4125 29.72C91.3725 31.48 92.4658 33.4 93.6925 35.48C94.9725 37.56 96.0125 39.0267 96.8125 39.88C98.0925 37.6933 100.013 33.56 102.573 27.48C105.133 21.4 106.786 17.5333 107.533 15.88C107.693 16.0933 107.986 16.3867 108.413 16.76C108.893 17.1333 109.239 17.5333 109.453 17.96C109.666 18.3333 109.773 18.8133 109.773 19.4C109.773 20.36 109.479 21.56 108.893 23C108.359 24.3867 107.639 25.96 106.733 27.72C105.826 29.4267 105.266 30.5467 105.053 31.08C104.466 32.36 103.346 35 101.693 39C100.039 42.9467 98.6258 46.2533 97.4525 48.92C96.2792 51.5333 95.2392 53.5867 94.3325 55.08C92.9458 57.32 91.2392 58.9733 89.2125 60.04C88.6258 59.08 88.4925 57.96 88.8125 56.68C89.1325 55.4533 89.6658 54.28 90.4125 53.16C91.2125 52.0933 92.0125 50.92 92.8125 49.64C93.6125 48.3067 94.1992 47.08 94.5725 45.96C94.9458 44.84 94.8658 43.6667 94.3325 42.44C94.0658 41.3733 92.1725 38.6 88.6525 34.12C87.6925 32.9467 87.2658 32.36 87.3725 32.36C87.3192 32.04 86.7325 31.2933 85.6125 30.12C84.5458 28.9467 83.5592 27.6667 82.6525 26.28C81.7458 24.8933 81.3992 23.7467 81.6125 22.84ZM130.489 23.96C132.249 22.9467 134.115 22.3067 136.089 22.04C138.115 21.72 139.875 21.96 141.369 22.76C142.862 23.56 143.609 24.92 143.609 26.84C143.609 28.3333 142.889 29.8 141.449 31.24C140.062 32.6267 138.542 33.6133 136.889 34.2C135.982 34.5733 134.862 34.9733 133.529 35.4C132.249 35.7733 131.262 36.0667 130.569 36.28C129.929 36.4933 129.182 36.8667 128.329 37.4C127.529 37.9333 126.809 38.5467 126.169 39.24C128.462 39.8267 130.969 39.88 133.689 39.4C136.462 38.8667 138.835 38.1733 140.809 37.32C142.782 36.4667 145.102 35.64 147.769 34.84C150.489 33.9867 152.969 33.56 155.209 33.56C154.889 35 154.089 36.12 152.809 36.92C152.222 37.2933 151.049 37.8533 149.289 38.6C147.529 39.3467 145.155 40.3067 142.169 41.48C139.182 42.6 137.609 43.1867 137.449 43.24C135.795 43.9333 134.115 44.44 132.409 44.76C130.702 45.0267 128.995 45.0533 127.289 44.84C125.582 44.5733 124.169 43.96 123.049 43C122.835 42.8933 122.409 42.4933 121.769 41.8C121.129 41.1067 120.595 40.7333 120.169 40.68C119.795 40.68 118.915 40.8667 117.529 41.24C116.195 41.56 115.235 41.7467 114.649 41.8C113.849 41.8533 113.235 41.5867 112.809 41C112.382 40.4133 112.169 39.7467 112.169 39C112.169 38.36 112.409 37.9333 112.889 37.72C113.369 37.4533 113.902 37.3467 114.489 37.4C115.129 37.4 115.822 37.4 116.569 37.4C117.369 37.3467 118.009 37.1867 118.489 36.92C119.822 36.5467 120.675 36.1467 121.049 35.72C121.422 35.24 121.955 34.0933 122.649 32.28C122.915 31.48 123.182 30.7867 123.449 30.2C123.769 29.56 124.142 28.9733 124.569 28.44C125.049 27.9067 125.395 27.5067 125.609 27.24C125.822 26.9733 126.302 26.6 127.049 26.12C127.795 25.64 128.275 25.32 128.489 25.16C128.755 25 129.422 24.6 130.489 23.96ZM126.809 32.92C128.729 33.0267 130.542 32.76 132.249 32.12C133.955 31.48 135.315 30.76 136.329 29.96C137.342 29.16 138.595 28.04 140.089 26.6C137.155 26.2267 134.542 26.6533 132.249 27.88C129.955 29.1067 128.142 30.7867 126.809 32.92ZM163.098 44.92C161.498 44.7067 160.218 43.9067 159.258 42.52C158.351 41.08 157.818 39.32 157.658 37.24C157.551 35.16 157.578 33.1333 157.738 31.16C157.898 29.1867 158.218 27.2667 158.698 25.4C158.698 25.08 158.831 23.4267 159.098 20.44C159.418 17.4 160.325 15.88 161.818 15.88C162.245 15.88 162.618 15.9333 162.938 16.04C163.258 16.1467 163.498 16.3333 163.658 16.6C163.871 16.8667 164.031 17.1067 164.138 17.32C164.298 17.5333 164.378 17.8533 164.378 18.28C164.378 18.6533 164.378 18.9733 164.378 19.24C164.431 19.5067 164.405 19.9067 164.298 20.44C164.245 20.92 164.191 21.2667 164.138 21.48C164.138 21.6933 164.085 22.0667 163.978 22.6C163.871 23.08 163.791 23.3733 163.738 23.48C165.018 23.8 167.338 23.8533 170.698 23.64C174.111 23.4267 176.431 23.56 177.658 24.04C178.831 24.4133 179.871 25.0533 180.778 25.96C179.978 26.4933 178.618 26.9467 176.698 27.32C174.778 27.64 172.965 27.88 171.258 28.04C169.551 28.1467 167.951 28.52 166.458 29.16C164.965 29.8 164.085 30.7067 163.818 31.88C163.551 33.1067 163.418 35.2933 163.418 38.44C163.418 41.5867 163.311 43.7467 163.098 44.92ZM227.464 44.04C226.237 44.4133 225.17 44.4133 224.264 44.04C223.41 43.6133 222.984 42.8667 222.984 41.8C222.984 41.4267 223.117 41.1067 223.384 40.84C223.65 40.5733 224.024 40.36 224.504 40.2C225.037 40.04 225.544 39.9067 226.024 39.8C226.504 39.6933 227.037 39.5867 227.624 39.48C228.264 39.3733 228.744 39.2933 229.064 39.24C232.264 38.3867 235.33 36.7333 238.264 34.28C241.197 31.8267 243.597 29.0533 245.464 25.96C243.49 25.5867 241.41 25.6933 239.224 26.28C237.09 26.8133 234.877 27.5333 232.584 28.44C230.29 29.3467 228.344 29.8533 226.744 29.96C225.784 30.0133 225.01 29.7467 224.424 29.16C223.837 28.52 223.544 27.7467 223.544 26.84C223.544 24.7067 225.144 22.3067 228.344 19.64L237.704 11.64C240.477 9.29333 242.717 8.12 244.424 8.12C245.65 8.12 246.424 8.78666 246.744 10.12C240.61 12.7333 234.93 17.4 229.704 24.12C230.504 24.2267 233.224 23.8533 237.864 23C242.557 22.0933 245.277 21.6933 246.024 21.8C246.824 21.8533 247.41 21.9067 247.784 21.96C248.157 22.0133 248.584 22.12 249.064 22.28C249.544 22.44 249.864 22.68 250.024 23C250.237 23.32 250.37 23.7733 250.424 24.36C250.424 25.2133 250.024 26.3867 249.224 27.88C247.25 31.5067 244.29 34.76 240.344 37.64C236.45 40.4667 232.157 42.6 227.464 44.04ZM254.576 3.24C255.323 3.02667 255.963 3.37333 256.496 4.28C257.083 5.13333 257.323 6.09333 257.216 7.16C257.163 8.22667 256.683 8.81333 255.776 8.92C254.656 9.08 253.883 8.62667 253.456 7.56C253.083 6.49333 253.03 5.26666 253.296 3.88C253.35 3.56 253.456 3.37333 253.616 3.32C253.83 3.26667 254.15 3.24 254.576 3.24ZM253.936 44.92C253.51 44.12 253.243 43.1867 253.136 42.12C253.083 41.0533 253.136 40.0933 253.296 39.24C253.456 38.3333 253.59 37.2133 253.696 35.88C253.856 34.5467 253.936 33.3733 253.936 32.36C253.883 31.5067 254.096 29.8533 254.576 27.4C255.056 24.9467 255.27 23.64 255.216 23.48C255.216 23.32 255.163 22.8133 255.056 21.96C255.003 21.1067 254.95 20.4667 254.896 20.04C254.896 19.56 254.896 19 254.896 18.36C254.95 17.72 255.083 17.2133 255.296 16.84C255.51 16.4133 255.803 16.1467 256.176 16.04C256.976 16.1467 257.75 16.8133 258.496 18.04C259.243 19.2133 259.536 20.4133 259.376 21.64C259.483 22.0667 259.403 23.08 259.136 24.68C258.87 26.28 258.55 27.8533 258.176 29.4C257.856 30.8933 257.696 31.64 257.696 31.64C257.696 32.12 257.67 32.84 257.616 33.8C257.563 34.76 257.51 35.56 257.456 36.2C257.403 36.84 257.323 37.64 257.216 38.6C257.11 39.5067 256.95 40.28 256.736 40.92C256.576 41.56 256.363 42.2 256.096 42.84C255.883 43.4267 255.59 43.9067 255.216 44.28C254.843 44.6 254.416 44.8133 253.936 44.92ZM268.784 14.6C268.784 14.12 268.758 13.4 268.704 12.44C268.651 11.4267 268.598 10.5733 268.544 9.88C268.544 9.13333 268.571 8.38667 268.624 7.64C268.731 6.84 268.944 6.22666 269.264 5.8C269.584 5.37333 270.064 5.16 270.704 5.16C272.891 5.16 273.904 6.81333 273.744 10.12C273.691 11.9333 273.318 14.7867 272.624 18.68C271.931 22.5733 271.691 25.64 271.904 27.88C273.344 27.6133 276.144 26.4933 280.304 24.52C284.464 22.5467 286.731 21.56 287.104 21.56C287.478 21.4533 288.198 21.2667 289.264 21C290.331 20.7333 291.078 20.5467 291.504 20.44C291.931 20.3333 292.571 20.2267 293.424 20.12C294.331 19.96 295.078 19.9067 295.664 19.96C296.251 19.96 296.891 20.0133 297.584 20.12C298.278 20.2267 298.971 20.44 299.664 20.76C300.411 21.08 300.838 21.9067 300.944 23.24C301.051 24.5733 300.864 25.6933 300.384 26.6C299.851 27.9867 298.944 29.3733 297.664 30.76C296.384 32.0933 294.784 33.4 292.864 34.68C290.944 35.9067 289.371 36.8667 288.144 37.56C286.918 38.2533 285.344 39.08 283.424 40.04C282.038 40.7333 280.651 41.32 279.264 41.8C277.878 42.2267 276.171 42.7067 274.144 43.24C272.171 43.72 270.731 44.0667 269.824 44.28C269.078 44.1733 268.518 43.8267 268.144 43.24C267.824 42.6 267.611 41.6933 267.504 40.52L268.144 39.88C268.038 39.6667 267.584 39.1867 266.784 38.44C265.984 37.6933 265.584 36.92 265.584 36.12C265.584 35.7467 265.931 34.6533 266.624 32.84C267.318 30.9733 267.611 29.7467 267.504 29.16C267.398 28.4667 267.584 26.0933 268.064 22.04C268.544 17.9867 268.784 15.5067 268.784 14.6ZM293.984 24.36C292.704 24.36 291.718 24.4133 291.024 24.52C290.384 24.6267 289.878 24.76 289.504 24.92C289.131 25.0267 288.358 25.32 287.184 25.8C286.011 26.28 284.731 26.76 283.344 27.24C282.064 27.72 280.811 28.28 279.584 28.92C278.358 29.56 277.158 30.36 275.984 31.32C274.811 32.28 273.904 33.4 273.264 34.68C272.624 35.96 272.411 37.2667 272.624 38.6C277.798 37.7467 282.464 36.12 286.624 33.72C290.784 31.2667 294.118 28.2533 296.624 24.68C295.718 24.4667 294.838 24.36 293.984 24.36ZM306.762 26.92C306.229 26.9733 305.722 26.7067 305.242 26.12C304.762 25.5333 304.522 24.9467 304.522 24.36C304.522 23.24 306.469 21.96 310.362 20.52C310.575 20.4133 310.735 20.3333 310.842 20.28C311.909 19.9067 316.335 17.8 324.122 13.96C324.282 13.9067 324.442 13.9333 324.602 14.04C324.815 14.0933 324.922 14.12 324.922 14.12C324.975 14.12 325.082 14.2267 325.242 14.44L325.402 14.6C326.362 15.1333 326.842 15.9867 326.842 17.16C326.842 17.7467 326.709 18.4667 326.442 19.32C326.175 20.12 325.909 20.8133 325.642 21.4C325.375 21.9333 324.975 22.7067 324.442 23.72C323.909 24.68 323.589 25.24 323.482 25.4C324.282 25.5067 325.829 25.4267 328.122 25.16C330.469 24.84 331.882 24.68 332.362 24.68C332.362 27.1333 331.082 28.6 328.522 29.08C328.202 29.1333 327.562 29.24 326.602 29.4C325.695 29.5067 325.135 29.5867 324.922 29.64C324.762 29.6933 324.362 29.8 323.722 29.96C323.082 30.0667 322.655 30.2 322.442 30.36C322.282 30.4667 321.962 30.6533 321.482 30.92C321.055 31.1333 320.655 31.4 320.282 31.72C319.962 32.04 319.615 32.44 319.242 32.92C318.069 34.2 316.975 35.9067 315.962 38.04C317.562 38.1467 319.109 37.96 320.602 37.48C322.149 37 324.549 36.04 327.802 34.6C328.815 34.12 329.775 33.64 330.682 33.16C331.642 32.68 332.309 32.36 332.682 32.2C333.109 31.9867 333.642 31.8 334.282 31.64C334.922 31.48 335.722 31.3467 336.682 31.24C337.749 31.1333 338.549 31.3733 339.082 31.96C339.669 32.5467 339.749 33.2933 339.322 34.2C339.162 34.6267 338.575 35.0267 337.562 35.4C336.549 35.7733 335.322 36.1467 333.882 36.52C332.495 36.84 331.562 37.1067 331.082 37.32C322.122 41.1067 315.669 44.3333 311.722 47C309.322 48.6 307.989 48.12 307.722 45.56C307.615 44.6 307.855 43.4533 308.442 42.12C309.082 40.7867 310.015 39.2133 311.242 37.4C312.522 35.5867 313.242 34.52 313.402 34.2C311.589 33.9867 309.909 33.9867 308.362 34.2C307.669 31.64 308.442 30.0933 310.682 29.56C311.055 29.5067 311.855 29.3733 313.082 29.16C314.309 28.8933 315.269 28.68 315.962 28.52C317.295 28.1467 318.362 27.1867 319.162 25.64C319.962 24.0933 320.362 22.3067 320.362 20.28C318.922 20.76 317.429 21.3733 315.882 22.12C314.335 22.8667 312.682 23.7467 310.922 24.76C309.162 25.72 307.775 26.44 306.762 26.92Z" fill="black"/>
</svg>
